<svg width="15" height="15" viewBox="0 0 41 41" fill="none" xmlns="http://www.w3.org/2000/svg">
<path d="M32.778 40.7114C31.0348 40.7114 28.5861 40.082 24.9193 38.037C20.4603 35.5409 17.0114 33.2364 12.5766 28.8209C8.30071 24.5552 6.21992 21.7934 3.30772 16.5033C0.0177642 10.5304 0.578593 7.39958 1.20551 6.06147C1.95209 4.46216 3.0541 3.5056 4.4785 2.55618C5.28755 2.02703 6.14372 1.57343 7.03616 1.20113C7.12547 1.1628 7.20852 1.12625 7.28264 1.09326C7.7247 0.894462 8.39448 0.594034 9.24286 0.914966C9.80905 1.12714 10.3145 1.56129 11.1057 2.34133C12.7284 3.93886 14.9458 7.49675 15.7638 9.24404C16.3131 10.4217 16.6765 11.1991 16.6774 12.0709C16.6774 13.0917 16.163 13.8788 15.5388 14.7284C15.4218 14.888 15.3057 15.0404 15.1932 15.1884C14.5136 16.0799 14.3644 16.3375 14.4627 16.7975C14.6618 17.722 16.147 20.474 18.5876 22.9051C21.0283 25.3361 23.7056 26.725 24.6353 26.9229C25.1158 27.0255 25.3792 26.8703 26.3008 26.1679C26.433 26.0671 26.5687 25.9628 26.7107 25.8585C27.6627 25.1516 28.4146 24.6515 29.4131 24.6515H29.4184C30.2873 24.6515 31.0312 25.0277 32.2636 25.6481C33.8711 26.4576 37.5424 28.6426 39.1525 30.2642C39.9357 31.0523 40.3724 31.5551 40.5859 32.1194C40.9074 32.9689 40.6046 33.6349 40.4073 34.0806C40.3742 34.1546 40.3376 34.2357 40.2992 34.3258C39.9233 35.2151 39.4662 36.0679 38.9338 36.8736C37.9845 38.2911 37.0226 39.3885 35.417 40.1346C34.5925 40.524 33.6901 40.7212 32.778 40.7114Z" fill="#2C2C2C"/>
</svg>
