<svg width="21" height="21" viewBox="0 0 21 21" fill="none" xmlns="http://www.w3.org/2000/svg">
<g filter="url(#filter0_d_36_293)">
<path d="M2.71448 10.9422C2.71448 8.82047 3.55733 6.78564 5.05762 5.28535C6.55791 3.78505 8.59275 2.9422 10.7145 2.9422C12.8362 2.9422 14.871 3.78505 16.3713 5.28535C17.8716 6.78564 18.7145 8.82047 18.7145 10.9422C18.7145 13.0639 17.8716 15.0988 16.3713 16.5991C14.871 18.0993 12.8362 18.9422 10.7145 18.9422C8.59275 18.9422 6.55791 18.0993 5.05762 16.5991C3.55733 15.0988 2.71448 13.0639 2.71448 10.9422ZM8.21448 10.4422C8.47969 10.4422 8.73405 10.3368 8.92158 10.1493C9.10912 9.96177 9.21448 9.70742 9.21448 9.4422C9.21448 9.17698 9.10912 8.92263 8.92158 8.73509C8.73405 8.54756 8.47969 8.4422 8.21448 8.4422C7.94926 8.4422 7.69491 8.54756 7.50737 8.73509C7.31983 8.92263 7.21448 9.17698 7.21448 9.4422C7.21448 9.70742 7.31983 9.96177 7.50737 10.1493C7.69491 10.3368 7.94926 10.4422 8.21448 10.4422ZM14.2145 9.4422C14.2145 9.17698 14.1091 8.92263 13.9216 8.73509C13.734 8.54756 13.4797 8.4422 13.2145 8.4422C12.9493 8.4422 12.6949 8.54756 12.5074 8.73509C12.3198 8.92263 12.2145 9.17698 12.2145 9.4422C12.2145 9.70742 12.3198 9.96177 12.5074 10.1493C12.6949 10.3368 12.9493 10.4422 13.2145 10.4422C13.4797 10.4422 13.734 10.3368 13.9216 10.1493C14.1091 9.96177 14.2145 9.70742 14.2145 9.4422ZM14.2765 14.3322C14.6525 13.9822 14.3435 13.6162 14.3315 13.6022L14.2835 13.5482C14.2278 13.4889 14.1698 13.4318 14.1095 13.3772C13.9031 13.191 13.6779 13.0267 13.4375 12.8872C12.8375 12.5332 11.9375 12.1922 10.7165 12.1922C9.49548 12.1922 8.59548 12.5322 7.99448 12.8862C7.69448 13.0612 7.47248 13.2392 7.32048 13.3762C7.24223 13.4472 7.1678 13.5223 7.09748 13.6012L7.08348 13.6192L7.07848 13.6252L7.07648 13.6272L7.07548 13.6282L7.46448 13.9422L7.07448 13.6292C6.99498 13.7326 6.95904 13.863 6.97432 13.9925C6.9896 14.1221 7.05489 14.2405 7.15627 14.3226C7.25765 14.4046 7.38709 14.4438 7.51697 14.4318C7.64685 14.4198 7.76689 14.3575 7.85148 14.2582L7.85448 14.2552L7.87748 14.2292C7.9143 14.1903 7.95266 14.153 7.99248 14.1172C8.14844 13.9768 8.3187 13.8531 8.50048 13.7482C8.96348 13.4762 9.69048 13.1922 10.7165 13.1922C11.7425 13.1922 12.4685 13.4762 12.9295 13.7482C13.1625 13.8852 13.3295 14.0202 13.4365 14.1172C13.4843 14.1606 13.5301 14.2063 13.5735 14.2542L13.5765 14.2572C13.6597 14.3595 13.7799 14.4247 13.911 14.4388C14.0421 14.4528 14.1735 14.4145 14.2765 14.3322Z" fill="white"/>
</g>
<defs>
<filter id="filter0_d_36_293" x="0.714478" y="0.9422" width="20" height="20" filterUnits="userSpaceOnUse" color-interpolation-filters="sRGB">
<feFlood flood-opacity="0" result="BackgroundImageFix"/>
<feColorMatrix in="SourceAlpha" type="matrix" values="0 0 0 0 0 0 0 0 0 0 0 0 0 0 0 0 0 0 127 0" result="hardAlpha"/>
<feOffset/>
<feGaussianBlur stdDeviation="1"/>
<feComposite in2="hardAlpha" operator="out"/>
<feColorMatrix type="matrix" values="0 0 0 0 0 0 0 0 0 0 0 0 0 0 0 0 0 0 0.25 0"/>
<feBlend mode="normal" in2="BackgroundImageFix" result="effect1_dropShadow_36_293"/>
<feBlend mode="normal" in="SourceGraphic" in2="effect1_dropShadow_36_293" result="shape"/>
</filter>
</defs>
</svg>
