<svg width="51" height="51" viewBox="0 0 51 51" fill="none" xmlns="http://www.w3.org/2000/svg">
<path d="M25.2979 0.787598C31.9283 0.787598 38.2871 3.42152 42.9755 8.10993C47.6639 12.7983 50.2979 19.1572 50.2979 25.7876C50.2979 32.418 47.6639 38.7769 42.9755 43.4653C38.2871 48.1537 31.9283 50.7876 25.2979 50.7876C18.6674 50.7876 12.3086 48.1537 7.62018 43.4653C2.93177 38.7769 0.297852 32.418 0.297852 25.7876C0.297852 19.1572 2.93177 12.7983 7.62018 8.10993C12.3086 3.42152 18.6674 0.787598 25.2979 0.787598ZM29.0476 16.1365C30.9046 16.1365 32.4116 14.8473 32.4116 12.9367C32.4116 11.0262 30.901 9.73696 29.0476 9.73696C27.1906 9.73696 25.6907 11.0262 25.6907 12.9367C25.6907 14.8473 27.1906 16.1365 29.0476 16.1365ZM29.7011 36.2315C29.7011 35.8494 29.8332 34.8566 29.7582 34.2923L26.8227 37.6707C26.2156 38.3099 25.455 38.7527 25.0979 38.6349C24.9358 38.5753 24.8004 38.4598 24.716 38.3092C24.6315 38.1586 24.6036 37.9829 24.6372 37.8135L29.5297 22.3575C29.9297 20.3969 28.8297 18.6078 26.4978 18.3792C24.0372 18.3792 20.4161 20.8754 18.2126 24.0431C18.2126 24.4216 18.1412 25.3644 18.2162 25.9287L21.1481 22.5468C21.7552 21.9147 22.4623 21.4683 22.8195 21.5897C22.9954 21.6528 23.1396 21.7824 23.221 21.9507C23.3025 22.119 23.3147 22.3124 23.2551 22.4896L18.4055 37.8707C17.8448 39.6705 18.9055 41.4347 21.4767 41.8347C25.2621 41.8347 27.4977 39.3991 29.7047 36.2315H29.7011Z" fill="#EEAB26"/>
</svg>
