<svg width="25" height="25" viewBox="0 0 25 25" fill="none" xmlns="http://www.w3.org/2000/svg">
<path d="M11.0571 17.8035H7.05713C5.6738 17.8035 4.49463 17.316 3.51963 16.341C2.54463 15.366 2.05713 14.1868 2.05713 12.8035C2.05713 11.4201 2.54463 10.241 3.51963 9.26597C4.49463 8.29097 5.6738 7.80347 7.05713 7.80347H11.0571V9.80347H7.05713C6.2238 9.80347 5.51546 10.0951 4.93213 10.6785C4.3488 11.2618 4.05713 11.9701 4.05713 12.8035C4.05713 13.6368 4.3488 14.3451 4.93213 14.9285C5.51546 15.5118 6.2238 15.8035 7.05713 15.8035H11.0571V17.8035ZM8.05713 13.8035V11.8035H16.0571V13.8035H8.05713ZM13.0571 17.8035V15.8035H17.0571C17.8905 15.8035 18.5988 15.5118 19.1821 14.9285C19.7655 14.3451 20.0571 13.6368 20.0571 12.8035C20.0571 11.9701 19.7655 11.2618 19.1821 10.6785C18.5988 10.0951 17.8905 9.80347 17.0571 9.80347H13.0571V7.80347H17.0571C18.4405 7.80347 19.6196 8.29097 20.5946 9.26597C21.5696 10.241 22.0571 11.4201 22.0571 12.8035C22.0571 14.1868 21.5696 15.366 20.5946 16.341C19.6196 17.316 18.4405 17.8035 17.0571 17.8035H13.0571Z" fill="#9D9D9D"/>
</svg>
