<svg width="25" height="25" viewBox="0 0 40 40" fill="none" xmlns="http://www.w3.org/2000/svg">
<path d="M36.6045 9.22595H15.0186C13.1921 9.22595 11.6977 10.7177 11.6977 12.5411V27.459C11.6977 28.3382 12.0476 29.1814 12.6704 29.8031C13.2932 30.4248 14.1379 30.7741 15.0186 30.7741H36.6045C38.4477 30.7741 39.9255 29.2989 39.9255 27.459V12.5411C39.9255 11.6618 39.5756 10.8186 38.9528 10.1969C38.33 9.57522 37.4853 9.22595 36.6045 9.22595ZM36.6045 27.459H15.0186V15.3092L25.8116 20.8288L36.6045 15.3092V27.459ZM25.8116 18.0275L15.0186 12.5411H36.6045L25.8116 18.0275ZM8.37682 27.459C8.37682 27.7408 8.42663 28.006 8.45984 28.2878H1.735C0.818427 28.2878 0.074543 27.5419 0.074543 26.6302C0.074543 25.7186 0.818427 24.9727 1.735 24.9727H8.37682V27.459ZM5.05591 11.7123H8.45984C8.42663 11.9941 8.37682 12.2593 8.37682 12.5411V15.0274H5.05591C4.14266 15.0274 3.39545 14.2815 3.39545 13.3698C3.39545 12.4582 4.14266 11.7123 5.05591 11.7123ZM1.735 20C1.735 19.0884 2.4822 18.3425 3.39545 18.3425H8.37682V21.6576H3.39545C2.4822 21.6576 1.735 20.9117 1.735 20Z" fill="#2C2C2C"/>
</svg>
