<svg width="23" height="23" viewBox="0 0 23 23" fill="none" xmlns="http://www.w3.org/2000/svg">
<path d="M2.95752 15.4377H20.9575C21.2409 15.4377 21.4785 15.5337 21.6705 15.7257C21.8625 15.9177 21.9582 16.155 21.9575 16.4377C21.9569 16.7203 21.8609 16.958 21.6695 17.1507C21.4782 17.3433 21.2409 17.439 20.9575 17.4377H2.95752C2.67419 17.4377 2.43686 17.3417 2.24552 17.1497C2.05419 16.9577 1.95819 16.7203 1.95752 16.4377C1.95686 16.155 2.05286 15.9177 2.24552 15.7257C2.43819 15.5337 2.67552 15.4377 2.95752 15.4377ZM3.95752 9.88767L3.48252 10.7377C3.38252 10.921 3.23252 11.0377 3.03252 11.0877C2.83252 11.1377 2.64086 11.1127 2.45752 11.0127C2.27419 10.9127 2.15752 10.7627 2.10752 10.5627C2.05752 10.3627 2.08252 10.171 2.18252 9.98767L2.65752 9.13767H1.70752C1.49086 9.13767 1.31186 9.067 1.17052 8.92567C1.02919 8.78433 0.958191 8.605 0.957524 8.38767C0.956858 8.17033 1.02786 7.99133 1.17052 7.85067C1.31319 7.71 1.49219 7.639 1.70752 7.63767H2.65752L2.18252 6.83767C2.08252 6.65433 2.05752 6.46267 2.10752 6.26267C2.15752 6.06267 2.27419 5.91267 2.45752 5.81267C2.64086 5.71267 2.83252 5.68767 3.03252 5.73767C3.23252 5.78767 3.38252 5.90433 3.48252 6.08767L3.95752 6.88767L4.43252 6.08767C4.53252 5.90433 4.68252 5.78767 4.88252 5.73767C5.08252 5.68767 5.27419 5.71267 5.45752 5.81267C5.64086 5.91267 5.75752 6.06267 5.80752 6.26267C5.85752 6.46267 5.83252 6.65433 5.73252 6.83767L5.25752 7.63767H6.20752C6.42419 7.63767 6.60352 7.70867 6.74552 7.85067C6.88752 7.99267 6.95819 8.17167 6.95752 8.38767C6.95686 8.60367 6.88586 8.783 6.74452 8.92567C6.60319 9.06833 6.42419 9.139 6.20752 9.13767H5.25752L5.73252 9.98767C5.83252 10.171 5.85752 10.3627 5.80752 10.5627C5.75752 10.7627 5.64086 10.9127 5.45752 11.0127C5.27419 11.1127 5.08252 11.1377 4.88252 11.0877C4.68252 11.0377 4.53252 10.921 4.43252 10.7377L3.95752 9.88767ZM11.9575 9.88767L11.4825 10.7377C11.3825 10.921 11.2325 11.0377 11.0325 11.0877C10.8325 11.1377 10.6409 11.1127 10.4575 11.0127C10.2742 10.9127 10.1575 10.7627 10.1075 10.5627C10.0575 10.3627 10.0825 10.171 10.1825 9.98767L10.6575 9.13767H9.70752C9.49086 9.13767 9.31186 9.067 9.17052 8.92567C9.02919 8.78433 8.95819 8.605 8.95752 8.38767C8.95686 8.17033 9.02786 7.99133 9.17052 7.85067C9.31319 7.71 9.49219 7.639 9.70752 7.63767H10.6575L10.1825 6.83767C10.0825 6.65433 10.0575 6.46267 10.1075 6.26267C10.1575 6.06267 10.2742 5.91267 10.4575 5.81267C10.6409 5.71267 10.8325 5.68767 11.0325 5.73767C11.2325 5.78767 11.3825 5.90433 11.4825 6.08767L11.9575 6.88767L12.4325 6.08767C12.5325 5.90433 12.6825 5.78767 12.8825 5.73767C13.0825 5.68767 13.2742 5.71267 13.4575 5.81267C13.6409 5.91267 13.7575 6.06267 13.8075 6.26267C13.8575 6.46267 13.8325 6.65433 13.7325 6.83767L13.2575 7.63767H14.2075C14.4242 7.63767 14.6032 7.70867 14.7445 7.85067C14.8859 7.99267 14.9569 8.17167 14.9575 8.38767C14.9582 8.60367 14.8872 8.783 14.7445 8.92567C14.6019 9.06833 14.4229 9.139 14.2075 9.13767H13.2575L13.7325 9.98767C13.8325 10.171 13.8575 10.3627 13.8075 10.5627C13.7575 10.7627 13.6409 10.9127 13.4575 11.0127C13.2742 11.1127 13.0825 11.1377 12.8825 11.0877C12.6825 11.0377 12.5325 10.921 12.4325 10.7377L11.9575 9.88767ZM19.9575 9.88767L19.4825 10.7377C19.3825 10.921 19.2325 11.0377 19.0325 11.0877C18.8325 11.1377 18.6409 11.1127 18.4575 11.0127C18.2742 10.9127 18.1575 10.7627 18.1075 10.5627C18.0575 10.3627 18.0825 10.171 18.1825 9.98767L18.6575 9.13767H17.7075C17.4909 9.13767 17.3119 9.067 17.1705 8.92567C17.0292 8.78433 16.9582 8.605 16.9575 8.38767C16.9569 8.17033 17.0279 7.99133 17.1705 7.85067C17.3132 7.71 17.4922 7.639 17.7075 7.63767H18.6575L18.1825 6.83767C18.0825 6.65433 18.0575 6.46267 18.1075 6.26267C18.1575 6.06267 18.2742 5.91267 18.4575 5.81267C18.6409 5.71267 18.8325 5.68767 19.0325 5.73767C19.2325 5.78767 19.3825 5.90433 19.4825 6.08767L19.9575 6.88767L20.4325 6.08767C20.5325 5.90433 20.6825 5.78767 20.8825 5.73767C21.0825 5.68767 21.2742 5.71267 21.4575 5.81267C21.6409 5.91267 21.7575 6.06267 21.8075 6.26267C21.8575 6.46267 21.8325 6.65433 21.7325 6.83767L21.2575 7.63767H22.2075C22.4242 7.63767 22.6035 7.70867 22.7455 7.85067C22.8875 7.99267 22.9582 8.17167 22.9575 8.38767C22.9569 8.60367 22.8859 8.783 22.7445 8.92567C22.6032 9.06833 22.4242 9.139 22.2075 9.13767H21.2575L21.7325 9.98767C21.8325 10.171 21.8575 10.3627 21.8075 10.5627C21.7575 10.7627 21.6409 10.9127 21.4575 11.0127C21.2742 11.1127 21.0825 11.1377 20.8825 11.0877C20.6825 11.0377 20.5325 10.921 20.4325 10.7377L19.9575 9.88767Z" fill="#9D9D9D"/>
</svg>
