<svg width="33" height="45" viewBox="0 0 33 45" fill="none" xmlns="http://www.w3.org/2000/svg">
<path d="M16.1245 6.15771V0.157715L8.12451 8.15771L16.1245 16.1577V10.1577C22.7445 10.1577 28.1245 15.5377 28.1245 22.1577C28.1245 24.1777 27.6245 26.0977 26.7245 27.7577L29.6445 30.6777C31.265 28.1315 32.1254 25.1758 32.1245 22.1577C32.1245 13.3177 24.9645 6.15771 16.1245 6.15771ZM16.1245 34.1577C9.50451 34.1577 4.12451 28.7777 4.12451 22.1577C4.12451 20.1377 4.62451 18.2177 5.52451 16.5577L2.60451 13.6377C0.984017 16.1839 0.123672 19.1396 0.124512 22.1577C0.124512 30.9977 7.28451 38.1577 16.1245 38.1577V44.1577L24.1245 36.1577L16.1245 28.1577V34.1577Z" fill="#fff"/>
</svg>
