<svg width="31" height="31" viewBox="0 0 31 31" fill="none" xmlns="http://www.w3.org/2000/svg">
<circle cx="15.5278" cy="15.1953" r="15" fill="#E7E7E7" fill-opacity="0.933333"/>
<path d="M12.0645 22.9139C11.0463 22.9139 10.0927 22.4769 9.40453 21.78C8.06982 20.4287 7.69815 18.0704 9.5691 16.1766L17.245 8.40458C18.023 7.61714 19.0128 7.3124 19.9601 7.56989C20.8917 7.82187 21.6539 8.59435 21.9035 9.53691C22.1571 10.4976 21.8571 11.5 21.0799 12.2874L13.7386 19.7208C13.3197 20.1453 12.8456 20.3965 12.37 20.4468C11.8983 20.4972 11.4487 20.3445 11.1337 20.0256C10.5636 19.446 10.4817 18.3586 11.4314 17.3979L16.5875 12.1772C16.7993 11.963 17.1427 11.963 17.3545 12.1772C17.5663 12.3914 17.5663 12.7394 17.3545 12.9536L12.1976 18.1751C11.7519 18.6255 11.7109 19.0562 11.9007 19.2492C11.9842 19.3326 12.1102 19.3712 12.2558 19.3547C12.4787 19.3318 12.733 19.1846 12.9716 18.9444L20.3129 11.5118C20.8169 11.0015 21.0098 10.4015 20.8562 9.82275C20.7796 9.53966 20.6311 9.28119 20.4251 9.07243C20.2191 8.86368 19.9626 8.71174 19.6806 8.63136C19.1089 8.47623 18.5152 8.6723 18.0112 9.18256L10.3353 16.9546C8.90529 18.4027 9.24783 20.0697 10.1707 21.0044C11.0944 21.939 12.7393 22.2871 14.1701 20.8374L21.846 13.0654C21.8961 13.0145 21.9558 12.9741 22.0216 12.9465C22.0875 12.9189 22.1581 12.9047 22.2295 12.9047C22.3009 12.9047 22.3716 12.9189 22.4374 12.9465C22.5033 12.9741 22.5629 13.0145 22.613 13.0654C22.7149 13.1691 22.772 13.3086 22.772 13.454C22.772 13.5994 22.7149 13.7389 22.613 13.8426L14.9371 21.6146C14.0323 22.5296 13.0189 22.9139 12.0645 22.9139Z" fill="#A0A0A0"/>
</svg>
