<svg width="46" height="45" viewBox="0 0 46 45" fill="none" xmlns="http://www.w3.org/2000/svg">
<path d="M13.8187 14.1529H10.6286V7.70895C10.6286 7.24638 10.82 6.79977 11.139 6.48076L12.2236 5.41208L13.3083 6.48076C13.6273 6.79977 13.8187 7.24638 13.8187 7.70895V14.1529Z" fill="url(#paint0_linear_1_5)"/>
<path d="M13.8187 14.1529H10.6286V7.70895C10.6286 7.24638 10.82 6.79977 11.139 6.48076L12.2236 5.41208L13.3083 6.48076C13.6273 6.79977 13.8187 7.24638 13.8187 7.70895V14.1529Z" fill="url(#paint1_radial_1_5)"/>
<path d="M14.2653 2.7547L12.8298 0.346173C12.7658 0.240519 12.6757 0.153147 12.5682 0.0925042C12.4606 0.0318616 12.3392 0 12.2157 0C12.0922 0 11.9708 0.0318616 11.8632 0.0925042C11.7556 0.153147 11.6655 0.240519 11.6016 0.346173L10.182 2.7547C9.91084 3.20131 9.78323 3.72768 9.84704 4.28594C9.97464 5.38653 10.8519 6.2638 11.9525 6.37546C13.388 6.53496 14.6162 5.41843 14.6162 3.99883C14.6013 3.5619 14.4809 3.13506 14.2653 2.7547Z" fill="url(#paint2_radial_1_5)"/>
<path d="M13.1966 3.05777L12.2236 1.81363L11.2506 3.05777C11.0967 3.21727 10.9843 3.41211 10.9233 3.62518C10.8623 3.83825 10.8545 4.06304 10.9006 4.27983C10.9467 4.49661 11.0454 4.69876 11.1879 4.86853C11.3303 5.03831 11.5123 5.17052 11.7178 5.25356C11.9233 5.3366 12.146 5.36793 12.3664 5.34481C12.5869 5.32169 12.7982 5.24482 12.982 5.12095C13.1658 4.99707 13.3164 4.82998 13.4205 4.63434C13.5247 4.4387 13.5792 4.22048 13.5794 3.99884C13.5794 3.63198 13.4358 3.31297 13.1966 3.05777Z" fill="url(#paint3_radial_1_5)"/>
<path d="M24.1865 14.1529H20.9964V7.70895C20.9964 7.24638 21.1878 6.79977 21.5068 6.48076L22.5914 5.41208L23.6761 6.48076C23.9951 6.79977 24.1865 7.24638 24.1865 7.70895V14.1529Z" fill="url(#paint4_linear_1_5)"/>
<path d="M24.1865 14.1529H20.9964V7.70895C20.9964 7.24638 21.1878 6.79977 21.5068 6.48076L22.5914 5.41208L23.6761 6.48076C23.9951 6.79977 24.1865 7.24638 24.1865 7.70895V14.1529Z" fill="url(#paint5_radial_1_5)"/>
<path d="M24.6331 2.7547L23.2135 0.346173C23.1496 0.240519 23.0595 0.153147 22.9519 0.0925042C22.8444 0.0318616 22.7229 0 22.5995 0C22.476 0 22.3546 0.0318616 22.247 0.0925042C22.1394 0.153147 22.0493 0.240519 21.9854 0.346173L20.5658 2.7547C20.2946 3.18536 20.167 3.72768 20.2308 4.28594C20.3584 5.37058 21.2357 6.24785 22.3363 6.37546C23.7718 6.53496 25 5.41843 25 3.99883C24.9841 3.55222 24.8564 3.12156 24.6331 2.7547Z" fill="url(#paint6_radial_1_5)"/>
<path d="M23.5644 3.09924L22.5915 1.8551L21.6185 3.11519C21.4637 3.27467 21.3505 3.46976 21.2889 3.68326C21.2272 3.89677 21.219 4.12216 21.2649 4.33959C21.3109 4.55703 21.4096 4.75983 21.5523 4.93017C21.695 5.1005 21.8774 5.23314 22.0835 5.3164C22.2895 5.39966 22.5129 5.431 22.7339 5.40766C22.9549 5.38432 23.1668 5.307 23.3509 5.18253C23.535 5.05806 23.6856 4.89024 23.7896 4.69384C23.8936 4.49745 23.9478 4.2785 23.9473 4.05627C23.9473 3.67346 23.8037 3.35445 23.5644 3.09924Z" fill="url(#paint7_radial_1_5)"/>
<path d="M34.5543 14.2805H31.3642V7.83654C31.3642 7.37398 31.5556 6.92736 31.8746 6.60836L32.9592 5.53967L34.0439 6.60836C34.3788 6.92736 34.5543 7.37398 34.5543 7.83654V14.2805Z" fill="url(#paint8_linear_1_5)"/>
<path d="M34.5543 14.2805H31.3642V7.83654C31.3642 7.37398 31.5556 6.92736 31.8746 6.60836L32.9592 5.53967L34.0439 6.60836C34.3788 6.92736 34.5543 7.37398 34.5543 7.83654V14.2805Z" fill="url(#paint9_radial_1_5)"/>
<path d="M35.001 2.7547L33.5814 0.346173C33.5174 0.240519 33.4273 0.153147 33.3197 0.0925042C33.2122 0.0318616 33.0908 0 32.9673 0C32.8438 0 32.7224 0.0318616 32.6148 0.0925042C32.5072 0.153147 32.4171 0.240519 32.3532 0.346173L30.9336 2.7547C30.6624 3.18536 30.5348 3.72768 30.5986 4.28594C30.7262 5.38653 31.6035 6.2638 32.6881 6.37546C34.1396 6.53496 35.3519 5.41843 35.3519 3.99883C35.3519 3.55222 35.2243 3.12156 35.001 2.7547Z" fill="url(#paint10_radial_1_5)"/>
<path d="M33.9323 3.05777L32.9593 1.81363L31.9863 3.07372C31.8315 3.2332 31.7184 3.42828 31.6567 3.64179C31.5951 3.8553 31.5868 4.08069 31.6328 4.29812C31.6787 4.51555 31.7774 4.71836 31.9201 4.88869C32.0629 5.05903 32.2453 5.19166 32.4513 5.27493C32.6574 5.35819 32.8807 5.38953 33.1017 5.36619C33.3227 5.34284 33.5346 5.26553 33.7187 5.14106C33.9028 5.01658 34.0535 4.84876 34.1575 4.65237C34.2615 4.45597 34.3156 4.23703 34.3151 4.0148C34.3151 3.63198 34.1715 3.31297 33.9323 3.05777Z" fill="url(#paint11_radial_1_5)"/>
<path d="M40.1114 44.5833H4.92149C2.90216 44.5833 1.8558 43.489 1.8558 41.4442V20.6575H43.3271V41.4442C43.3271 43.438 42.4306 44.5833 40.1114 44.5833Z" fill="url(#paint12_linear_1_5)"/>
<path d="M40.1114 44.5833H4.92149C2.90216 44.5833 1.8558 43.489 1.8558 41.4442V20.6575H43.3271V41.4442C43.3271 43.438 42.4306 44.5833 40.1114 44.5833Z" fill="url(#paint13_radial_1_5)"/>
<path d="M40.1114 44.5833H4.92149C2.90216 44.5833 1.8558 43.489 1.8558 41.4442V20.6575H43.3271V41.4442C43.3271 43.438 42.4306 44.5833 40.1114 44.5833Z" fill="url(#paint14_linear_1_5)"/>
<path d="M43.3271 31.8037H1.8558V34.9938H43.3271V31.8037Z" fill="url(#paint15_linear_1_5)"/>
<g filter="url(#filter0_f_1_5)">
<path d="M3.01862 27.1717C4.13834 27.1717 4.67427 26.7697 5.42714 26.1317C5.9854 25.658 6.7606 24.9498 7.38586 25.4458C9.68751 27.2482 13.2158 27.9341 15.519 26.1317C16.3931 25.4458 16.5462 25.2927 17.3852 25.9498C18.54 26.8542 20.1399 27.4492 21.5275 27.446C24.0461 27.446 25.1531 26.8351 26.2999 25.9371C27.1214 25.2943 27.5823 25.2975 28.4006 25.9371C30.8713 27.8719 34.4698 27.4556 36.3647 25.9498C37.561 24.9992 39.5037 27.0903 40.8308 27.0903C41.7496 27.0903 43.1133 26.8479 43.1133 25.1188C33.9976 17.5519 10.2234 18.2155 2.52256 24.4489C1.32308 25.4203 1.89889 27.1717 3.01862 27.1717Z" fill="url(#paint16_linear_1_5)"/>
</g>
<path d="M0.260757 16.3493V24.7392C0.260757 26.28 1.88133 26.7793 2.74903 26.7793C3.87514 26.7793 4.39991 26.2082 5.15756 25.5702C5.71901 25.0965 7.06045 25.0726 7.6873 25.5702C8.81087 26.4459 10.1946 26.9214 11.6191 26.9214C13.0436 26.9214 14.4273 26.4459 15.5509 25.5702C16.4298 24.8844 17.8254 24.9131 18.6676 25.5702C19.8288 26.4746 21.2229 27.0823 22.617 27.0776C23.9983 27.0744 25.3796 26.4666 26.5312 25.5702C27.3574 24.9258 28.7738 24.9163 29.5937 25.5575C32.0772 27.4923 35.6166 27.076 37.5211 25.5702C38.7206 24.6196 40.885 26.792 42.2185 26.792C43.1404 26.792 44.9381 26.4682 44.9381 24.7408V16.3493C44.9381 11.9868 41.8309 11.1159 38.5419 11.1159H7.26302C2.20672 11.1159 0.260757 12.8848 0.260757 16.3477" fill="#EDC8AE"/>
<path d="M0.260757 16.3493V24.7392C0.260757 26.28 1.88133 26.7793 2.74903 26.7793C3.87514 26.7793 4.39991 26.2082 5.15756 25.5702C5.71901 25.0965 7.06045 25.0726 7.6873 25.5702C8.81087 26.4459 10.1946 26.9214 11.6191 26.9214C13.0436 26.9214 14.4273 26.4459 15.5509 25.5702C16.4298 24.8844 17.8254 24.9131 18.6676 25.5702C19.8288 26.4746 21.2229 27.0823 22.617 27.0776C23.9983 27.0744 25.3796 26.4666 26.5312 25.5702C27.3574 24.9258 28.7738 24.9163 29.5937 25.5575C32.0772 27.4923 35.6166 27.076 37.5211 25.5702C38.7206 24.6196 40.885 26.792 42.2185 26.792C43.1404 26.792 44.9381 26.4682 44.9381 24.7408V16.3493C44.9381 11.9868 41.8309 11.1159 38.5419 11.1159H7.26302C2.20672 11.1159 0.260757 12.8848 0.260757 16.3477" fill="url(#paint17_radial_1_5)"/>
<path d="M0.260757 16.3493V24.7392C0.260757 26.28 1.88133 26.7793 2.74903 26.7793C3.87514 26.7793 4.39991 26.2082 5.15756 25.5702C5.71901 25.0965 7.06045 25.0726 7.6873 25.5702C8.81087 26.4459 10.1946 26.9214 11.6191 26.9214C13.0436 26.9214 14.4273 26.4459 15.5509 25.5702C16.4298 24.8844 17.8254 24.9131 18.6676 25.5702C19.8288 26.4746 21.2229 27.0823 22.617 27.0776C23.9983 27.0744 25.3796 26.4666 26.5312 25.5702C27.3574 24.9258 28.7738 24.9163 29.5937 25.5575C32.0772 27.4923 35.6166 27.076 37.5211 25.5702C38.7206 24.6196 40.885 26.792 42.2185 26.792C43.1404 26.792 44.9381 26.4682 44.9381 24.7408V16.3493C44.9381 11.9868 41.8309 11.1159 38.5419 11.1159H7.26302C2.20672 11.1159 0.260757 12.8848 0.260757 16.3477" fill="url(#paint18_radial_1_5)"/>
<path d="M0.260757 16.3493V24.7392C0.260757 26.28 1.88133 26.7793 2.74903 26.7793C3.87514 26.7793 4.39991 26.2082 5.15756 25.5702C5.71901 25.0965 7.06045 25.0726 7.6873 25.5702C8.81087 26.4459 10.1946 26.9214 11.6191 26.9214C13.0436 26.9214 14.4273 26.4459 15.5509 25.5702C16.4298 24.8844 17.8254 24.9131 18.6676 25.5702C19.8288 26.4746 21.2229 27.0823 22.617 27.0776C23.9983 27.0744 25.3796 26.4666 26.5312 25.5702C27.3574 24.9258 28.7738 24.9163 29.5937 25.5575C32.0772 27.4923 35.6166 27.076 37.5211 25.5702C38.7206 24.6196 40.885 26.792 42.2185 26.792C43.1404 26.792 44.9381 26.4682 44.9381 24.7408V16.3493C44.9381 11.9868 41.8309 11.1159 38.5419 11.1159H7.26302C2.20672 11.1159 0.260757 12.8848 0.260757 16.3477" fill="url(#paint19_linear_1_5)"/>
<path d="M0.260757 16.3493V24.7392C0.260757 26.28 1.88133 26.7793 2.74903 26.7793C3.87514 26.7793 4.39991 26.2082 5.15756 25.5702C5.71901 25.0965 7.06045 25.0726 7.6873 25.5702C8.81087 26.4459 10.1946 26.9214 11.6191 26.9214C13.0436 26.9214 14.4273 26.4459 15.5509 25.5702C16.4298 24.8844 17.8254 24.9131 18.6676 25.5702C19.8288 26.4746 21.2229 27.0823 22.617 27.0776C23.9983 27.0744 25.3796 26.4666 26.5312 25.5702C27.3574 24.9258 28.7738 24.9163 29.5937 25.5575C32.0772 27.4923 35.6166 27.076 37.5211 25.5702C38.7206 24.6196 40.885 26.792 42.2185 26.792C43.1404 26.792 44.9381 26.4682 44.9381 24.7408V16.3493C44.9381 11.9868 41.8309 11.1159 38.5419 11.1159H7.26302C2.20672 11.1159 0.260757 12.8848 0.260757 16.3477" fill="url(#paint20_linear_1_5)"/>
<path d="M0.260757 16.3493V24.7392C0.260757 26.28 1.88133 26.7793 2.74903 26.7793C3.87514 26.7793 4.39991 26.2082 5.15756 25.5702C5.71901 25.0965 7.06045 25.0726 7.6873 25.5702C8.81087 26.4459 10.1946 26.9214 11.6191 26.9214C13.0436 26.9214 14.4273 26.4459 15.5509 25.5702C16.4298 24.8844 17.8254 24.9131 18.6676 25.5702C19.8288 26.4746 21.2229 27.0823 22.617 27.0776C23.9983 27.0744 25.3796 26.4666 26.5312 25.5702C27.3574 24.9258 28.7738 24.9163 29.5937 25.5575C32.0772 27.4923 35.6166 27.076 37.5211 25.5702C38.7206 24.6196 40.885 26.792 42.2185 26.792C43.1404 26.792 44.9381 26.4682 44.9381 24.7408V16.3493C44.9381 11.9868 41.8309 11.1159 38.5419 11.1159H7.26302C2.20672 11.1159 0.260757 12.8848 0.260757 16.3477" fill="url(#paint21_linear_1_5)"/>
<path d="M0.260757 16.3493V24.7392C0.260757 26.28 1.88133 26.7793 2.74903 26.7793C3.87514 26.7793 4.39991 26.2082 5.15756 25.5702C5.71901 25.0965 7.06045 25.0726 7.6873 25.5702C8.81087 26.4459 10.1946 26.9214 11.6191 26.9214C13.0436 26.9214 14.4273 26.4459 15.5509 25.5702C16.4298 24.8844 17.8254 24.9131 18.6676 25.5702C19.8288 26.4746 21.2229 27.0823 22.617 27.0776C23.9983 27.0744 25.3796 26.4666 26.5312 25.5702C27.3574 24.9258 28.7738 24.9163 29.5937 25.5575C32.0772 27.4923 35.6166 27.076 37.5211 25.5702C38.7206 24.6196 40.885 26.792 42.2185 26.792C43.1404 26.792 44.9381 26.4682 44.9381 24.7408V16.3493C44.9381 11.9868 41.8309 11.1159 38.5419 11.1159H7.26302C2.20672 11.1159 0.260757 12.8848 0.260757 16.3477" fill="url(#paint22_radial_1_5)"/>
<path d="M0.260757 16.3493V24.7392C0.260757 26.28 1.88133 26.7793 2.74903 26.7793C3.87514 26.7793 4.39991 26.2082 5.15756 25.5702C5.71901 25.0965 7.06045 25.0726 7.6873 25.5702C8.81087 26.4459 10.1946 26.9214 11.6191 26.9214C13.0436 26.9214 14.4273 26.4459 15.5509 25.5702C16.4298 24.8844 17.8254 24.9131 18.6676 25.5702C19.8288 26.4746 21.2229 27.0823 22.617 27.0776C23.9983 27.0744 25.3796 26.4666 26.5312 25.5702C27.3574 24.9258 28.7738 24.9163 29.5937 25.5575C32.0772 27.4923 35.6166 27.076 37.5211 25.5702C38.7206 24.6196 40.885 26.792 42.2185 26.792C43.1404 26.792 44.9381 26.4682 44.9381 24.7408V16.3493C44.9381 11.9868 41.8309 11.1159 38.5419 11.1159H7.26302C2.20672 11.1159 0.260757 12.8848 0.260757 16.3477" fill="url(#paint23_radial_1_5)"/>
<path d="M0.260757 16.3493V24.7392C0.260757 26.28 1.88133 26.7793 2.74903 26.7793C3.87514 26.7793 4.39991 26.2082 5.15756 25.5702C5.71901 25.0965 7.06045 25.0726 7.6873 25.5702C8.81087 26.4459 10.1946 26.9214 11.6191 26.9214C13.0436 26.9214 14.4273 26.4459 15.5509 25.5702C16.4298 24.8844 17.8254 24.9131 18.6676 25.5702C19.8288 26.4746 21.2229 27.0823 22.617 27.0776C23.9983 27.0744 25.3796 26.4666 26.5312 25.5702C27.3574 24.9258 28.7738 24.9163 29.5937 25.5575C32.0772 27.4923 35.6166 27.076 37.5211 25.5702C38.7206 24.6196 40.885 26.792 42.2185 26.792C43.1404 26.792 44.9381 26.4682 44.9381 24.7408V16.3493C44.9381 11.9868 41.8309 11.1159 38.5419 11.1159H7.26302C2.20672 11.1159 0.260757 12.8848 0.260757 16.3477" fill="url(#paint24_linear_1_5)"/>
<g filter="url(#filter1_f_1_5)">
<path d="M0.908356 24.2687C0.908356 25.6676 1.96268 26.1206 2.80327 26.1206C3.8911 26.1206 4.31219 25.3789 5.04591 24.7967C5.58823 24.3692 7.35554 24.7951 7.96166 25.2465C8.96973 25.985 10.292 26.6182 11.5011 26.6916C12.9733 26.7809 14.8076 25.6979 16.0374 24.7983C16.886 24.1762 17.8988 24.2017 18.7139 24.7983C19.8368 25.6197 21.1942 26.8703 22.542 26.8671C23.8786 26.8639 25.689 25.8383 26.804 25.0216C27.6015 24.4378 29.2492 24.4298 30.0419 25.012C32.444 26.7698 35.6549 26.69 37.4956 25.3215C39.4479 23.87 41.4385 26.2689 42.7289 26.2689C43.6221 26.2689 44.5473 26.2434 44.5473 24.6739V23.4521C43.9507 21.8778 0.908356 21.6082 0.908356 24.2687Z" fill="#EDC8AE"/>
<path d="M0.908356 24.2687C0.908356 25.6676 1.96268 26.1206 2.80327 26.1206C3.8911 26.1206 4.31219 25.3789 5.04591 24.7967C5.58823 24.3692 7.35554 24.7951 7.96166 25.2465C8.96973 25.985 10.292 26.6182 11.5011 26.6916C12.9733 26.7809 14.8076 25.6979 16.0374 24.7983C16.886 24.1762 17.8988 24.2017 18.7139 24.7983C19.8368 25.6197 21.1942 26.8703 22.542 26.8671C23.8786 26.8639 25.689 25.8383 26.804 25.0216C27.6015 24.4378 29.2492 24.4298 30.0419 25.012C32.444 26.7698 35.6549 26.69 37.4956 25.3215C39.4479 23.87 41.4385 26.2689 42.7289 26.2689C43.6221 26.2689 44.5473 26.2434 44.5473 24.6739V23.4521C43.9507 21.8778 0.908356 21.6082 0.908356 24.2687Z" fill="url(#paint25_radial_1_5)"/>
<path d="M0.908356 24.2687C0.908356 25.6676 1.96268 26.1206 2.80327 26.1206C3.8911 26.1206 4.31219 25.3789 5.04591 24.7967C5.58823 24.3692 7.35554 24.7951 7.96166 25.2465C8.96973 25.985 10.292 26.6182 11.5011 26.6916C12.9733 26.7809 14.8076 25.6979 16.0374 24.7983C16.886 24.1762 17.8988 24.2017 18.7139 24.7983C19.8368 25.6197 21.1942 26.8703 22.542 26.8671C23.8786 26.8639 25.689 25.8383 26.804 25.0216C27.6015 24.4378 29.2492 24.4298 30.0419 25.012C32.444 26.7698 35.6549 26.69 37.4956 25.3215C39.4479 23.87 41.4385 26.2689 42.7289 26.2689C43.6221 26.2689 44.5473 26.2434 44.5473 24.6739V23.4521C43.9507 21.8778 0.908356 21.6082 0.908356 24.2687Z" fill="url(#paint26_radial_1_5)"/>
<path d="M0.908356 24.2687C0.908356 25.6676 1.96268 26.1206 2.80327 26.1206C3.8911 26.1206 4.31219 25.3789 5.04591 24.7967C5.58823 24.3692 7.35554 24.7951 7.96166 25.2465C8.96973 25.985 10.292 26.6182 11.5011 26.6916C12.9733 26.7809 14.8076 25.6979 16.0374 24.7983C16.886 24.1762 17.8988 24.2017 18.7139 24.7983C19.8368 25.6197 21.1942 26.8703 22.542 26.8671C23.8786 26.8639 25.689 25.8383 26.804 25.0216C27.6015 24.4378 29.2492 24.4298 30.0419 25.012C32.444 26.7698 35.6549 26.69 37.4956 25.3215C39.4479 23.87 41.4385 26.2689 42.7289 26.2689C43.6221 26.2689 44.5473 26.2434 44.5473 24.6739V23.4521C43.9507 21.8778 0.908356 21.6082 0.908356 24.2687Z" fill="url(#paint27_linear_1_5)"/>
<path d="M0.908356 24.2687C0.908356 25.6676 1.96268 26.1206 2.80327 26.1206C3.8911 26.1206 4.31219 25.3789 5.04591 24.7967C5.58823 24.3692 7.35554 24.7951 7.96166 25.2465C8.96973 25.985 10.292 26.6182 11.5011 26.6916C12.9733 26.7809 14.8076 25.6979 16.0374 24.7983C16.886 24.1762 17.8988 24.2017 18.7139 24.7983C19.8368 25.6197 21.1942 26.8703 22.542 26.8671C23.8786 26.8639 25.689 25.8383 26.804 25.0216C27.6015 24.4378 29.2492 24.4298 30.0419 25.012C32.444 26.7698 35.6549 26.69 37.4956 25.3215C39.4479 23.87 41.4385 26.2689 42.7289 26.2689C43.6221 26.2689 44.5473 26.2434 44.5473 24.6739V23.4521C43.9507 21.8778 0.908356 21.6082 0.908356 24.2687Z" fill="url(#paint28_linear_1_5)"/>
<path d="M0.908356 24.2687C0.908356 25.6676 1.96268 26.1206 2.80327 26.1206C3.8911 26.1206 4.31219 25.3789 5.04591 24.7967C5.58823 24.3692 7.35554 24.7951 7.96166 25.2465C8.96973 25.985 10.292 26.6182 11.5011 26.6916C12.9733 26.7809 14.8076 25.6979 16.0374 24.7983C16.886 24.1762 17.8988 24.2017 18.7139 24.7983C19.8368 25.6197 21.1942 26.8703 22.542 26.8671C23.8786 26.8639 25.689 25.8383 26.804 25.0216C27.6015 24.4378 29.2492 24.4298 30.0419 25.012C32.444 26.7698 35.6549 26.69 37.4956 25.3215C39.4479 23.87 41.4385 26.2689 42.7289 26.2689C43.6221 26.2689 44.5473 26.2434 44.5473 24.6739V23.4521C43.9507 21.8778 0.908356 21.6082 0.908356 24.2687Z" fill="url(#paint29_linear_1_5)"/>
<path d="M0.908356 24.2687C0.908356 25.6676 1.96268 26.1206 2.80327 26.1206C3.8911 26.1206 4.31219 25.3789 5.04591 24.7967C5.58823 24.3692 7.35554 24.7951 7.96166 25.2465C8.96973 25.985 10.292 26.6182 11.5011 26.6916C12.9733 26.7809 14.8076 25.6979 16.0374 24.7983C16.886 24.1762 17.8988 24.2017 18.7139 24.7983C19.8368 25.6197 21.1942 26.8703 22.542 26.8671C23.8786 26.8639 25.689 25.8383 26.804 25.0216C27.6015 24.4378 29.2492 24.4298 30.0419 25.012C32.444 26.7698 35.6549 26.69 37.4956 25.3215C39.4479 23.87 41.4385 26.2689 42.7289 26.2689C43.6221 26.2689 44.5473 26.2434 44.5473 24.6739V23.4521C43.9507 21.8778 0.908356 21.6082 0.908356 24.2687Z" fill="url(#paint30_radial_1_5)"/>
<path d="M0.908356 24.2687C0.908356 25.6676 1.96268 26.1206 2.80327 26.1206C3.8911 26.1206 4.31219 25.3789 5.04591 24.7967C5.58823 24.3692 7.35554 24.7951 7.96166 25.2465C8.96973 25.985 10.292 26.6182 11.5011 26.6916C12.9733 26.7809 14.8076 25.6979 16.0374 24.7983C16.886 24.1762 17.8988 24.2017 18.7139 24.7983C19.8368 25.6197 21.1942 26.8703 22.542 26.8671C23.8786 26.8639 25.689 25.8383 26.804 25.0216C27.6015 24.4378 29.2492 24.4298 30.0419 25.012C32.444 26.7698 35.6549 26.69 37.4956 25.3215C39.4479 23.87 41.4385 26.2689 42.7289 26.2689C43.6221 26.2689 44.5473 26.2434 44.5473 24.6739V23.4521C43.9507 21.8778 0.908356 21.6082 0.908356 24.2687Z" fill="url(#paint31_radial_1_5)"/>
</g>
<g filter="url(#filter2_f_1_5)">
<path d="M31.058 22.16C30.739 22.4791 30.2445 22.4791 29.9255 22.16L28.7452 20.9797C28.4262 20.6607 28.4262 20.1662 28.7452 19.8472C29.0642 19.5282 29.5586 19.5282 29.8776 19.8472L31.058 21.0276C31.377 21.3466 31.377 21.857 31.058 22.16Z" fill="url(#paint32_linear_1_5)"/>
<path d="M31.058 22.16C30.739 22.4791 30.2445 22.4791 29.9255 22.16L28.7452 20.9797C28.4262 20.6607 28.4262 20.1662 28.7452 19.8472C29.0642 19.5282 29.5586 19.5282 29.8776 19.8472L31.058 21.0276C31.377 21.3466 31.377 21.857 31.058 22.16Z" fill="#E6A9AF"/>
</g>
<path d="M31.2939 22.0277C30.9749 22.3467 30.4805 22.3467 30.1615 22.0277L28.9811 20.8474C28.6621 20.5283 28.6621 20.0339 28.9811 19.7149C29.3001 19.3959 29.7946 19.3959 30.1136 19.7149L31.2939 20.8952C31.613 21.2142 31.613 21.7246 31.2939 22.0277Z" fill="url(#paint33_linear_1_5)"/>
<path d="M31.2939 22.0277C30.9749 22.3467 30.4805 22.3467 30.1615 22.0277L28.9811 20.8474C28.6621 20.5283 28.6621 20.0339 28.9811 19.7149C29.3001 19.3959 29.7946 19.3959 30.1136 19.7149L31.2939 20.8952C31.613 21.2142 31.613 21.7246 31.2939 22.0277Z" fill="url(#paint34_radial_1_5)"/>
<g filter="url(#filter3_f_1_5)">
<path d="M15.803 20.0227C15.484 19.7037 14.9895 19.7037 14.6705 20.0227L13.4902 21.203C13.1711 21.522 13.1711 22.0165 13.4902 22.3355C13.8092 22.6545 14.3036 22.6545 14.6226 22.3355L15.803 21.1552C16.106 20.8362 16.106 20.3417 15.803 20.0227Z" fill="url(#paint35_linear_1_5)"/>
<path d="M15.803 20.0227C15.484 19.7037 14.9895 19.7037 14.6705 20.0227L13.4902 21.203C13.1711 21.522 13.1711 22.0165 13.4902 22.3355C13.8092 22.6545 14.3036 22.6545 14.6226 22.3355L15.803 21.1552C16.106 20.8362 16.106 20.3417 15.803 20.0227Z" fill="url(#paint36_radial_1_5)"/>
<path d="M15.803 20.0227C15.484 19.7037 14.9895 19.7037 14.6705 20.0227L13.4902 21.203C13.1711 21.522 13.1711 22.0165 13.4902 22.3355C13.8092 22.6545 14.3036 22.6545 14.6226 22.3355L15.803 21.1552C16.106 20.8362 16.106 20.3417 15.803 20.0227Z" fill="#CCA39A"/>
</g>
<path d="M16.2017 19.7037C15.8827 19.3847 15.3883 19.3847 15.0693 19.7037L13.8889 20.884C13.5699 21.2031 13.5699 21.6975 13.8889 22.0165C14.2079 22.3355 14.7024 22.3355 15.0214 22.0165L16.2017 20.8362C16.5048 20.5172 16.5048 20.0227 16.2017 19.7037Z" fill="url(#paint37_linear_1_5)"/>
<path d="M16.2017 19.7037C15.8827 19.3847 15.3883 19.3847 15.0693 19.7037L13.8889 20.884C13.5699 21.2031 13.5699 21.6975 13.8889 22.0165C14.2079 22.3355 14.7024 22.3355 15.0214 22.0165L16.2017 20.8362C16.5048 20.5172 16.5048 20.0227 16.2017 19.7037Z" fill="url(#paint38_radial_1_5)"/>
<path d="M16.2017 19.7037C15.8827 19.3847 15.3883 19.3847 15.0693 19.7037L13.8889 20.884C13.5699 21.2031 13.5699 21.6975 13.8889 22.0165C14.2079 22.3355 14.7024 22.3355 15.0214 22.0165L16.2017 20.8362C16.5048 20.5172 16.5048 20.0227 16.2017 19.7037Z" fill="url(#paint39_radial_1_5)"/>
<g filter="url(#filter4_f_1_5)">
<path d="M8.79901 17.4005C8.71377 17.4628 8.6169 17.5074 8.51412 17.5316C8.41133 17.5559 8.30474 17.5592 8.20063 17.5415C8.09653 17.5238 7.99703 17.4854 7.90803 17.4286C7.81903 17.3718 7.74233 17.2977 7.68248 17.2107L6.71747 15.8485C6.65522 15.7632 6.61072 15.6662 6.58662 15.5633C6.56251 15.4605 6.55928 15.3539 6.57713 15.2498C6.59498 15.1456 6.63354 15.0462 6.69052 14.9572C6.74751 14.8683 6.82176 14.7917 6.90888 14.732C6.99422 14.6697 7.09118 14.6252 7.19402 14.6011C7.29686 14.577 7.4035 14.5738 7.50761 14.5916C7.61172 14.6095 7.7112 14.648 7.80014 14.705C7.88908 14.762 7.96569 14.8362 8.02541 14.9234L8.99042 16.2839C9.10832 16.4589 9.15421 16.6726 9.11856 16.8806C9.08291 17.0885 8.96846 17.2747 8.79901 17.4005Z" fill="url(#paint40_linear_1_5)"/>
<path d="M8.79901 17.4005C8.71377 17.4628 8.6169 17.5074 8.51412 17.5316C8.41133 17.5559 8.30474 17.5592 8.20063 17.5415C8.09653 17.5238 7.99703 17.4854 7.90803 17.4286C7.81903 17.3718 7.74233 17.2977 7.68248 17.2107L6.71747 15.8485C6.65522 15.7632 6.61072 15.6662 6.58662 15.5633C6.56251 15.4605 6.55928 15.3539 6.57713 15.2498C6.59498 15.1456 6.63354 15.0462 6.69052 14.9572C6.74751 14.8683 6.82176 14.7917 6.90888 14.732C6.99422 14.6697 7.09118 14.6252 7.19402 14.6011C7.29686 14.577 7.4035 14.5738 7.50761 14.5916C7.61172 14.6095 7.7112 14.648 7.80014 14.705C7.88908 14.762 7.96569 14.8362 8.02541 14.9234L8.99042 16.2839C9.10832 16.4589 9.15421 16.6726 9.11856 16.8806C9.08291 17.0885 8.96846 17.2747 8.79901 17.4005Z" fill="#CEA691"/>
</g>
<path d="M9.26798 17.2074C9.18264 17.2697 9.08568 17.3142 8.98283 17.3383C8.87999 17.3624 8.77336 17.3656 8.66924 17.3478C8.56513 17.3299 8.46566 17.2914 8.37672 17.2344C8.28777 17.1774 8.21117 17.1031 8.15144 17.016L7.18644 15.6554C7.12418 15.5701 7.07969 15.4732 7.05558 15.3703C7.03147 15.2675 7.02825 15.1608 7.0461 15.0567C7.06394 14.9526 7.1025 14.8531 7.15949 14.7642C7.21647 14.6752 7.29072 14.5986 7.37784 14.5389C7.46308 14.4766 7.55996 14.432 7.66274 14.4078C7.76552 14.3835 7.87212 14.3802 7.97622 14.3979C8.08033 14.4156 8.17983 14.454 8.26883 14.5108C8.35783 14.5676 8.43453 14.6417 8.49438 14.7287L9.45779 16.0909C9.57624 16.2656 9.62263 16.4792 9.58726 16.6873C9.55189 16.8954 9.4375 17.0817 9.26798 17.2074Z" fill="url(#paint41_linear_1_5)"/>
<path d="M9.26798 17.2074C9.18264 17.2697 9.08568 17.3142 8.98283 17.3383C8.87999 17.3624 8.77336 17.3656 8.66924 17.3478C8.56513 17.3299 8.46566 17.2914 8.37672 17.2344C8.28777 17.1774 8.21117 17.1031 8.15144 17.016L7.18644 15.6554C7.12418 15.5701 7.07969 15.4732 7.05558 15.3703C7.03147 15.2675 7.02825 15.1608 7.0461 15.0567C7.06394 14.9526 7.1025 14.8531 7.15949 14.7642C7.21647 14.6752 7.29072 14.5986 7.37784 14.5389C7.46308 14.4766 7.55996 14.432 7.66274 14.4078C7.76552 14.3835 7.87212 14.3802 7.97622 14.3979C8.08033 14.4156 8.17983 14.454 8.26883 14.5108C8.35783 14.5676 8.43453 14.6417 8.49438 14.7287L9.45779 16.0909C9.57624 16.2656 9.62263 16.4792 9.58726 16.6873C9.55189 16.8954 9.4375 17.0817 9.26798 17.2074Z" fill="url(#paint42_radial_1_5)"/>
<g filter="url(#filter5_f_1_5)">
<path d="M37.6296 14.7797C37.5454 14.7159 37.4493 14.6697 37.3469 14.6437C37.2446 14.6177 37.138 14.6125 37.0336 14.6284C36.9292 14.6443 36.8291 14.681 36.7391 14.7363C36.6491 14.7916 36.5712 14.8644 36.5098 14.9504L35.5209 16.295C35.4571 16.3792 35.4108 16.4753 35.3849 16.5777C35.3589 16.68 35.3537 16.7866 35.3696 16.891C35.3855 16.9954 35.4222 17.0955 35.4775 17.1855C35.5328 17.2755 35.6056 17.3534 35.6916 17.4148C35.7757 17.4786 35.8719 17.5248 35.9742 17.5508C36.0766 17.5768 36.1831 17.582 36.2875 17.5661C36.3919 17.5502 36.4921 17.5135 36.582 17.4582C36.672 17.4029 36.75 17.3301 36.8113 17.2441L37.8002 15.8995C37.864 15.8153 37.9103 15.7192 37.9363 15.6168C37.9623 15.5145 37.9675 15.4079 37.9516 15.3035C37.9357 15.1991 37.899 15.099 37.8437 15.009C37.7883 14.919 37.7155 14.8411 37.6296 14.7797Z" fill="url(#paint43_linear_1_5)"/>
<path d="M37.6296 14.7797C37.5454 14.7159 37.4493 14.6697 37.3469 14.6437C37.2446 14.6177 37.138 14.6125 37.0336 14.6284C36.9292 14.6443 36.8291 14.681 36.7391 14.7363C36.6491 14.7916 36.5712 14.8644 36.5098 14.9504L35.5209 16.295C35.4571 16.3792 35.4108 16.4753 35.3849 16.5777C35.3589 16.68 35.3537 16.7866 35.3696 16.891C35.3855 16.9954 35.4222 17.0955 35.4775 17.1855C35.5328 17.2755 35.6056 17.3534 35.6916 17.4148C35.7757 17.4786 35.8719 17.5248 35.9742 17.5508C36.0766 17.5768 36.1831 17.582 36.2875 17.5661C36.3919 17.5502 36.4921 17.5135 36.582 17.4582C36.672 17.4029 36.75 17.3301 36.8113 17.2441L37.8002 15.8995C37.864 15.8153 37.9103 15.7192 37.9363 15.6168C37.9623 15.5145 37.9675 15.4079 37.9516 15.3035C37.9357 15.1991 37.899 15.099 37.8437 15.009C37.7883 14.919 37.7155 14.8411 37.6296 14.7797Z" fill="#F8CCAD"/>
</g>
<path d="M37.813 14.5549C37.7289 14.491 37.6329 14.4446 37.5306 14.4185C37.4283 14.3924 37.3218 14.387 37.2174 14.4028C37.113 14.4186 37.0128 14.4551 36.9228 14.5103C36.8328 14.5654 36.7547 14.6381 36.6933 14.7239L35.7043 16.0686C35.6404 16.1526 35.5941 16.2486 35.568 16.351C35.5418 16.4533 35.5365 16.5598 35.5523 16.6642C35.568 16.7685 35.6046 16.8687 35.6597 16.9588C35.7149 17.0488 35.7875 17.1268 35.8734 17.1883C35.9576 17.2521 36.0537 17.2984 36.156 17.3243C36.2584 17.3503 36.3649 17.3555 36.4693 17.3396C36.5737 17.3237 36.6739 17.287 36.7639 17.2317C36.8538 17.1764 36.9318 17.1036 36.9931 17.0176L37.982 15.6746C38.0459 15.5905 38.0923 15.4945 38.1184 15.3922C38.1445 15.2899 38.1499 15.1834 38.1341 15.079C38.1183 14.9746 38.0818 14.8744 38.0266 14.7844C37.9715 14.6944 37.8988 14.6163 37.813 14.5549Z" fill="url(#paint44_linear_1_5)"/>
<path d="M37.813 14.5549C37.7289 14.491 37.6329 14.4446 37.5306 14.4185C37.4283 14.3924 37.3218 14.387 37.2174 14.4028C37.113 14.4186 37.0128 14.4551 36.9228 14.5103C36.8328 14.5654 36.7547 14.6381 36.6933 14.7239L35.7043 16.0686C35.6404 16.1526 35.5941 16.2486 35.568 16.351C35.5418 16.4533 35.5365 16.5598 35.5523 16.6642C35.568 16.7685 35.6046 16.8687 35.6597 16.9588C35.7149 17.0488 35.7875 17.1268 35.8734 17.1883C35.9576 17.2521 36.0537 17.2984 36.156 17.3243C36.2584 17.3503 36.3649 17.3555 36.4693 17.3396C36.5737 17.3237 36.6739 17.287 36.7639 17.2317C36.8538 17.1764 36.9318 17.1036 36.9931 17.0176L37.982 15.6746C38.0459 15.5905 38.0923 15.4945 38.1184 15.3922C38.1445 15.2899 38.1499 15.1834 38.1341 15.079C38.1183 14.9746 38.0818 14.8744 38.0266 14.7844C37.9715 14.6944 37.8988 14.6163 37.813 14.5549Z" fill="url(#paint45_radial_1_5)"/>
<g filter="url(#filter6_f_1_5)">
<path d="M21.2357 14.9089C20.9166 15.2279 20.9166 15.7224 21.2357 16.0414L22.416 17.2218C22.735 17.5408 23.2295 17.5408 23.5485 17.2218C23.8675 16.9027 23.8675 16.4083 23.5485 16.0893L22.3681 14.9089C22.0491 14.5899 21.5387 14.5899 21.2357 14.9089Z" fill="#AD8994"/>
</g>
<path d="M21.443 14.7144C21.124 15.0334 21.124 15.5279 21.443 15.8469L22.6233 17.0272C22.9424 17.3462 23.4368 17.3462 23.7558 17.0272C24.0748 16.7082 24.0748 16.2137 23.7558 15.8947L22.5755 14.7144C22.2565 14.3954 21.7461 14.3954 21.443 14.7144Z" fill="url(#paint46_linear_1_5)"/>
<defs>
<filter id="filter0_f_1_5" x="1.73119" y="19.4837" width="41.5071" height="8.08728" filterUnits="userSpaceOnUse" color-interpolation-filters="sRGB">
<feFlood flood-opacity="0" result="BackgroundImageFix"/>
<feBlend mode="normal" in="SourceGraphic" in2="BackgroundImageFix" result="shape"/>
<feGaussianBlur stdDeviation="0.0625" result="effect1_foregroundBlur_1_5"/>
</filter>
<filter id="filter1_f_1_5" x="0.408356" y="21.7657" width="44.6389" height="5.60144" filterUnits="userSpaceOnUse" color-interpolation-filters="sRGB">
<feFlood flood-opacity="0" result="BackgroundImageFix"/>
<feBlend mode="normal" in="SourceGraphic" in2="BackgroundImageFix" result="shape"/>
<feGaussianBlur stdDeviation="0.25" result="effect1_foregroundBlur_1_5"/>
</filter>
<filter id="filter2_f_1_5" x="28.3809" y="19.483" width="3.04134" height="3.04132" filterUnits="userSpaceOnUse" color-interpolation-filters="sRGB">
<feFlood flood-opacity="0" result="BackgroundImageFix"/>
<feBlend mode="normal" in="SourceGraphic" in2="BackgroundImageFix" result="shape"/>
<feGaussianBlur stdDeviation="0.0625" result="effect1_foregroundBlur_1_5"/>
</filter>
<filter id="filter3_f_1_5" x="13.1259" y="19.6584" width="3.02937" height="3.04132" filterUnits="userSpaceOnUse" color-interpolation-filters="sRGB">
<feFlood flood-opacity="0" result="BackgroundImageFix"/>
<feBlend mode="normal" in="SourceGraphic" in2="BackgroundImageFix" result="shape"/>
<feGaussianBlur stdDeviation="0.0625" result="effect1_foregroundBlur_1_5"/>
</filter>
<filter id="filter4_f_1_5" x="6.44078" y="14.4553" width="2.81458" height="3.22244" filterUnits="userSpaceOnUse" color-interpolation-filters="sRGB">
<feFlood flood-opacity="0" result="BackgroundImageFix"/>
<feBlend mode="normal" in="SourceGraphic" in2="BackgroundImageFix" result="shape"/>
<feGaussianBlur stdDeviation="0.0625" result="effect1_foregroundBlur_1_5"/>
</filter>
<filter id="filter5_f_1_5" x="35.2356" y="14.4944" width="2.85002" height="3.20572" filterUnits="userSpaceOnUse" color-interpolation-filters="sRGB">
<feFlood flood-opacity="0" result="BackgroundImageFix"/>
<feBlend mode="normal" in="SourceGraphic" in2="BackgroundImageFix" result="shape"/>
<feGaussianBlur stdDeviation="0.0625" result="effect1_foregroundBlur_1_5"/>
</filter>
<filter id="filter6_f_1_5" x="20.8714" y="14.5447" width="3.04134" height="3.04132" filterUnits="userSpaceOnUse" color-interpolation-filters="sRGB">
<feFlood flood-opacity="0" result="BackgroundImageFix"/>
<feBlend mode="normal" in="SourceGraphic" in2="BackgroundImageFix" result="shape"/>
<feGaussianBlur stdDeviation="0.0625" result="effect1_foregroundBlur_1_5"/>
</filter>
<linearGradient id="paint0_linear_1_5" x1="10.6286" y1="9.29602" x2="13.8187" y2="9.29602" gradientUnits="userSpaceOnUse">
<stop stop-color="#3F92A6"/>
<stop offset="0.137" stop-color="#52B4CF"/>
<stop offset="0.563" stop-color="#73E5FF"/>
<stop offset="0.816" stop-color="#71E2FC"/>
<stop offset="1" stop-color="#5BD0EF"/>
</linearGradient>
<radialGradient id="paint1_radial_1_5" cx="0" cy="0" r="1" gradientUnits="userSpaceOnUse" gradientTransform="translate(12.9095 7.12835) rotate(90) scale(0.809981 1.55766)">
<stop stop-color="#8BFDFF"/>
<stop offset="1" stop-color="#8DFFFF" stop-opacity="0"/>
</radialGradient>
<radialGradient id="paint2_radial_1_5" cx="0" cy="0" r="1" gradientUnits="userSpaceOnUse" gradientTransform="translate(13.7198 -0.523128) rotate(117.14) scale(6.66548 16.5689)">
<stop offset="0.175" stop-color="#FFEF5B"/>
<stop offset="0.814" stop-color="#FDA43A"/>
</radialGradient>
<radialGradient id="paint3_radial_1_5" cx="0" cy="0" r="1" gradientUnits="userSpaceOnUse" gradientTransform="translate(12.5727 1.81439) rotate(106.757) scale(3.28479)">
<stop stop-color="#FECF4D"/>
<stop offset="1" stop-color="#FF9B32"/>
</radialGradient>
<linearGradient id="paint4_linear_1_5" x1="20.9964" y1="9.29602" x2="24.1865" y2="9.29602" gradientUnits="userSpaceOnUse">
<stop stop-color="#3F92A6"/>
<stop offset="0.137" stop-color="#52B4CF"/>
<stop offset="0.563" stop-color="#73E5FF"/>
<stop offset="0.816" stop-color="#71E2FC"/>
<stop offset="1" stop-color="#5BD0EF"/>
</linearGradient>
<radialGradient id="paint5_radial_1_5" cx="0" cy="0" r="1" gradientUnits="userSpaceOnUse" gradientTransform="translate(23.2773 7.12835) rotate(90) scale(0.809981 1.55766)">
<stop stop-color="#8BFDFF"/>
<stop offset="1" stop-color="#8DFFFF" stop-opacity="0"/>
</radialGradient>
<radialGradient id="paint6_radial_1_5" cx="0" cy="0" r="1" gradientUnits="userSpaceOnUse" gradientTransform="translate(24.1036 -0.523128) rotate(117.14) scale(6.66548 16.5689)">
<stop offset="0.175" stop-color="#FFEF5B"/>
<stop offset="0.814" stop-color="#FDA43A"/>
</radialGradient>
<radialGradient id="paint7_radial_1_5" cx="0" cy="0" r="1" gradientUnits="userSpaceOnUse" gradientTransform="translate(22.9404 1.85481) rotate(106.686) scale(3.29837 3.28602)">
<stop stop-color="#FECF4D"/>
<stop offset="1" stop-color="#FF9B32"/>
</radialGradient>
<linearGradient id="paint8_linear_1_5" x1="31.3642" y1="9.42521" x2="34.5543" y2="9.42521" gradientUnits="userSpaceOnUse">
<stop stop-color="#3F92A6"/>
<stop offset="0.137" stop-color="#52B4CF"/>
<stop offset="0.563" stop-color="#73E5FF"/>
<stop offset="0.816" stop-color="#71E2FC"/>
<stop offset="1" stop-color="#5BD0EF"/>
</linearGradient>
<radialGradient id="paint9_radial_1_5" cx="0" cy="0" r="1" gradientUnits="userSpaceOnUse" gradientTransform="translate(33.6451 7.25754) rotate(90) scale(0.809981 1.55766)">
<stop stop-color="#8BFDFF"/>
<stop offset="1" stop-color="#8DFFFF" stop-opacity="0"/>
</radialGradient>
<radialGradient id="paint10_radial_1_5" cx="0" cy="0" r="1" gradientUnits="userSpaceOnUse" gradientTransform="translate(34.4576 -0.525087) rotate(117.062) scale(6.66087 16.525)">
<stop offset="0.175" stop-color="#FFEF5B"/>
<stop offset="0.814" stop-color="#FDA43A"/>
</radialGradient>
<radialGradient id="paint11_radial_1_5" cx="0" cy="0" r="1" gradientUnits="userSpaceOnUse" gradientTransform="translate(33.3074 1.81502) rotate(106.686) scale(3.29837 3.28602)">
<stop stop-color="#FECF4D"/>
<stop offset="1" stop-color="#FF9B32"/>
</radialGradient>
<linearGradient id="paint12_linear_1_5" x1="0.260756" y1="32.6204" x2="44.2251" y2="32.6204" gradientUnits="userSpaceOnUse">
<stop offset="0.006" stop-color="#BB8960"/>
<stop offset="0.129" stop-color="#DC9A6F"/>
<stop offset="0.543" stop-color="#F6A377"/>
<stop offset="0.698" stop-color="#F8A672"/>
<stop offset="0.858" stop-color="#FBAA6C"/>
<stop offset="0.939" stop-color="#E99952"/>
<stop offset="0.982" stop-color="#CC894F"/>
</linearGradient>
<radialGradient id="paint13_radial_1_5" cx="0" cy="0" r="1" gradientUnits="userSpaceOnUse" gradientTransform="translate(30.7629 35.3192) rotate(90) scale(18.2434 10.6452)">
<stop offset="0.006" stop-color="#FFBE8A"/>
<stop offset="0.982" stop-color="#FFBB8A" stop-opacity="0"/>
</radialGradient>
<linearGradient id="paint14_linear_1_5" x1="22.5914" y1="36.3129" x2="22.5914" y2="44.9852" gradientUnits="userSpaceOnUse">
<stop offset="0.739" stop-color="#F7A378" stop-opacity="0"/>
<stop offset="0.862" stop-color="#E4828A"/>
<stop offset="0.954" stop-color="#BA5CA3"/>
</linearGradient>
<linearGradient id="paint15_linear_1_5" x1="1.15877" y1="33.3972" x2="44.2251" y2="33.3972" gradientUnits="userSpaceOnUse">
<stop offset="0.006" stop-color="#C7A88A"/>
<stop offset="0.038" stop-color="#D3B08F"/>
<stop offset="0.206" stop-color="#FFD0B4"/>
<stop offset="0.511" stop-color="#FFE3CA"/>
<stop offset="0.799" stop-color="#FFF7CF"/>
<stop offset="0.933" stop-color="#FFE5B6"/>
<stop offset="0.992" stop-color="#E9CAA0"/>
</linearGradient>
<linearGradient id="paint16_linear_1_5" x1="2.96917" y1="26.7426" x2="42.5678" y2="26.7426" gradientUnits="userSpaceOnUse">
<stop stop-color="#BF6245"/>
<stop offset="0.388" stop-color="#BD6555"/>
<stop offset="0.679" stop-color="#A54D3B"/>
<stop offset="1" stop-color="#8E4229"/>
</linearGradient>
<radialGradient id="paint17_radial_1_5" cx="0" cy="0" r="1" gradientUnits="userSpaceOnUse" gradientTransform="translate(38.5419 15.1785) rotate(141.595) scale(34.984 55.9256)">
<stop stop-color="#FFF2C2"/>
<stop offset="0.226" stop-color="#FFF2C2" stop-opacity="0.645"/>
<stop offset="0.636" stop-color="#FFF1C1" stop-opacity="0"/>
</radialGradient>
<radialGradient id="paint18_radial_1_5" cx="0" cy="0" r="1" gradientUnits="userSpaceOnUse" gradientTransform="translate(35.6517 14.381) rotate(90) scale(2.14335 13.6576)">
<stop stop-color="#FFFCC8"/>
<stop offset="1" stop-color="#FFF9C7" stop-opacity="0"/>
</radialGradient>
<linearGradient id="paint19_linear_1_5" x1="44.9381" y1="20.8601" x2="40.8356" y2="20.8601" gradientUnits="userSpaceOnUse">
<stop stop-color="#EAD3A8"/>
<stop offset="0.466" stop-color="#FEE6B8"/>
<stop offset="0.903" stop-color="#FFF0C2" stop-opacity="0"/>
</linearGradient>
<linearGradient id="paint20_linear_1_5" x1="22.5994" y1="11.1159" x2="22.5994" y2="27.0776" gradientUnits="userSpaceOnUse">
<stop stop-color="#D8B38B"/>
<stop offset="0.03" stop-color="#F9C588"/>
<stop offset="0.16" stop-color="#FFE59F" stop-opacity="0"/>
</linearGradient>
<linearGradient id="paint21_linear_1_5" x1="0.260757" y1="20.8601" x2="9.93153" y2="20.8601" gradientUnits="userSpaceOnUse">
<stop stop-color="#A9967B"/>
<stop offset="0.412" stop-color="#D2B79E"/>
<stop offset="1" stop-color="#DBBEA7" stop-opacity="0"/>
</linearGradient>
<radialGradient id="paint22_radial_1_5" cx="0" cy="0" r="1" gradientUnits="userSpaceOnUse" gradientTransform="translate(22.5994 25.9451) rotate(90) scale(16.6483 12.8364)">
<stop stop-color="#FDDAC6"/>
<stop offset="1" stop-color="#FBD7C3" stop-opacity="0"/>
</radialGradient>
<radialGradient id="paint23_radial_1_5" cx="0" cy="0" r="1" gradientUnits="userSpaceOnUse" gradientTransform="translate(34.1555 27.0776) rotate(96.0287) scale(11.3903 8.78232)">
<stop stop-color="#FFF4D0"/>
<stop offset="1" stop-color="#FFF3D1" stop-opacity="0"/>
</radialGradient>
<linearGradient id="paint24_linear_1_5" x1="28.474" y1="26.3438" x2="28.474" y2="19.0975" gradientUnits="userSpaceOnUse">
<stop stop-color="#D697AC"/>
<stop offset="0.358" stop-color="#D697AC" stop-opacity="0"/>
</linearGradient>
<radialGradient id="paint25_radial_1_5" cx="0" cy="0" r="1" gradientUnits="userSpaceOnUse" gradientTransform="translate(37.9384 15.5791) rotate(143.326) scale(33.0633 52.0109)">
<stop stop-color="#FFF2C2"/>
<stop offset="0.226" stop-color="#FFF2C2" stop-opacity="0.645"/>
<stop offset="0.636" stop-color="#FFF1C1" stop-opacity="0"/>
</radialGradient>
<radialGradient id="paint26_radial_1_5" cx="0" cy="0" r="1" gradientUnits="userSpaceOnUse" gradientTransform="translate(35.1413 14.8548) rotate(90) scale(1.94759 13.2108)">
<stop stop-color="#FFFCC8"/>
<stop offset="1" stop-color="#FFF9C7" stop-opacity="0"/>
</radialGradient>
<linearGradient id="paint27_linear_1_5" x1="44.1246" y1="20.7421" x2="40.1561" y2="20.7421" gradientUnits="userSpaceOnUse">
<stop stop-color="#EAD3A8"/>
<stop offset="0.466" stop-color="#FEE6B8"/>
<stop offset="0.903" stop-color="#FFF0C2" stop-opacity="0"/>
</linearGradient>
<linearGradient id="paint28_linear_1_5" x1="22.5165" y1="11.888" x2="22.5165" y2="26.3933" gradientUnits="userSpaceOnUse">
<stop stop-color="#D8B38B"/>
<stop offset="0.03" stop-color="#F9C588"/>
<stop offset="0.16" stop-color="#FFE59F" stop-opacity="0"/>
</linearGradient>
<linearGradient id="paint29_linear_1_5" x1="0.908356" y1="20.7421" x2="10.2617" y2="20.7421" gradientUnits="userSpaceOnUse">
<stop stop-color="#A9967B"/>
<stop offset="0.412" stop-color="#D2B79E"/>
<stop offset="1" stop-color="#DBBEA7" stop-opacity="0"/>
</linearGradient>
<radialGradient id="paint30_radial_1_5" cx="0" cy="0" r="1" gradientUnits="userSpaceOnUse" gradientTransform="translate(22.4997 25.3567) rotate(90) scale(15.1277 12.4165)">
<stop stop-color="#FDDAC6"/>
<stop offset="1" stop-color="#FBD7C3" stop-opacity="0"/>
</radialGradient>
<radialGradient id="paint31_radial_1_5" cx="0" cy="0" r="1" gradientUnits="userSpaceOnUse" gradientTransform="translate(33.6946 26.3933) rotate(96.4145) scale(10.3576 8.48881)">
<stop stop-color="#FFF4D0"/>
<stop offset="1" stop-color="#FFF3D1" stop-opacity="0"/>
</radialGradient>
<linearGradient id="paint32_linear_1_5" x1="30.5029" y1="20.5522" x2="29.4709" y2="21.6177" gradientUnits="userSpaceOnUse">
<stop stop-color="#FF79C8"/>
<stop offset="0.384" stop-color="#FF79D8"/>
<stop offset="1" stop-color="#C557AB"/>
</linearGradient>
<linearGradient id="paint33_linear_1_5" x1="30.7405" y1="20.4199" x2="29.7069" y2="21.4854" gradientUnits="userSpaceOnUse">
<stop stop-color="#FF79C8"/>
<stop offset="0.384" stop-color="#FF79D8"/>
<stop offset="1" stop-color="#C557AB"/>
</linearGradient>
<radialGradient id="paint34_radial_1_5" cx="0" cy="0" r="1" gradientUnits="userSpaceOnUse" gradientTransform="translate(31.1344 21.3897) rotate(127.091) scale(0.618019 0.616082)">
<stop stop-color="#FF80E2"/>
<stop offset="1" stop-color="#FF80E2" stop-opacity="0"/>
</radialGradient>
<linearGradient id="paint35_linear_1_5" x1="14.05" y1="20.6384" x2="15.1713" y2="21.7119" gradientUnits="userSpaceOnUse">
<stop stop-color="#D29440"/>
<stop offset="0.31" stop-color="#E29B3E"/>
<stop offset="0.635" stop-color="#EE9744"/>
<stop offset="1" stop-color="#F19542"/>
</linearGradient>
<radialGradient id="paint36_radial_1_5" cx="0" cy="0" r="1" gradientUnits="userSpaceOnUse" gradientTransform="translate(15.5892 20.3816) rotate(136.827) scale(3.20547 2.50756)">
<stop offset="0.629" stop-color="#CF794B" stop-opacity="0"/>
<stop offset="1" stop-color="#CF794B"/>
</radialGradient>
<linearGradient id="paint37_linear_1_5" x1="14.4472" y1="20.3194" x2="15.5685" y2="21.3929" gradientUnits="userSpaceOnUse">
<stop stop-color="#D29440"/>
<stop offset="0.31" stop-color="#E29B3E"/>
<stop offset="0.635" stop-color="#EE9744"/>
<stop offset="1" stop-color="#F19542"/>
</linearGradient>
<radialGradient id="paint38_radial_1_5" cx="0" cy="0" r="1" gradientUnits="userSpaceOnUse" gradientTransform="translate(15.988 20.0626) rotate(136.827) scale(3.20547 2.50756)">
<stop offset="0.629" stop-color="#CF794B" stop-opacity="0"/>
<stop offset="1" stop-color="#CF794B"/>
</radialGradient>
<radialGradient id="paint39_radial_1_5" cx="0" cy="0" r="1" gradientUnits="userSpaceOnUse" gradientTransform="translate(16.2384 19.7372) rotate(45) scale(1.58608 1.11025)">
<stop stop-color="#FFC054"/>
<stop offset="1" stop-color="#FFBD42" stop-opacity="0"/>
</radialGradient>
<linearGradient id="paint40_linear_1_5" x1="8.51509" y1="15.7209" x2="7.31881" y2="16.5934" gradientUnits="userSpaceOnUse">
<stop stop-color="#FF79C8"/>
<stop offset="0.384" stop-color="#FF79D8"/>
<stop offset="1" stop-color="#C557AB"/>
</linearGradient>
<linearGradient id="paint41_linear_1_5" x1="8.98406" y1="15.5262" x2="7.78777" y2="16.3987" gradientUnits="userSpaceOnUse">
<stop stop-color="#FF79C8"/>
<stop offset="0.384" stop-color="#FF79D8"/>
<stop offset="1" stop-color="#C557AB"/>
</linearGradient>
<radialGradient id="paint42_radial_1_5" cx="0" cy="0" r="1" gradientUnits="userSpaceOnUse" gradientTransform="translate(9.20736 16.5503) rotate(136.636) scale(0.617061 0.61442)">
<stop stop-color="#FF80E2"/>
<stop offset="1" stop-color="#FF80E2" stop-opacity="0"/>
</radialGradient>
<linearGradient id="paint43_linear_1_5" x1="35.9915" y1="15.6538" x2="37.2627" y2="16.5502" gradientUnits="userSpaceOnUse">
<stop stop-color="#FBA947"/>
<stop offset="0.31" stop-color="#FFB841"/>
<stop offset="0.635" stop-color="#FFC656"/>
<stop offset="1" stop-color="#F3A740"/>
</linearGradient>
<linearGradient id="paint44_linear_1_5" x1="36.1749" y1="15.4274" x2="37.4461" y2="16.3238" gradientUnits="userSpaceOnUse">
<stop stop-color="#FBA947"/>
<stop offset="0.31" stop-color="#FFB841"/>
<stop offset="0.635" stop-color="#FFC656"/>
<stop offset="1" stop-color="#F3A740"/>
</linearGradient>
<radialGradient id="paint45_radial_1_5" cx="0" cy="0" r="1" gradientUnits="userSpaceOnUse" gradientTransform="translate(35.5508 17.6697) rotate(-15.255) scale(1.70496)">
<stop offset="0.303" stop-color="#D88043"/>
<stop offset="1" stop-color="#D98044" stop-opacity="0"/>
</radialGradient>
<linearGradient id="paint46_linear_1_5" x1="23.239" y1="15.3524" x2="22.1672" y2="16.4482" gradientUnits="userSpaceOnUse">
<stop stop-color="#4FC3FF"/>
<stop offset="0.371" stop-color="#45B2FF"/>
<stop offset="1" stop-color="#417EDD"/>
</linearGradient>
</defs>
</svg>
