<svg width="42" height="48" viewBox="0 0 42 48" fill="none" xmlns="http://www.w3.org/2000/svg">
<path fill-rule="evenodd" clip-rule="evenodd" d="M22.4038 46.7356L22.3766 46.7401L22.2157 46.8194L22.1704 46.8285L22.1387 46.8194L21.9778 46.7378C21.9536 46.7318 21.9355 46.7363 21.9234 46.7514L21.9144 46.7741L21.8758 47.7438L21.8872 47.7891L21.9098 47.8186L22.1455 47.9863L22.1794 47.9953L22.2066 47.9863L22.4423 47.8186L22.4695 47.7823L22.4785 47.7438L22.44 46.7763C22.434 46.7522 22.4219 46.7386 22.4038 46.7356ZM23.0019 46.4795L22.9702 46.4841L22.5533 46.6948L22.5306 46.7174L22.5238 46.7424L22.5646 47.7166L22.576 47.7438L22.5941 47.762L23.0495 47.9704C23.0782 47.978 23.1001 47.9719 23.1152 47.9523L23.1243 47.9206L23.0472 46.5294C23.0397 46.5007 23.0246 46.4841 23.0019 46.4795ZM21.3819 46.4841C21.3719 46.478 21.36 46.4761 21.3486 46.4786C21.3372 46.4811 21.3272 46.488 21.3207 46.4977L21.3071 46.5294L21.2301 47.9206C21.2316 47.9477 21.2445 47.9659 21.2686 47.9749L21.3026 47.9704L21.758 47.7597L21.7807 47.7416L21.7875 47.7166L21.8283 46.7424L21.8215 46.7152L21.7988 46.6925L21.3819 46.4841Z" fill="#FC386C"/>
<path fill-rule="evenodd" clip-rule="evenodd" d="M11.9949 0.83606C12.5958 0.83606 13.1721 1.07477 13.5971 1.49968C14.022 1.92459 14.2607 2.50089 14.2607 3.10181V5.36755H27.8551V3.10181C27.8551 2.50089 28.0939 1.92459 28.5188 1.49968C28.9437 1.07477 29.52 0.83606 30.1209 0.83606C30.7218 0.83606 31.2981 1.07477 31.723 1.49968C32.1479 1.92459 32.3866 2.50089 32.3866 3.10181V5.36755H36.9181C38.12 5.36755 39.2726 5.84497 40.1224 6.69479C40.9722 7.54461 41.4496 8.69722 41.4496 9.89904V37.088C41.4496 38.2898 40.9722 39.4424 40.1224 40.2922C39.2726 41.1421 38.12 41.6195 36.9181 41.6195H5.19769C3.99586 41.6195 2.84326 41.1421 1.99344 40.2922C1.14362 39.4424 0.666199 38.2898 0.666199 37.088V9.89904C0.666199 8.69722 1.14362 7.54461 1.99344 6.69479C2.84326 5.84497 3.99586 5.36755 5.19769 5.36755H9.72918V3.10181C9.72918 2.50089 9.96789 1.92459 10.3928 1.49968C10.8177 1.07477 11.394 0.83606 11.9949 0.83606ZM20.9242 17.0158C17.2129 13.2614 11.8839 16.7348 11.9972 21.8531C12.0652 24.9345 14.4782 27.8883 19.2363 30.7145L19.3563 30.787C19.916 31.12 20.6365 31.5482 21.0579 31.5482C21.4793 31.5482 22.1998 31.12 22.7572 30.787L22.8796 30.7145C27.6376 27.8898 30.0507 24.936 30.1186 21.8531C30.2319 16.7325 24.9029 13.2614 21.1916 17.0158C21.1564 17.0508 21.1087 17.0704 21.059 17.0704C21.0094 17.0704 20.9617 17.0508 20.9265 17.0158" fill="#FC386C"/>
</svg>
