<svg width="30" height="30" viewBox="0 0 30 30" fill="none" xmlns="http://www.w3.org/2000/svg">
<path fill-rule="evenodd" clip-rule="evenodd" d="M9.89286 8.45459H19.6813C24.6431 8.45459 27.1255 8.45459 28.5196 9.92544C29.9138 11.3963 29.5858 13.6674 28.9285 18.2111L28.3079 22.5208L28.3077 22.5218C27.7931 26.0842 27.5357 27.8663 26.2167 28.9332C24.8975 30.0002 22.9504 30.0002 19.0592 30.0002H10.5149C6.62222 30.0002 4.67807 30.0002 3.35745 28.9332C2.03844 27.8663 1.781 26.0842 1.26638 22.5218L1.26624 22.5208L0.645644 18.2111C-0.0117201 13.6674 -0.339667 11.3963 1.05447 9.92544C2.44862 8.45459 4.93101 8.45459 9.89286 8.45459Z" fill="#37ADD7"/>
<path d="M10.2361 16.0531C10.2361 15.592 10.6103 15.2178 11.0707 15.2178H11.4048C11.8659 15.2178 12.2395 15.592 12.2395 16.0531V22.398C12.2395 22.8591 11.8653 23.2333 11.4042 23.2333H11.0714C10.9616 23.2333 10.853 23.2117 10.7516 23.1697C10.6502 23.1277 10.5581 23.0661 10.4805 22.9885C10.4029 22.9108 10.3414 22.8187 10.2995 22.7172C10.2575 22.6158 10.236 22.5071 10.2361 22.3974V16.0531Z" fill="white"/>
<path d="M12.907 16.0531C12.907 15.592 13.2806 15.2178 13.7417 15.2178H14.0758C14.5362 15.2178 14.9098 15.592 14.9098 16.0531V22.398C14.9098 22.8591 14.5356 23.2333 14.0751 23.2333H13.741C13.5197 23.233 13.3076 23.1448 13.1512 22.9882C12.9949 22.8316 12.907 22.6193 12.907 22.398V16.0531Z" fill="white"/>
<path d="M17.568 17.0738C17.4878 16.8747 17.334 16.7142 17.1385 16.6255C16.943 16.5367 16.7209 16.5267 16.5182 16.5974L16.1293 16.7337C16.0229 16.7711 15.9251 16.8296 15.8419 16.9057C15.7587 16.9819 15.6918 17.0741 15.6452 17.1768C15.5987 17.2796 15.5734 17.3907 15.5709 17.5034C15.5684 17.6162 15.5888 17.7283 15.6308 17.833L17.5934 22.7138C17.7598 23.1281 18.2216 23.3373 18.6432 23.1903L19.0321 23.0539C19.1386 23.0166 19.2365 22.958 19.3197 22.8818C19.403 22.8056 19.4699 22.7133 19.5165 22.6105C19.5631 22.5077 19.5884 22.3965 19.5908 22.2837C19.5932 22.1709 19.5728 22.0587 19.5306 21.954L17.568 17.0738Z" fill="white"/>
<path opacity="0.4" d="M9.65463 0.196289H19.9195C20.2607 0.196289 20.5225 0.196289 20.7519 0.218643C22.3813 0.381077 23.7152 1.37356 24.2813 2.71029H5.29132C5.85604 1.37356 7.18988 0.381077 8.81932 0.218643C9.05021 0.196289 9.31198 0.196289 9.65463 0.196289Z" fill="#44E6CB"/>
<path opacity="0.7" d="M6.41933 4.25391C4.37518 4.25391 2.69868 5.50569 2.13838 7.16431L2.10455 7.26862C2.68986 7.0898 3.29869 6.97207 3.91635 6.8916C5.50461 6.68595 7.51347 6.68595 9.84586 6.68595H19.9813C22.3137 6.68595 24.3211 6.68595 25.9108 6.8916C26.5236 6.9689 27.1294 7.09496 27.7226 7.26862L27.6888 7.16431C27.13 5.5042 25.452 4.25391 23.4064 4.25391H6.41933Z" fill="#39B5D5"/>
</svg>
