<svg width="70" height="70" viewBox="0 0 70 70" fill="none" xmlns="http://www.w3.org/2000/svg">
<g clip-path="url(#clip0_15_720)">
<path d="M34.8685 22.7241L34.8685 45.6832" stroke="#ED6C1D"/>
<path d="M10.3374 35C10.3374 34.7239 10.1136 34.5 9.83741 34.5C9.56127 34.5 9.33741 34.7239 9.33741 35L10.3374 35ZM9.33741 44.547L9.33741 45.047L10.3374 45.047L10.3374 44.547L9.33741 44.547ZM9.33741 35L9.33741 44.547L10.3374 44.547L10.3374 35L9.33741 35Z" fill="#ED6C1D"/>
<path d="M60.6626 35C60.6626 34.7239 60.4387 34.5 60.1626 34.5C59.8864 34.5 59.6626 34.7239 59.6626 35L60.6626 35ZM59.6626 44.547L59.6626 45.047L60.6626 45.047L60.6626 44.547L59.6626 44.547ZM59.6626 35L59.6626 44.547L60.6626 44.547L60.6626 35L59.6626 35Z" fill="#ED6C1D"/>
<path d="M9.83741 35L60.1626 35" stroke="#ED6C1D" stroke-linecap="round"/>
<rect x="25.1626" y="10.308" width="19.6748" height="14.5936" rx="3" fill="#00A891"/>
<rect y="44.547" width="19.6748" height="14.5936" rx="3" fill="#00A891"/>
<rect x="25.1626" y="44.547" width="19.6748" height="14.5936" rx="3" fill="#00A891"/>
<rect x="50.3252" y="44.547" width="19.6748" height="14.5936" rx="3" fill="#00A891"/>
</g>
<defs>
<clipPath id="clip0_15_720">
<rect width="70" height="70" fill="white"/>
</clipPath>
</defs>
</svg>
