<svg width="70" height="70" viewBox="0 0 70 70" fill="none" xmlns="http://www.w3.org/2000/svg">
<g clip-path="url(#clip0_15_723)">
<path d="M69.9031 20.3079L69.7299 42.1896C69.7326 44.3472 69.3086 46.4839 68.4825 48.4762C67.6639 50.4629 66.462 52.268 64.9457 53.7879C63.4294 55.3078 61.6286 56.5126 59.6466 57.3331C57.659 58.1613 55.5274 58.5862 53.3749 58.5835H45.3014L38.3713 65.5301C37.9403 65.9791 37.4212 66.3339 36.8467 66.572C36.2494 66.8488 35.5989 66.9911 34.9409 66.9888C34.2865 66.9916 33.6382 66.8617 33.0352 66.6068C32.4315 66.3375 31.8891 65.9475 31.4412 65.4606L24.6844 58.7224H16.6109C14.4648 58.7224 12.3397 58.2981 10.3574 57.4738C8.37504 56.6495 6.57437 55.4414 5.05843 53.9187C3.5425 52.3959 2.34107 50.5884 1.52294 48.5996C0.70481 46.6108 0.286035 44.4798 0.290591 42.3285V19.4049C0.284564 17.2506 0.703984 15.1164 1.52467 13.1254C2.34536 11.1344 3.55108 9.32586 5.07234 7.80412C8.14713 4.75826 12.2881 3.03811 16.6109 3.01099H53.5482C55.6972 3.00641 57.826 3.42733 59.8123 4.24958C61.7987 5.07183 63.6034 6.27922 65.1231 7.80244C66.6427 9.32567 67.8472 11.1347 68.6675 13.1258C69.4878 15.1169 69.9077 17.2507 69.9031 19.4049V20.3079Z" fill="#A7482F"/>
<path d="M67.0647 19.5632L66.8985 40.5028C66.9011 42.5675 66.4944 44.6123 65.7019 46.5188C64.9167 48.42 63.7638 50.1474 62.3094 51.6018C60.8549 53.0563 59.1275 54.2092 57.2264 54.9944C55.3198 55.7869 53.2751 56.1936 51.2104 56.1909H43.466L36.8186 62.8384C36.4051 63.2682 35.9072 63.6076 35.3561 63.8355C34.7832 64.1004 34.1592 64.2366 33.528 64.2344C32.9003 64.2371 32.2784 64.1127 31.7 63.8688C31.121 63.6111 30.6007 63.2379 30.1711 62.7719L23.6898 56.3239H15.9454C13.8868 56.3239 11.8484 55.9179 9.9469 55.1291C8.04539 54.3402 6.31814 53.1841 4.86402 51.7269C3.4099 50.2697 2.25746 48.54 1.47269 46.6369C0.687917 44.7337 0.286218 42.6944 0.290589 40.6358V18.6991C0.284807 16.6375 0.687125 14.5953 1.47435 12.6899C2.26157 10.7846 3.41813 9.05399 4.87736 7.59776C7.82677 4.68304 11.7989 3.03694 15.9454 3.01099H51.3766C53.438 3.00661 55.48 3.4094 57.3853 4.19625C59.2907 4.9831 61.0218 6.13851 62.4795 7.59615C63.9371 9.0538 65.0925 10.785 65.8794 12.6903C66.6662 14.5957 67.069 16.6377 67.0647 18.6991V19.5632Z" fill="#E2542E"/>
<path fill-rule="evenodd" clip-rule="evenodd" d="M31.7015 15.4885C32.2356 15.6223 32.6947 15.9628 32.9778 16.4351C33.2608 16.9074 33.3447 17.4728 33.2109 18.0069L32.2974 21.6548H38.4014L39.564 16.9979C39.6287 16.7317 39.7454 16.481 39.9073 16.2601C40.0693 16.0393 40.2734 15.8527 40.5078 15.711C40.7423 15.5694 41.0024 15.4755 41.2733 15.4348C41.5441 15.3942 41.8204 15.4075 42.086 15.4741C42.3517 15.5406 42.6016 15.6591 42.8213 15.8227C43.041 15.9862 43.2262 16.1916 43.3661 16.4271C43.5061 16.6625 43.5981 16.9233 43.6368 17.1944C43.6756 17.4656 43.6603 17.7417 43.5918 18.0069L42.6783 21.6548H47.8065C48.3571 21.6548 48.8852 21.8735 49.2745 22.2629C49.6639 22.6522 49.8826 23.1803 49.8826 23.7309C49.8826 24.2816 49.6639 24.8097 49.2745 25.199C48.8852 25.5884 48.3571 25.8071 47.8065 25.8071H41.6402L39.564 34.1119H43.6541C44.2047 34.1119 44.7328 34.3306 45.1222 34.72C45.5115 35.1093 45.7303 35.6374 45.7303 36.188C45.7303 36.7387 45.5115 37.2668 45.1222 37.6561C44.7328 38.0455 44.2047 38.2642 43.6541 38.2642H38.5259L37.3633 42.919C37.301 43.1875 37.1859 43.441 37.0247 43.6645C36.8634 43.8881 36.6593 44.0773 36.4241 44.2212C36.189 44.365 35.9276 44.4606 35.6551 44.5023C35.3826 44.5441 35.1046 44.5311 34.8372 44.4643C34.5698 44.3974 34.3184 44.278 34.0976 44.1129C33.8768 43.9479 33.6911 43.7405 33.5513 43.503C33.4115 43.2654 33.3205 43.0024 33.2834 42.7292C33.2463 42.4561 33.264 42.1783 33.3355 41.9121L34.249 38.2642H28.145L26.9824 42.919C26.9201 43.1875 26.805 43.441 26.6437 43.6645C26.4825 43.8881 26.2784 44.0773 26.0432 44.2212C25.8081 44.365 25.5467 44.4606 25.2742 44.5023C25.0017 44.5441 24.7237 44.5311 24.4563 44.4643C24.1889 44.3974 23.9374 44.278 23.7167 44.1129C23.4959 43.9479 23.3102 43.7405 23.1704 43.503C23.0306 43.2654 22.9396 43.0024 22.9025 42.7292C22.8654 42.4561 22.8831 42.1783 22.9546 41.9121L23.8681 38.2642H18.7399C18.1893 38.2642 17.6612 38.0455 17.2718 37.6561C16.8825 37.2668 16.6637 36.7387 16.6637 36.188C16.6637 35.6374 16.8825 35.1093 17.2718 34.72C17.6612 34.3306 18.1893 34.1119 18.7399 34.1119H24.9062L26.9824 25.8071H22.8923C22.3416 25.8071 21.8136 25.5884 21.4242 25.199C21.0348 24.8097 20.8161 24.2816 20.8161 23.7309C20.8161 23.1803 21.0348 22.6522 21.4242 22.2629C21.8136 21.8735 22.3416 21.6548 22.8923 21.6548H28.0204L29.1831 16.9979C29.3169 16.4638 29.6574 16.0047 30.1297 15.7216C30.602 15.4386 31.1674 15.3547 31.7015 15.4885ZM31.2593 25.8071L29.1831 34.1119H35.2829L37.3591 25.8071H31.2593Z" fill="white"/>
</g>
<defs>
<clipPath id="clip0_15_723">
<rect width="70" height="70" fill="white"/>
</clipPath>
</defs>
</svg>
