<svg width="70" height="70" viewBox="0 0 70 70" fill="none" xmlns="http://www.w3.org/2000/svg">
<g clip-path="url(#clip0_15_725)">
<circle cx="34.9997" cy="35" r="21.2045" fill="#FABE2C"/>
<circle cx="34.9997" cy="35" r="15.4234" fill="#00A891"/>
<path d="M34.9997 40.3963L39.057 42.8503C39.8 43.3 40.7092 42.6352 40.5137 41.7944L39.4383 37.1798L43.0263 34.0708C43.6813 33.5038 43.3294 32.4284 42.469 32.3599L37.7469 31.9591L35.8991 27.5987C35.5667 26.8068 34.4326 26.8068 34.1002 27.5987L32.2524 31.9493L27.5303 32.3502C26.67 32.4186 26.318 33.494 26.973 34.0611L30.5611 37.17L29.4856 41.7846C29.2901 42.6254 30.1993 43.2902 30.9424 42.8405L34.9997 40.3963Z" fill="#FFFF59"/>
<rect x="62.6081" y="33.3934" width="7.29305" height="3.21301" rx="1.60651" fill="#FABE2C"/>
<rect x="59.2894" y="28.3088" width="7.29305" height="3.21301" rx="1.60651" transform="rotate(-36 59.2894 28.3088)" fill="#FABE2C"/>
<rect width="7.29305" height="3.21301" rx="1.60651" transform="matrix(0.809017 0.587785 0.587785 -0.809017 59.2894 41.6907)" fill="#FABE2C"/>
<rect width="7.29305" height="3.21301" rx="1.60651" transform="matrix(-1 0 0 1 7.29309 33.3934)" fill="#FABE2C"/>
<rect width="7.29305" height="3.21301" rx="1.60651" transform="matrix(-0.809017 -0.587785 -0.587785 0.809017 10.6119 28.3088)" fill="#FABE2C"/>
<rect x="10.6119" y="41.6907" width="7.29305" height="3.21301" rx="1.60651" transform="rotate(144 10.6119 41.6907)" fill="#FABE2C"/>
</g>
<defs>
<clipPath id="clip0_15_725">
<rect width="70" height="70" fill="white"/>
</clipPath>
</defs>
</svg>
