<svg width="70" height="70" viewBox="0 0 70 70" fill="none" xmlns="http://www.w3.org/2000/svg">
<g clip-path="url(#clip0_15_719)">
<path d="M35.0524 21.5951C35.3793 19.8225 35.3793 18.0122 35.0524 16.2395L38.296 14.3664C38.6731 14.1526 38.8366 13.7126 38.7109 13.2978C37.8685 10.5823 36.4228 8.11822 34.537 6.0816C34.2478 5.76731 33.7827 5.69188 33.4055 5.9056L30.1619 7.77879C28.7916 6.60962 27.2201 5.70446 25.5229 5.10101V1.35465C25.5229 0.927211 25.2212 0.55006 24.8063 0.462058C22.0028 -0.166527 19.149 -0.141384 16.4837 0.462058C16.0688 0.55006 15.7671 0.927211 15.7671 1.35465V5.10101C14.0699 5.70446 12.4984 6.60962 11.1281 7.77879L7.88453 5.9056C7.51995 5.69188 7.04221 5.76731 6.75306 6.0816C4.86727 8.11822 3.42151 10.5823 2.57919 13.2978C2.45347 13.7126 2.62947 14.1526 2.99406 14.3664L6.23761 16.2395C5.91074 18.0122 5.91074 19.8225 6.23761 21.5951L2.99406 23.4683C2.6169 23.682 2.45347 24.122 2.57919 24.5369C3.42151 27.2524 4.86727 29.7038 6.75306 31.753C7.04221 32.0673 7.50737 32.1427 7.88453 31.929L11.1281 30.0558C12.4984 31.225 14.0699 32.1302 15.7671 32.7336V36.48C15.7671 36.9074 16.0688 37.2846 16.4837 37.3726C19.2873 38.0012 22.1411 37.976 24.8063 37.3726C25.2212 37.2846 25.5229 36.9074 25.5229 36.48V32.7336C27.2201 32.1302 28.7916 31.225 30.1619 30.0558L33.4055 31.929C33.7701 32.1427 34.2478 32.0673 34.537 31.753C36.4228 29.7164 37.8685 27.2524 38.7109 24.5369C38.8366 24.122 38.6606 23.682 38.296 23.4683L35.0524 21.5951ZM20.6576 25.0146C17.2883 25.0146 14.5602 22.274 14.5602 18.9173C14.5602 15.5607 17.3009 12.82 20.6576 12.82C24.0143 12.82 26.755 15.5607 26.755 18.9173C26.755 22.274 24.0269 25.0146 20.6576 25.0146Z" fill="#00839E"/>
<ellipse cx="39.4921" cy="42.03" rx="27.9705" ry="27.97" fill="white"/>
<path d="M40.9746 14.117C45.3713 14.7277 49.292 18.2367 52.0594 23.5135C54.2729 22.8553 56.2911 22.0321 58.0532 21.078C53.4592 16.9981 47.5166 14.4072 40.9746 14.0601V14.117Z" fill="#00AFD2"/>
<path d="M40.9746 27.881V40.5702H53.6052C53.4194 35.3276 52.3097 30.5232 50.5609 26.6576C47.5773 27.3405 44.3509 27.7634 40.9746 27.881Z" fill="#00AFD2"/>
<path d="M38.103 69.8578C33.7272 69.1314 29.8407 65.5294 27.1207 60.1844C24.7213 60.8521 22.54 61.7075 20.6451 62.7147C25.3017 66.9501 31.3922 69.6359 38.1011 69.9602V69.8578H38.103Z" fill="#00AFD2"/>
<path d="M38.103 14.1314V14.0517C31.3694 14.376 25.2618 17.0789 20.5995 21.339C22.4963 22.3139 24.6662 23.139 27.0448 23.7801C29.7648 18.4028 33.6778 14.799 38.103 14.1314Z" fill="#00AFD2"/>
<path d="M40.9746 66.6372C44.294 66.0985 47.2719 63.5209 49.5044 59.6193C46.8489 59.0446 43.9791 58.6899 40.9746 58.5988V66.6353V66.6372Z" fill="#00AFD2"/>
<path d="M40.9746 69.9124V69.9504C47.6266 69.5995 53.6641 66.9251 58.2865 62.7238C56.5092 61.7754 54.4778 60.9617 52.2529 60.313C49.4798 65.7491 45.4833 69.3548 40.9746 69.9124Z" fill="#00AFD2"/>
<path d="M38.103 27.9048C34.7248 27.8441 31.4889 27.4762 28.4806 26.8503C26.802 30.6836 25.7531 35.4159 25.5994 40.5713H38.103V27.9048Z" fill="#00AFD2"/>
<path d="M49.3015 24.2254C47.0898 20.4756 44.1897 17.9851 40.9746 17.4085V25.2705C43.907 25.1605 46.7086 24.7982 49.3015 24.2254Z" fill="#00AFD2"/>
<path d="M38.103 17.4085C34.8368 17.9946 31.91 20.5571 29.7079 24.4056C32.333 24.9291 35.1573 25.2402 38.103 25.2971V17.4104V17.4085Z" fill="#00AFD2"/>
<path d="M38.103 43.4413H25.6071C25.7892 48.6232 26.8741 53.3764 28.5869 57.2192C31.5592 56.5819 34.759 56.1969 38.103 56.1153V43.4413Z" fill="#00AFD2"/>
<path d="M29.7609 59.5453C31.9593 63.3843 34.8689 65.9544 38.1029 66.5898V58.5951C35.1724 58.6728 32.3652 59.0029 29.7609 59.5434V59.5453Z" fill="#00AFD2"/>
<path d="M40.9746 56.1191C44.3907 56.2121 47.6551 56.6217 50.6785 57.2951C52.3894 53.4371 53.4611 48.6554 53.6147 43.4413H40.9765V56.1191H40.9746Z" fill="#00AFD2"/>
<path d="M56.2173 40.5705H67.4253C67.0877 33.8693 64.3905 27.7902 60.1493 23.1432C58.1027 24.2585 55.7659 25.2107 53.209 25.9656C54.9522 30.1403 56.0409 35.1515 56.2173 40.5705Z" fill="#00AFD2"/>
<path d="M56.2249 43.4413C56.0789 48.8242 55.0281 53.807 53.3266 57.9684C55.8797 58.7044 58.2184 59.6376 60.2745 60.7301C64.4436 56.102 67.0915 50.0761 67.4254 43.4413H56.2249Z" fill="#00AFD2"/>
<path d="M23.1261 43.4413H11.5217C11.8574 50.0723 14.5015 56.0944 18.6649 60.7225C20.8386 59.5693 23.3253 58.5944 26.049 57.8413C24.3552 53.7083 23.2987 48.773 23.1261 43.4413Z" fill="#00AFD2"/>
<path d="M25.9353 26.244C23.2153 25.5119 20.7267 24.5578 18.5454 23.4274C14.4503 28.0365 11.8536 34.0055 11.5217 40.572H23.1185C23.2627 35.2744 24.2813 30.3656 25.9353 26.244Z" fill="#00AFD2"/>
</g>
<defs>
<clipPath id="clip0_15_719">
<rect width="70" height="70" fill="white"/>
</clipPath>
</defs>
</svg>
