<svg width="70" height="70" viewBox="0 0 70 70" fill="none" xmlns="http://www.w3.org/2000/svg">
<g clip-path="url(#clip0_15_722)">
<path fill-rule="evenodd" clip-rule="evenodd" d="M33.7459 57.7847L33.7459 29.6444L36.3478 29.6444L36.3478 57.7847L33.7459 57.7847Z" fill="#D7D7D7"/>
<path fill-rule="evenodd" clip-rule="evenodd" d="M8.81111 43.3896C9.52962 43.3896 10.1121 43.9721 10.1121 44.6906L10.1121 57.693L7.51014 57.693L7.51014 44.6906C7.51014 43.9721 8.09261 43.3896 8.81111 43.3896Z" fill="#D7D7D7"/>
<path fill-rule="evenodd" clip-rule="evenodd" d="M61.5581 43.3896C62.2766 43.3896 62.8591 43.9721 62.8591 44.6906L62.8591 57.693L60.2571 57.693L60.2571 44.6906C60.2571 43.9721 60.8396 43.3896 61.5581 43.3896Z" fill="#D7D7D7"/>
<path fill-rule="evenodd" clip-rule="evenodd" d="M7.51014 44.6906C7.51014 43.9721 8.09261 43.3896 8.81111 43.3896H61.5582C62.2767 43.3896 62.8591 43.9721 62.8591 44.6906C62.8591 45.4091 62.2767 45.9915 61.5582 45.9915H8.81111C8.09261 45.9915 7.51014 45.4091 7.51014 44.6906Z" fill="#D7D7D7"/>
<path d="M21.1414 7.41121C21.1414 5.4457 20.3606 3.56069 18.9708 2.17087C17.5809 0.781041 15.6959 0.000244141 13.7304 0.000244141C11.7649 0.000244141 9.87989 0.781041 8.49007 2.17087C7.10024 3.56069 6.31945 5.4457 6.31945 7.41121C6.31945 9.37673 7.10024 11.2617 8.49007 12.6516C9.87989 14.0414 11.7649 14.8222 13.7304 14.8222C15.6959 14.8222 17.5809 14.0414 18.9708 12.6516C20.3606 11.2617 21.1414 9.37673 21.1414 7.41121ZM0.390671 25.9386C0.390671 27.9882 2.04656 29.6441 4.09615 29.6441H14.0083C15.1779 25.0817 18.4781 21.3647 22.7857 19.6162C21.6625 18.9214 20.3308 18.5277 18.9181 18.5277H7.80164C3.71403 18.5277 0.390671 21.851 0.390671 25.9386ZM53.8423 29.6441H63.3839C65.4335 29.6441 67.0894 27.9882 67.0894 25.9386C67.0894 21.851 63.766 18.5277 59.6784 18.5277H48.562C47.2071 18.5277 45.9334 18.8866 44.8449 19.5235C49.2567 21.2373 52.6496 25.0007 53.8423 29.6441ZM41.9847 22.5111C41.1857 22.3258 40.3404 22.2332 39.4835 22.2332H28.3671C27.3828 22.2332 26.4333 22.3605 25.5301 22.5921C21.9635 23.5301 19.0918 26.1934 17.8759 29.6441C17.4706 30.8021 17.239 32.0527 17.239 33.3496C17.239 35.3992 18.8949 37.0551 20.9445 37.0551H46.8829C48.9325 37.0551 50.5884 35.3992 50.5884 33.3496C50.5884 32.0527 50.3684 30.8021 49.9515 29.6441C48.7009 26.0892 45.6902 23.368 41.9732 22.5111H41.9847ZM61.9017 7.41121C61.9017 5.4457 61.1209 3.56069 59.7311 2.17087C58.3413 0.781041 56.4563 0.000244141 54.4907 0.000244141C52.5252 0.000244141 50.6402 0.781041 49.2504 2.17087C47.8606 3.56069 47.0798 5.4457 47.0798 7.41121C47.0798 9.37673 47.8606 11.2617 49.2504 12.6516C50.6402 14.0414 52.5252 14.8222 54.4907 14.8222C56.4563 14.8222 58.3413 14.0414 59.7311 12.6516C61.1209 11.2617 61.9017 9.37673 61.9017 7.41121ZM33.9253 18.5277C36.3822 18.5277 38.7385 17.5517 40.4757 15.8144C42.213 14.0771 43.189 11.7208 43.189 9.26396C43.189 6.80707 42.213 4.45081 40.4757 2.71352C38.7385 0.976239 36.3822 0.000244141 33.9253 0.000244141C31.4684 0.000244141 29.1122 0.976239 27.3749 2.71352C25.6376 4.45081 24.6616 6.80707 24.6616 9.26396C24.6616 11.7208 25.6376 14.0771 27.3749 15.8144C29.1122 17.5517 31.4684 18.5277 33.9253 18.5277Z" fill="#B2228D"/>
<path fill-rule="evenodd" clip-rule="evenodd" d="M8.81114 66.7476C11.3421 66.7476 13.3939 64.6958 13.3939 62.1648C13.3939 59.6338 11.3421 57.582 8.81114 57.582C6.28014 57.582 4.22836 59.6338 4.22836 62.1648C4.22836 64.6958 6.28014 66.7476 8.81114 66.7476ZM8.81114 70C13.1384 70 16.6464 66.4921 16.6464 62.1648C16.6464 57.8375 13.1384 54.3296 8.81114 54.3296C4.48387 54.3296 0.975922 57.8375 0.975922 62.1648C0.975922 66.4921 4.48387 70 8.81114 70Z" fill="#00A891"/>
<path fill-rule="evenodd" clip-rule="evenodd" d="M35.1846 66.7476C37.7156 66.7476 39.7674 64.6958 39.7674 62.1648C39.7674 59.6338 37.7156 57.582 35.1846 57.582C32.6536 57.582 30.6018 59.6338 30.6018 62.1648C30.6018 64.6958 32.6536 66.7476 35.1846 66.7476ZM35.1846 70C39.5119 70 43.0198 66.4921 43.0198 62.1648C43.0198 57.8375 39.5119 54.3296 35.1846 54.3296C30.8573 54.3296 27.3494 57.8375 27.3494 62.1648C27.3494 66.4921 30.8573 70 35.1846 70Z" fill="#00A891"/>
<path fill-rule="evenodd" clip-rule="evenodd" d="M61.5582 66.7476C64.0892 66.7476 66.141 64.6958 66.141 62.1648C66.141 59.6338 64.0892 57.582 61.5582 57.582C59.0272 57.582 56.9755 59.6338 56.9755 62.1648C56.9755 64.6958 59.0272 66.7476 61.5582 66.7476ZM61.5582 70C65.8855 70 69.3935 66.4921 69.3935 62.1648C69.3935 57.8375 65.8855 54.3296 61.5582 54.3296C57.231 54.3296 53.723 57.8375 53.723 62.1648C53.723 66.4921 57.231 70 61.5582 70Z" fill="#00A891"/>
</g>
<defs>
<clipPath id="clip0_15_722">
<rect width="70" height="70" fill="white"/>
</clipPath>
</defs>
</svg>
