<svg width="70" height="70" viewBox="0 0 70 70" fill="none" xmlns="http://www.w3.org/2000/svg">
<g clip-path="url(#clip0_15_726)">
<path fill-rule="evenodd" clip-rule="evenodd" d="M6.91191 20.0873C3.0945 20.0873 0 23.1209 0 26.8631V63.2243C0 66.9665 3.0945 70 6.91191 70H58.8091C62.6264 70 65.721 66.9665 65.721 63.2243V51.8707H51.113C48.8226 51.8707 46.9659 50.0504 46.9659 47.8052V42.2824C46.9659 40.0373 48.8226 38.217 51.113 38.217H65.721V26.8631C65.721 23.1209 62.6264 20.0873 58.8091 20.0873H6.91191Z" fill="#1F84A0"/>
<path d="M48.2822 42.691C48.2822 40.82 49.799 39.3032 51.67 39.3032H67.9673C69.0899 39.3032 70 40.2132 70 41.3359V48.7514C70 49.8741 69.0899 50.7842 67.9673 50.7842H51.67C49.799 50.7842 48.2822 49.2674 48.2822 47.3963V42.691Z" fill="#55B8C9"/>
<path d="M55.5802 44.9466C55.5802 46.1876 54.6159 47.1937 53.4265 47.1937C52.2371 47.1937 51.2729 46.1876 51.2729 44.9466C51.2729 43.7056 52.2371 42.6995 53.4265 42.6995C54.6159 42.6995 55.5802 43.7056 55.5802 44.9466Z" fill="white"/>
<path d="M51.835 9.87095C53.2784 9.55325 54.6743 10.5233 54.6743 11.844L54.6743 19.0362L10.1944 19.0362L51.835 9.87095Z" fill="#00A891"/>
<path d="M43.8001 0.88162C45.1144 0.263797 46.7327 0.905764 47.0917 2.1874L49.0471 9.16681L5.88326 18.7053L43.8001 0.88162Z" fill="#63C9BB"/>
</g>
<defs>
<clipPath id="clip0_15_726">
<rect width="70" height="70" fill="white"/>
</clipPath>
</defs>
</svg>
