<svg width="34" height="32" viewBox="0 0 34 32" fill="none" xmlns="http://www.w3.org/2000/svg">
<path d="M17 22.5614C15.727 22.5614 14.5061 22.0557 13.6059 21.1555C12.7057 20.2554 12.2 19.0345 12.2 17.7614C12.2 15.9694 13.176 14.4014 14.6 13.5854L30.136 4.59344L21.288 19.9214C20.488 21.4894 18.872 22.5614 17 22.5614ZM17 1.76144C19.896 1.76144 22.6 2.56144 24.952 3.87344L21.592 5.80944C20.2 5.26544 18.6 4.96144 17 4.96144C13.6052 4.96144 10.3495 6.31001 7.94904 8.71047C5.54857 11.1109 4.20001 14.3667 4.20001 17.7614C4.20001 21.2974 5.62401 24.4974 7.94401 26.8014H7.96C8.584 27.4254 8.584 28.4334 7.96 29.0574C7.33601 29.6814 6.31201 29.6814 5.68801 29.0734C4.20004 27.5896 3.0199 25.8264 2.21539 23.8852C1.41087 21.9439 0.997838 19.8628 1.00001 17.7614C1.00001 13.518 2.68572 9.44831 5.6863 6.44773C8.68688 3.44715 12.7565 1.76144 17 1.76144ZM33 17.7614C33 22.1774 31.208 26.1774 28.312 29.0734C27.688 29.6814 26.68 29.6814 26.056 29.0574C25.9077 28.9094 25.79 28.7336 25.7097 28.54C25.6294 28.3465 25.5881 28.139 25.5881 27.9294C25.5881 27.7199 25.6294 27.5124 25.7097 27.3188C25.79 27.1253 25.9077 26.9495 26.056 26.8014C27.2459 25.6164 28.1894 24.2074 28.832 22.6558C29.4746 21.1043 29.8036 19.4408 29.8 17.7614C29.8 16.1614 29.496 14.5614 28.936 13.1214L30.872 9.76144C32.2 12.1614 33 14.8494 33 17.7614Z" fill="#109BB4" stroke="#0087A0" stroke-width="0.25"/>
</svg>
