<svg width="30" height="30" viewBox="0 0 30 30" fill="none" xmlns="http://www.w3.org/2000/svg">
<path d="M26.4348 14.9998C26.4348 14.5501 26.2561 14.1188 25.9381 13.8008C25.6202 13.4828 25.1889 13.3042 24.7391 13.3042C24.2894 13.3042 23.8582 13.4828 23.5402 13.8008C23.2222 14.1188 23.0435 14.5501 23.0435 14.9998V26.8693C23.0435 27.319 23.2222 27.7503 23.5402 28.0683C23.8582 28.3863 24.2894 28.5649 24.7391 28.5649C25.1889 28.5649 25.6202 28.3863 25.9381 28.0683C26.2561 27.7503 26.4348 27.319 26.4348 26.8693V14.9998Z" fill="#7CBF9E"/>
<path d="M12.87 18.3914C12.87 17.9417 12.6913 17.5104 12.3734 17.1924C12.0554 16.8744 11.6241 16.6958 11.1744 16.6958C10.7247 16.6958 10.2934 16.8744 9.97537 17.1924C9.65738 17.5104 9.47873 17.9417 9.47873 18.3914V26.8696C9.47873 27.3193 9.65738 27.7506 9.97537 28.0686C10.2934 28.3866 10.7247 28.5652 11.1744 28.5652C11.6241 28.5652 12.0554 28.3866 12.3734 28.0686C12.6913 27.7506 12.87 27.3193 12.87 26.8696V18.3914Z" fill="#7CBF9E"/>
<path d="M6.08758 23.4782C6.08758 23.0285 5.90894 22.5972 5.59094 22.2792C5.27295 21.9612 4.84166 21.7826 4.39195 21.7826C3.94224 21.7826 3.51095 21.9612 3.19296 22.2792C2.87497 22.5972 2.69632 23.0285 2.69632 23.4782V26.8695C2.69632 27.3192 2.87497 27.7505 3.19296 28.0685C3.51095 28.3865 3.94224 28.5651 4.39195 28.5651C4.84166 28.5651 5.27295 28.3865 5.59094 28.0685C5.90894 27.7505 6.08758 27.3192 6.08758 26.8695V23.4782Z" fill="#7CBF9E"/>
<path d="M17.957 20.0868C18.4068 20.0868 18.838 20.2654 19.156 20.5834C19.474 20.9014 19.6527 21.3327 19.6527 21.7824V26.8693C19.6527 27.319 19.474 27.7503 19.156 28.0683C18.838 28.3863 18.4068 28.5649 17.957 28.5649C17.5073 28.5649 17.076 28.3863 16.7581 28.0683C16.4401 27.7503 16.2614 27.319 16.2614 26.8693V21.7824C16.2614 21.3327 16.4401 20.9014 16.7581 20.5834C17.076 20.2654 17.5073 20.0868 17.957 20.0868Z" fill="#7CBF9E"/>
<path fill-rule="evenodd" clip-rule="evenodd" d="M21.3482 4.82615C20.8985 4.82615 20.4672 4.6475 20.1492 4.32951C19.8312 4.01151 19.6526 3.58022 19.6526 3.13051C19.6526 2.6808 19.8312 2.24951 20.1492 1.93152C20.4672 1.61352 20.8985 1.43488 21.3482 1.43488H26.4351C26.8848 1.43488 27.3161 1.61352 27.6341 1.93152C27.9521 2.24951 28.1307 2.6808 28.1307 3.13051V8.21742C28.1307 8.66713 27.9521 9.09842 27.6341 9.41641C27.3161 9.7344 26.8848 9.91305 26.4351 9.91305C25.9854 9.91305 25.5541 9.7344 25.2361 9.41641C24.9181 9.09842 24.7395 8.66713 24.7395 8.21742V7.22377L18.3079 13.6553C17.9899 13.9732 17.5587 14.1518 17.1091 14.1518C16.6595 14.1518 16.2283 13.9732 15.9103 13.6553L12.0222 9.76723L4.74284 17.0466C4.42304 17.3555 3.99472 17.5264 3.55013 17.5225C3.10554 17.5186 2.68026 17.3403 2.36587 17.0259C2.05149 16.7115 1.87316 16.2863 1.8693 15.8417C1.86543 15.3971 2.03634 14.9688 2.34522 14.649L10.8234 6.17078C11.1414 5.8529 11.5726 5.67433 12.0222 5.67433C12.4718 5.67433 12.903 5.8529 13.221 6.17078L17.1091 10.0589L22.3418 4.82615H21.3482Z" fill="#7CBF9E"/>
</svg>
