<svg width="134.279" height="144.032" viewBox="0 0 836 897" fill="none" xmlns="http://www.w3.org/2000/svg">
<path d="M774.408 480.785C779.663 421.526 770.442 361.88 747.54 306.98C728.093 262.142 699.753 221.717 664.236 188.151C637.522 162.95 607.039 142.075 573.888 126.279C567.724 123.065 561.36 120.249 554.836 117.849C548.898 115.402 542.771 113.441 536.516 111.983C530.874 109.711 526.184 108.831 521.714 106.778L509.989 104.579C501.782 103.039 493.794 100.326 485.587 98.7867C477.398 97.0491 469.097 95.8974 460.744 95.3404L452.537 93.8007C444.133 93.0102 435.695 92.6429 427.255 92.7002C422.345 92.9932 417.655 92.1133 412.745 92.4063C407.835 92.6993 401.752 92.7724 395.67 92.8455C389.484 92.7335 383.302 93.1995 377.202 94.2375C370.9 95.4834 364.597 96.7293 357.123 97.7553C326.313 103.132 296.365 112.623 268.08 125.974C190.534 159.096 128.341 220.275 93.9343 297.278C91.6616 302.922 88.2165 308.346 85.9439 313.991C83.505 319.509 81.6142 325.255 80.2985 331.143C75.7198 342.685 72.2578 354.639 69.9602 366.842C63.8484 392.101 60.6238 417.971 60.3484 443.957C60.082 499.377 72.666 554.103 97.1117 603.834C77.4658 643.857 57.8199 683.881 37.734 726.249L34.0689 732.847L41.5439 731.821C83.0963 723.832 127.214 715.111 171.331 706.389C202.902 736.877 239.944 761.127 280.511 777.865C299.232 786.192 318.855 792.318 338.988 796.12L369.472 801.839C380.245 802.646 389.625 804.406 399.225 804.992C438.949 807.761 478.848 803.317 516.992 791.876C553.85 781.077 588.844 764.714 620.767 743.353C650.87 721.935 677.748 696.312 700.584 667.267C722.121 639.626 739.348 608.881 751.676 576.079L759.814 552.109C762.322 544.12 764.258 535.963 765.607 527.699C770.29 512.44 773.242 496.703 774.408 480.785ZM290.822 444.7C284.561 443.525 278.789 440.52 274.235 436.063C269.682 431.607 266.552 425.9 265.242 419.664C263.931 413.428 264.499 406.944 266.873 401.03C269.247 395.116 273.32 390.039 278.578 386.441C283.837 382.843 290.043 380.885 296.413 380.815C302.783 380.746 309.031 382.567 314.366 386.049C319.701 389.531 323.883 394.517 326.385 400.377C328.887 406.237 329.595 412.708 328.42 418.972C326.692 427.289 321.811 434.614 314.801 439.411C307.791 444.208 299.198 446.103 290.822 444.7ZM385.793 462.516C379.532 461.342 373.76 458.336 369.207 453.88C364.654 449.424 361.524 443.717 360.213 437.481C358.903 431.245 359.47 424.76 361.844 418.847C364.218 412.933 368.292 407.856 373.55 404.258C378.808 400.66 385.015 398.702 391.385 398.632C397.755 398.562 404.002 400.384 409.337 403.866C414.672 407.348 418.855 412.334 421.357 418.194C423.858 424.054 424.566 430.525 423.391 436.788C421.663 445.106 416.782 452.431 409.773 457.228C402.763 462.024 394.169 463.92 385.793 462.516ZM542.614 487.079L473.437 474.102C466.285 472.76 459.959 468.631 455.851 462.624C451.743 456.616 450.189 449.222 451.531 442.067C452.873 434.913 457.001 428.584 463.008 424.474C469.014 420.364 476.407 418.809 483.559 420.151L552.735 433.128C556.304 433.737 559.714 435.057 562.762 437.011C565.809 438.965 568.433 441.512 570.477 444.5C572.521 447.489 573.943 450.858 574.658 454.408C575.374 457.958 575.368 461.615 574.642 465.163C573.225 472.278 569.08 478.555 563.094 482.652C557.108 486.748 549.757 488.337 542.614 487.079Z" fill="#8798A0"/>
<circle cx="456.708" cy="415.134" r="214.53" fill="#8798A0"/>
<path d="M547.623 593.61L514.677 561.736L481.755 593.585C479.74 595.54 477.042 596.633 474.234 596.633C471.426 596.633 468.728 595.54 466.712 593.585C465.724 592.647 464.938 591.518 464.401 590.267C463.863 589.016 463.586 587.668 463.586 586.306C463.586 584.944 463.863 583.596 464.401 582.345C464.938 581.094 465.724 579.965 466.712 579.027L499.608 547.178L466.738 515.355C465.438 514.093 464.498 512.507 464.013 510.761C463.528 509.015 463.517 507.172 463.979 505.42C464.489 503.657 465.454 502.059 466.776 500.786C468.098 499.513 469.732 498.609 471.514 498.167C473.303 497.716 475.176 497.723 476.962 498.187C478.747 498.651 480.387 499.558 481.73 500.823L514.677 532.646L547.649 500.746C549.7 498.955 552.347 497.996 555.069 498.057C557.791 498.119 560.392 499.196 562.36 501.078C564.29 502.921 565.41 505.455 565.472 508.123C565.534 510.79 564.534 513.374 562.692 515.304L529.745 547.204L562.641 579.053C563.629 579.99 564.415 581.119 564.953 582.371C565.49 583.622 565.767 584.97 565.767 586.332C565.767 587.693 565.49 589.041 564.953 590.292C564.415 591.544 563.629 592.673 562.641 593.61C560.617 595.54 557.928 596.617 555.132 596.617C552.336 596.617 549.647 595.54 547.623 593.61Z" fill="#DCDFE0"/>
<path fill-rule="evenodd" clip-rule="evenodd" d="M407.478 255.962C382.995 255.962 359.516 265.687 342.204 282.999C324.892 300.311 315.166 323.791 315.166 348.273C315.166 372.756 324.892 396.235 342.204 413.547C359.516 430.859 382.995 440.584 407.478 440.584C431.96 440.584 455.44 430.859 472.752 413.547C490.063 396.235 499.789 372.756 499.789 348.273C499.789 323.791 490.063 300.311 472.752 282.999C455.44 265.687 431.96 255.962 407.478 255.962ZM407.478 459.047C363.261 459.047 323.013 471.86 293.418 489.916C278.648 498.925 266.02 509.559 256.9 521.117C247.927 532.453 241.317 546.059 241.317 560.589C241.317 576.19 248.905 588.486 259.835 597.255C270.174 605.563 283.818 611.065 298.31 614.905C327.444 622.604 366.325 625.207 407.478 625.207C411.736 625.207 415.952 625.176 420.124 625.115C423.216 625.072 426.248 624.254 428.942 622.735C431.635 621.215 433.904 619.044 435.539 616.42C437.175 613.795 438.125 610.802 438.303 607.715C438.48 604.628 437.88 601.545 436.556 598.751C429.555 583.933 425.929 567.746 425.94 551.358C425.94 528.243 433.011 506.827 445.085 489.085C446.88 486.448 447.961 483.392 448.223 480.213C448.485 477.034 447.919 473.842 446.581 470.947C445.242 468.052 443.176 465.553 440.585 463.694C437.993 461.835 434.964 460.679 431.793 460.339C423.842 459.478 415.737 459.047 407.478 459.047Z" fill="#DCDFE0"/>
</svg>
