<svg width="134.279" height="144.032" viewBox="0 0 836 897" fill="none" xmlns="http://www.w3.org/2000/svg">
<g clip-path="url(#clip0_417_17)">
<path d="M786.324 132.172C786.324 132.172 765.779 119.717 742.743 168.916C730.486 194.073 720.082 220.091 711.614 246.763C711.614 246.763 705.388 257.351 697.917 250.5C690.446 244.272 680.485 225.589 668.656 229.326C656.204 233.062 653.091 247.386 656.204 267.315C659.317 287.244 664.298 332.084 664.92 335.821C665.543 339.557 663.052 345.785 657.449 342.048C651.846 338.312 618.849 304.682 603.907 320.874C588.965 337.689 606.397 391.871 608.265 398.099C610.133 404.326 608.888 406.817 606.397 408.063C603.284 409.931 593.323 397.476 583.984 388.134C574.023 378.792 561.571 370.074 553.478 380.038C545.384 390.625 544.139 431.729 586.475 497.743L607.642 527.014L643.752 523.9C720.953 512.067 751.459 484.042 753.95 470.964C756.44 457.885 740.875 454.149 727.801 453.526C714.104 452.28 698.54 452.903 697.917 449.789C697.295 446.675 698.54 444.184 704.143 441.693C709.746 439.202 762.666 416.782 765.156 394.362C767.647 371.942 720.33 369.451 714.104 367.582C707.879 365.714 710.991 360.109 714.104 358.241C717.217 355.75 753.95 330.838 771.382 319.628C788.815 308.418 796.908 296.586 791.927 285.376C786.947 274.166 766.401 278.525 757.063 277.28C747.724 276.034 751.459 264.824 751.459 264.824C765.622 240.706 778.305 215.749 789.437 190.091C809.36 139.646 785.702 132.172 786.324 132.172Z" fill="#F5F5F5"/>
<path d="M765.779 176.389C765.734 176.868 765.512 177.312 765.156 177.635C764.534 178.258 764.534 179.503 763.911 180.749C762.666 183.24 760.798 187.599 758.931 192.582C754.573 202.546 747.724 217.493 739.63 236.176C723.443 272.92 700.408 323.365 674.882 378.792C649.356 434.22 626.32 484.665 609.51 520.786C601.417 538.846 594.568 553.793 590.21 563.758C587.72 568.74 585.852 572.476 584.607 575.59C584.028 576.555 583.608 577.606 583.362 578.704C583.984 578.081 583.984 576.836 584.607 575.59C585.852 573.099 587.72 568.74 589.588 563.758C593.946 553.793 600.794 538.846 608.888 520.163C625.075 483.419 648.111 432.974 673.637 377.547C699.163 322.12 722.198 271.675 739.008 235.553C747.102 217.493 753.95 202.546 758.308 192.582C760.798 187.599 762.666 183.863 763.911 180.749C764.49 179.784 764.911 178.733 765.156 177.635C765.222 177.163 765.441 176.725 765.779 176.389Z" fill="#E0E0E0"/>
<path d="M681.73 256.105C682.311 256.841 682.735 257.689 682.975 258.596C683.598 260.465 684.22 262.333 685.466 265.447C687.333 271.052 689.824 279.148 692.314 287.867C694.804 296.586 696.672 304.682 698.54 310.287C699.162 312.778 699.785 315.269 700.408 317.137C700.723 317.937 700.932 318.774 701.03 319.628C700.449 318.892 700.025 318.044 699.785 317.137C699.162 315.269 698.54 313.401 697.295 310.287C694.816 302.932 692.737 295.447 691.069 287.867C688.578 279.148 686.711 271.052 684.843 265.447C684.22 262.956 683.598 260.465 682.975 258.596C682.264 257.95 681.82 257.062 681.73 256.105Z" fill="#E0E0E0"/>
<path d="M703.521 320.874C715.314 316.048 727.37 311.889 739.63 308.418C751.628 303.916 763.896 300.172 776.363 297.208C764.569 302.035 752.514 306.193 740.253 309.664C720.33 315.892 703.521 320.874 703.521 320.874Z" fill="#E0E0E0"/>
<path d="M660.562 404.326H670.523C676.749 404.326 684.843 403.704 694.182 403.081C703.52 402.458 712.236 401.212 717.84 400.59C720.298 400.098 722.805 399.889 725.311 399.967H727.801C726.947 400.065 726.11 400.274 725.311 400.59C723.443 401.212 720.953 401.212 717.84 401.835C711.614 402.458 703.52 403.704 694.182 404.326C684.843 404.949 676.127 404.949 669.901 404.949H662.43C661.857 404.615 661.221 404.403 660.562 404.326Z" fill="#E0E0E0"/>
<path d="M627.565 350.145C628.069 350.703 628.488 351.333 628.81 352.013C629.904 353.978 631.153 355.852 632.546 357.618C635.659 362.6 640.017 368.828 644.375 376.301C648.733 383.775 653.091 390.625 656.204 394.985C657.449 397.476 658.694 399.344 659.317 400.59C659.939 401.835 660.562 402.458 660.562 403.081C660.058 402.522 659.638 401.893 659.317 401.212C658.223 399.248 656.974 397.373 655.581 395.607C652.468 390.625 648.11 384.397 643.752 376.924C639.394 369.451 635.036 362.6 631.923 358.241C630.678 355.75 629.433 353.881 628.81 352.636C628.57 351.729 628.146 350.881 627.565 350.145Z" fill="#E0E0E0"/>
<path d="M580.249 419.273C580.941 420.049 581.566 420.882 582.117 421.764C583.362 423.632 585.23 426.124 587.097 428.615C590.833 434.842 596.436 442.939 602.662 452.28C608.888 461.622 613.869 470.341 617.604 476.569C619.472 479.682 620.717 482.174 621.962 484.042C623.207 485.91 623.83 486.533 623.207 486.533C622.516 485.757 621.891 484.923 621.34 484.042C620.094 482.174 618.227 479.682 616.359 477.191C612.623 470.964 607.02 462.867 600.794 453.526C594.568 444.184 589.588 435.465 585.852 429.237C583.985 426.124 582.739 423.632 581.494 421.764C581.254 420.857 580.83 420.009 580.249 419.273Z" fill="#E0E0E0"/>
<path d="M623.207 484.665C624.27 484.61 625.318 484.4 626.32 484.042C628.81 484.042 631.923 483.419 635.659 483.419C643.13 482.796 654.336 482.174 666.165 480.928C677.994 479.682 688.578 478.437 696.672 477.191C700.407 476.569 703.52 476.569 706.011 475.946C707.878 475.946 709.124 475.323 709.124 475.946C708.142 476.372 707.081 476.584 706.011 476.569C702.952 477.439 699.83 478.064 696.672 478.437C689.201 479.682 677.994 480.928 666.165 482.174C654.336 483.419 643.752 484.042 635.659 484.665H626.32C625.318 485.052 624.209 485.052 623.207 484.665Z" fill="#E0E0E0"/>
<path opacity="0.16" d="M607.642 278.525C567.174 281.016 523.593 291.603 501.803 320.251C495.609 329.117 490.587 338.746 486.861 348.899C473.787 380.661 460.712 415.536 474.409 447.921C484.798 468.815 501.596 485.837 522.348 496.498C543.979 507.915 566.717 517.096 590.21 523.9C609.469 530.69 629.25 535.897 649.355 539.469C684.217 544.42 719.708 536.922 749.592 518.295C763.071 510.003 774.281 498.493 782.214 484.796C790.147 471.1 794.554 455.646 795.04 439.825C794.729 425.816 792.208 411.943 787.569 398.721C783.127 380.697 774.366 364.025 762.043 350.145C754.636 342.89 746.499 336.42 737.762 330.839C717.217 316.515 696.049 299.077 673.636 287.244C651.846 276.657 630.678 281.016 607.642 278.525Z" fill="#516972"/>
<path d="M426.47 717.584C532.31 647.21 557.836 513.313 555.345 393.116C554.723 373.187 557.836 352.013 547.874 333.952C538.536 315.892 516.123 304.059 497.445 312.155C482.503 319.006 475.655 336.443 466.938 350.145C455.053 369.011 438.269 384.294 418.377 394.362C405.303 400.59 389.115 404.326 376.664 397.476C359.231 387.511 357.364 363.846 357.986 343.917C358.609 306.55 359.854 269.183 360.476 232.44C361.97 212.579 360.289 192.607 355.496 173.276C349.27 153.969 335.573 136.532 316.896 130.927C297.595 125.322 273.937 135.909 269.579 155.215C267.711 163.311 269.579 172.03 268.334 180.126C267.711 188.222 263.353 197.564 255.882 199.432C247.789 201.923 239.695 195.696 234.092 190.091C213.547 169.539 199.85 143.382 186.775 117.226C173.701 91.0688 161.25 64.2894 143.195 42.4921C124.517 20.0721 98.3685 2.63432 69.7296 0.14321C41.0907 -1.72513 9.33893 15.0899 1.86791 43.1149C-5.6031 71.1399 10.5841 99.7877 28.0165 122.831C54.3296 157.153 85.5923 187.376 120.782 212.511C127.62 216.324 133.071 222.212 136.346 229.326C140.704 242.404 127.63 255.482 113.933 259.842C98.9911 264.824 82.1813 262.956 66.6167 264.201C51.0521 266.07 33.6197 272.297 27.3939 287.244C18.6777 307.796 35.4875 328.97 52.2972 343.294C85.973 371.835 124.301 394.375 165.608 409.931C180.55 415.536 196.114 420.519 207.943 431.106C219.772 441.693 226.621 459.754 219.15 473.455C211.679 487.156 193.001 491.515 177.437 488.401C161.872 485.287 148.175 476.569 133.233 470.964C105.839 460.376 69.7296 461.622 51.6747 485.287C39.8456 500.857 38.6004 522.654 44.2036 541.338C50.7222 559.782 60.8854 576.726 74.0877 591.16C117.505 644.244 174.221 684.86 238.45 708.865C301.954 733.153 361.722 740.004 426.47 717.584Z" fill="#EBEBEB"/>
<path d="M417.754 720.075C400.944 659.043 354.251 515.804 326.234 448.544C319.386 431.729 312.537 414.914 305.689 398.721C298.841 382.529 291.992 366.337 284.521 350.767C270.022 320.875 253.592 291.958 235.337 264.201C218.527 237.422 201.095 212.511 185.53 189.468C169.343 166.425 153.778 145.251 138.836 126.567C115.334 96.9578 89.5196 69.261 61.636 43.7377C52.2973 35.0188 44.8263 28.1682 39.223 23.186C37.3389 21.2993 35.2508 19.6283 32.9971 18.2038C34.9577 20.1958 37.0368 22.0675 39.223 23.8088C44.2037 28.791 52.2973 35.6416 61.636 44.3605C89.0394 70.205 114.432 98.1034 137.591 127.813C152.533 146.496 167.475 167.671 183.663 190.713C199.85 213.756 216.66 238.667 233.469 265.447C251.154 293.222 267.363 321.909 282.031 351.39C289.502 366.96 296.35 383.152 303.199 399.344C310.047 415.536 316.896 432.351 323.744 449.166C351.138 516.426 397.832 659.665 415.264 720.698" fill="#E0E0E0"/>
<path d="M283.898 350.145C283.898 350.145 284.521 347.031 285.766 341.426C287.011 335.821 288.257 327.725 289.502 317.76C292.615 297.831 295.728 270.429 299.463 239.913C303.199 209.397 306.934 181.994 310.67 162.066C312.537 152.101 313.782 144.005 315.028 139.023C316.273 133.418 316.895 130.304 316.273 130.304C315.278 132.949 314.447 135.653 313.782 138.4C312.537 144.005 310.67 151.478 308.179 161.443C303.821 181.372 300.086 208.774 296.35 239.29C292.615 269.183 289.502 296.586 287.011 317.137C285.766 326.479 284.521 334.575 283.898 340.803C283.898 347.031 283.898 350.145 283.898 350.145Z" fill="#E0E0E0"/>
<path d="M24.9033 298.454C25.7571 298.552 26.5944 298.761 27.3937 299.077C29.2614 299.077 31.7517 299.7 34.8647 299.7C41.7131 300.322 51.0519 300.945 62.881 302.813C86.5392 305.927 119.536 310.91 155.023 317.76C191.133 325.234 222.885 333.33 245.921 339.557C257.75 342.671 266.466 345.785 273.314 347.654C275.765 348.425 278.26 349.049 280.785 349.522C281.585 349.838 282.422 350.047 283.276 350.145C282.54 349.563 281.692 349.139 280.785 348.899C278.362 347.881 275.864 347.048 273.314 346.408C264.546 343.044 255.611 340.134 246.543 337.689C223.508 330.839 191.133 322.12 155.646 315.269C120.159 307.796 87.1617 302.813 63.5035 300.322C51.6744 299.077 41.7131 298.454 34.8647 298.454H27.3937C25.5259 297.831 24.9033 298.454 24.9033 298.454Z" fill="#E0E0E0"/>
<path d="M392.851 637.245C393.415 636.173 394.038 635.134 394.719 634.132C395.964 631.64 397.209 628.527 399.077 624.79C402.812 616.694 408.416 604.861 414.642 590.537C427.716 561.266 444.526 520.163 461.958 474.7C480.013 429.237 496.2 388.134 508.652 358.864C514.878 344.54 519.858 332.707 523.594 323.988C525.162 321.013 526.414 317.882 527.329 314.646C527.502 313.527 527.928 312.462 528.574 311.532C528.011 312.605 527.387 313.644 526.707 314.646C525.462 317.137 524.216 320.251 522.349 323.988C518.613 332.084 513.01 343.917 506.784 358.241C493.71 387.511 476.9 428.615 459.468 474.078C441.413 518.918 425.225 560.021 412.774 589.292C406.548 603.615 401.567 615.448 397.832 624.167C396.263 627.142 395.011 630.273 394.096 633.509C393.429 634.655 393.005 635.927 392.851 637.245Z" fill="#E0E0E0"/>
<path d="M49.1841 522.031C50.3854 522.568 51.6366 522.985 52.9196 523.277C55.4099 523.9 58.5228 525.145 62.8809 526.391C72.2197 529.505 84.6714 533.864 99.6134 538.846C130.743 549.434 173.701 564.38 221.017 580.573C268.334 597.388 311.292 611.711 342.421 621.676C357.986 626.658 371.06 630.395 379.776 632.886C383.176 633.652 386.507 634.693 389.738 636C390.957 636.342 392.209 636.551 393.473 636.623C392.272 636.086 391.021 635.669 389.738 635.377C387.247 634.754 384.134 633.509 379.776 632.263C370.438 629.149 357.986 624.79 343.044 619.808C311.915 609.22 268.956 594.274 221.64 578.081C174.324 561.266 131.365 546.943 100.236 536.978C84.6714 531.996 71.5971 528.259 62.8809 525.768C59.4815 525.002 56.1501 523.961 52.9196 522.654C51.7007 522.312 50.4482 522.103 49.1841 522.031Z" fill="#E0E0E0"/>
<path d="M681.73 695.786H718.463C722.26 695.786 725.903 697.296 728.588 699.982C731.273 702.668 732.782 706.311 732.782 710.11C732.782 713.909 731.273 717.553 728.588 720.239C725.903 722.925 722.26 724.434 718.463 724.434H681.73C677.932 724.434 674.29 722.925 671.605 720.239C668.919 717.553 667.411 713.909 667.411 710.11C667.411 706.311 668.919 702.668 671.605 699.982C674.29 697.296 677.932 695.786 681.73 695.786Z" fill="#455B64"/>
<path d="M635.659 693.295C638.983 693.295 642.233 694.282 644.998 696.129C647.762 697.977 649.916 700.603 651.189 703.676C652.461 706.748 652.794 710.129 652.145 713.391C651.497 716.653 649.896 719.649 647.545 722C645.194 724.352 642.199 725.954 638.938 726.602C635.677 727.251 632.297 726.918 629.226 725.646C626.154 724.373 623.529 722.218 621.682 719.452C619.835 716.687 618.849 713.436 618.849 710.11C618.84 707.9 619.268 705.709 620.11 703.665C620.951 701.621 622.189 699.763 623.752 698.2C625.315 696.637 627.171 695.399 629.215 694.557C631.259 693.715 633.449 693.286 635.659 693.295Z" fill="#455B64"/>
<path d="M585.229 693.295C588.554 693.295 591.804 694.282 594.568 696.129C597.333 697.977 599.487 700.603 600.76 703.676C602.032 706.748 602.365 710.129 601.716 713.391C601.068 716.653 599.467 719.649 597.116 722C594.765 724.352 591.77 725.954 588.509 726.602C585.248 727.251 581.868 726.918 578.797 725.646C575.725 724.373 573.1 722.218 571.253 719.452C569.405 716.687 568.42 713.436 568.42 710.11C568.411 707.9 568.839 705.709 569.681 703.665C570.522 701.621 571.76 699.763 573.323 698.2C574.886 696.637 576.742 695.399 578.786 694.557C580.829 693.715 583.019 693.286 585.229 693.295Z" fill="#455B64"/>
<path d="M649.978 523.9H630.678C628.188 524.523 625.075 524.523 622.585 525.145C619.472 525.768 616.359 525.768 612.623 526.391C609.51 527.014 605.775 528.259 602.039 528.882C583.42 533.52 565.732 541.314 549.742 551.925C528.159 565.554 509.701 583.594 495.578 604.861C478.451 630.77 467.973 660.502 465.071 691.427C464.234 699.911 464.026 708.446 464.448 716.961C464.345 721.33 464.553 725.7 465.071 730.039L466.939 743.118C473.704 780.297 491.492 814.582 517.991 841.517C532.427 855.406 548.781 867.15 566.552 876.392C585.051 885.847 605.074 891.961 625.698 894.453C630.818 895.485 636.043 895.903 641.262 895.698C646.64 896.321 652.072 896.321 657.45 895.698C668.097 895.068 678.699 893.821 689.201 891.962C711.851 887.067 733.388 877.985 752.705 865.182H750.837C772.628 873.901 794.418 882.62 815.586 891.339L819.321 892.584L818.076 888.848C811.228 865.182 805.002 842.139 798.776 819.719L798.154 821.588C815.672 798.239 827.6 771.181 833.018 742.495C835.687 729.178 836.524 715.558 835.509 702.014C835.534 695.533 834.909 689.065 833.641 682.708C832.921 679.643 832.504 676.514 832.396 673.367C831.858 670.182 831.024 667.054 829.905 664.025C818.967 621.364 793.408 583.897 757.686 558.153C744.385 548.706 729.953 540.965 714.727 535.11C711.614 533.864 707.879 532.619 704.766 531.373C701.653 530.75 698.54 529.505 695.427 528.882C692.314 528.259 689.824 527.636 686.711 527.014C684.221 526.391 681.108 526.391 679.24 525.768C674.259 525.145 669.901 524.523 666.166 523.9C663.039 524.047 659.906 523.839 656.827 523.277H651.224C651.224 523.9 649.978 523.9 649.978 523.9H651.846C653.733 523.86 655.617 524.069 657.45 524.523C659.94 524.523 663.053 525.145 666.788 525.145C671.175 525.548 675.539 526.172 679.863 527.014C707.687 531.92 734.063 542.984 757.063 559.398C792.186 584.814 817.124 621.901 827.415 664.025C828.038 667.139 829.283 670.253 829.905 673.367C830.528 676.48 830.528 679.594 831.15 682.708C832.111 689.106 832.734 695.551 833.018 702.014C833.722 715.352 832.887 728.726 830.528 741.872C825.323 770.132 813.598 796.788 796.286 819.719L795.663 820.342V821.588C801.889 844.008 808.115 867.051 814.341 891.339L816.831 888.848C795.663 880.129 773.873 871.41 752.082 862.691L750.837 862.068L750.215 862.691C731.253 875.179 710.145 884.047 687.956 888.848C677.763 891.317 667.314 892.571 656.827 892.584H641.262C636.054 892.479 630.857 892.063 625.698 891.339C605.548 888.854 585.969 882.957 567.797 873.901C550.109 865.088 533.929 853.527 519.858 839.648C493.918 813.385 476.365 780.003 469.429 743.74L467.561 730.662C467.059 726.53 466.85 722.368 466.939 718.207C466.516 709.899 466.724 701.571 467.561 693.295C470.462 662.853 480.718 633.572 497.445 607.975C511.485 587.234 529.466 569.459 550.365 555.661C566.14 545.07 583.62 537.276 602.039 532.619C605.775 531.373 609.51 530.75 612.623 529.505C615.736 528.882 619.472 528.259 621.962 527.636C624.614 526.964 627.324 526.547 630.056 526.391C632.546 526.391 635.036 525.768 636.904 525.768C640.64 525.768 643.753 525.145 646.243 525.145C647.568 525.026 648.847 524.6 649.978 523.9Z" fill="#455B64"/>
<path d="M617.604 505.216C614.597 474.315 604.128 444.607 587.097 418.65C572.807 397.522 554.381 379.513 532.932 365.714C516.805 355.358 499.16 347.584 480.635 342.671C477.164 341.616 473.629 340.783 470.051 340.18C466.77 339.497 463.439 339.08 460.09 338.935C456.977 338.312 454.487 338.312 451.997 337.689H445.771C441.413 337.689 437.054 337.066 432.696 337.066C428.329 336.963 423.96 337.171 419.622 337.689H415.264C410.877 338.092 406.514 338.716 402.19 339.557C399.699 340.18 397.209 340.18 394.719 340.803C392.228 341.426 389.115 342.048 386.003 342.671C382.819 343.209 379.692 344.043 376.664 345.162C373.551 346.408 370.438 347.653 366.702 348.899C351.416 354.622 336.968 362.372 323.744 371.942C287.155 396.394 261.141 433.76 250.902 476.569C250.279 479.682 249.034 482.796 248.411 485.91C247.691 488.976 247.274 492.105 247.166 495.252C245.928 501.613 245.303 508.078 245.298 514.558C244.594 528.102 245.43 541.683 247.789 555.039C252.985 583.492 264.706 610.352 282.031 633.509C275.805 655.929 269.579 678.349 263.353 702.014L262.108 705.751L265.844 704.505C286.389 696.409 308.18 687.69 329.97 678.972C349.098 691.572 370.432 700.446 392.851 705.128C403.255 707.598 413.91 708.852 424.603 708.865H440.79C446.393 708.242 451.374 708.242 456.355 707.619C476.997 705.217 497.035 699.098 515.5 689.559C533.367 680.473 549.743 668.712 564.062 654.683C577.441 640.8 588.763 625.071 597.681 607.975C606.069 591.724 611.947 574.296 615.114 556.284L616.981 543.206C617.499 538.867 617.707 534.496 617.604 530.128C618.538 521.85 618.538 513.494 617.604 505.216ZM366.08 533.241C362.755 533.241 359.505 532.255 356.741 530.408C353.976 528.56 351.822 525.934 350.55 522.861C349.277 519.789 348.944 516.408 349.593 513.146C350.242 509.884 351.843 506.888 354.194 504.536C356.544 502.185 359.54 500.583 362.8 499.934C366.061 499.286 369.441 499.619 372.513 500.891C375.584 502.164 378.21 504.319 380.057 507.084C381.904 509.85 382.89 513.101 382.89 516.426C382.804 520.859 381.005 525.086 377.871 528.221C374.737 531.356 370.511 533.155 366.08 533.241ZM416.509 533.241C413.185 533.241 409.935 532.255 407.17 530.408C404.406 528.56 402.251 525.934 400.979 522.861C399.707 519.789 399.374 516.408 400.022 513.146C400.671 509.884 402.272 506.888 404.623 504.536C406.974 502.185 409.969 500.583 413.23 499.934C416.491 499.286 419.87 499.619 422.942 500.891C426.014 502.164 428.639 504.319 430.486 507.084C432.333 509.85 433.319 513.101 433.319 516.426C433.233 520.859 431.434 525.086 428.3 528.221C425.166 531.356 420.94 533.155 416.509 533.241ZM499.313 530.75H462.58C458.783 530.75 455.14 529.241 452.455 526.555C449.77 523.869 448.261 520.225 448.261 516.426C448.261 512.627 449.77 508.984 452.455 506.298C455.14 503.612 458.783 502.102 462.58 502.102H499.313C501.202 502.071 503.078 502.421 504.829 503.129C506.581 503.838 508.172 504.892 509.508 506.228C510.844 507.565 511.897 509.156 512.606 510.908C513.314 512.66 513.663 514.537 513.632 516.426C513.59 520.212 512.068 523.831 509.392 526.508C506.715 529.186 503.098 530.708 499.313 530.75Z" fill="#8798A0"/>
<path opacity="0.15" d="M328.102 458.508C269.579 470.341 207.943 496.497 180.549 550.056C173.071 566.893 167.233 584.412 163.117 602.37C148.798 659.043 135.723 721.32 161.249 774.257C176.814 806.641 206.698 831.552 239.072 847.744C271.447 863.937 306.934 873.278 342.421 881.997C371.222 890.345 400.885 895.359 430.828 896.944C457.035 897.696 483.131 893.239 507.604 883.832C532.077 874.424 554.441 860.253 573.4 842.139C592.156 823.823 606.67 801.617 615.92 777.085C625.171 752.553 628.933 726.29 626.942 700.146C624.232 676.43 618.369 653.182 609.51 631.018C598.926 602.37 586.474 573.722 564.061 552.547C552.298 541.772 539.348 532.37 525.461 524.522C493.709 503.971 460.712 477.191 425.225 461.622C392.228 446.675 362.344 458.508 328.102 458.508Z" fill="#8798A0"/>
<circle cx="416.613" cy="511.912" r="111.961" fill="#8798A0"/>
<path d="M443.17 599.066C470.134 593.666 505 574.267 505 524.108C505 478.469 471.592 448.071 447.569 434.106C442.23 431.001 435.994 435.081 435.994 441.248V457.016C435.994 469.455 430.766 492.158 416.24 501.603C408.822 506.425 400.8 499.205 399.903 490.407L399.161 483.178C398.299 474.777 389.742 469.679 383.031 474.803C370.964 483.989 358.361 500.12 358.361 524.099C358.361 585.437 403.983 600.783 426.79 600.783C428.124 600.783 429.516 600.74 430.965 600.653C419.699 599.696 401.49 592.709 401.49 570.109C401.49 552.426 414.386 540.48 424.185 534.657C426.824 533.105 429.904 535.132 429.904 538.194V543.283C429.904 547.165 431.413 553.246 434.993 557.403C439.047 562.113 444.99 557.179 445.465 550.986C445.62 549.036 447.587 547.794 449.277 548.778C454.806 552.012 461.871 558.913 461.871 570.109C461.871 587.775 452.132 595.9 443.17 599.066Z" fill="#DCDFE0"/>
</g>
<defs>
<clipPath id="clip0_417_17">
<rect width="836" height="897" fill="white"/>
</clipPath>
</defs>
</svg>
