<svg width="134.279" height="144.032" viewBox="0 0 837 898" fill="none" xmlns="http://www.w3.org/2000/svg">
<g clip-path="url(#clip0_418_180)">
<path d="M786.378 132.828C786.378 132.828 765.833 120.372 742.797 169.572C730.54 194.728 720.136 220.747 711.668 247.419C711.668 247.419 705.442 258.006 697.971 251.156C690.5 244.928 680.539 226.245 668.709 229.981C656.258 233.718 653.145 248.042 656.258 267.971C659.371 287.9 664.351 332.74 664.974 336.477C665.596 340.213 663.106 346.441 657.503 342.704C651.9 338.968 618.903 305.338 603.961 321.53C589.019 338.345 606.451 392.527 608.319 398.754C610.187 404.982 608.941 407.473 606.451 408.719C603.338 410.587 593.377 398.132 584.038 388.79C574.077 379.448 561.625 370.729 553.531 380.694C545.438 391.281 544.193 432.384 586.528 498.399L607.696 527.669L643.806 524.556C721.006 512.723 751.513 484.698 754.003 471.619C756.494 458.541 740.929 454.804 727.855 454.182C714.158 452.936 698.593 453.559 697.971 450.445C697.348 447.331 698.593 444.84 704.197 442.349C709.8 439.858 762.72 417.438 765.21 395.018C767.7 372.598 720.384 370.107 714.158 368.238C707.932 366.37 711.045 360.765 714.158 358.897C717.271 356.405 754.004 331.494 771.436 320.284C788.868 309.074 796.962 297.242 791.981 286.031C787 274.821 766.455 279.181 757.116 277.935C747.778 276.69 751.513 265.48 751.513 265.48C765.676 241.362 778.359 216.405 789.491 190.746C809.413 140.301 785.755 132.828 786.378 132.828Z" fill="#F5F5F5"/>
<path d="M765.833 177.045C765.787 177.523 765.565 177.968 765.21 178.291C764.588 178.914 764.588 180.159 763.965 181.405C762.72 183.896 760.852 188.255 758.984 193.238C754.626 203.202 747.778 218.149 739.684 236.832C723.497 273.576 700.461 324.021 674.935 379.448C649.409 434.875 626.374 485.321 609.564 521.442C601.47 539.502 594.622 554.449 590.264 564.413C587.774 569.396 585.906 573.132 584.661 576.246C584.082 577.211 583.661 578.262 583.416 579.36C584.038 578.737 584.038 577.492 584.661 576.246C585.906 573.755 587.774 569.396 589.641 564.413C593.999 554.449 600.848 539.502 608.941 520.819C625.129 484.075 648.164 433.63 673.69 378.203C699.216 322.775 722.252 272.33 739.062 236.209C747.155 218.149 754.004 203.202 758.362 193.238C760.852 188.255 762.72 184.519 763.965 181.405C764.544 180.44 764.964 179.389 765.21 178.291C765.276 177.819 765.494 177.381 765.833 177.045Z" fill="#E0E0E0"/>
<path d="M681.784 256.761C682.365 257.497 682.789 258.345 683.029 259.252C683.651 261.12 684.274 262.989 685.519 266.103C687.387 271.708 689.877 279.804 692.368 288.523C694.858 297.241 696.726 305.338 698.593 310.943C699.216 313.434 699.839 315.925 700.461 317.793C700.777 318.593 700.986 319.43 701.084 320.284C700.503 319.548 700.079 318.7 699.839 317.793C699.216 315.925 698.593 314.057 697.348 310.943C694.869 303.587 692.791 296.103 691.122 288.523C688.632 279.804 686.764 271.708 684.897 266.103C684.274 263.611 683.651 261.12 683.029 259.252C682.318 258.606 681.874 257.717 681.784 256.761Z" fill="#E0E0E0"/>
<path d="M703.574 321.53C715.368 316.704 727.423 312.545 739.684 309.074C751.681 304.572 763.95 300.828 776.417 297.864C764.623 302.69 752.567 306.849 740.307 310.32C720.384 316.548 703.574 321.53 703.574 321.53Z" fill="#E0E0E0"/>
<path d="M660.616 404.982H670.577C676.803 404.982 684.896 404.359 694.235 403.737C703.574 403.114 712.29 401.868 717.893 401.245C720.352 400.754 722.859 400.545 725.364 400.623H727.855C727.001 400.72 726.164 400.93 725.364 401.245C723.497 401.868 721.006 401.868 717.893 402.491C711.668 403.114 703.574 404.359 694.235 404.982C684.896 405.605 676.18 405.605 669.954 405.605H662.483C661.91 405.271 661.275 405.059 660.616 404.982Z" fill="#E0E0E0"/>
<path d="M627.619 350.8C628.123 351.359 628.542 351.989 628.864 352.669C629.958 354.634 631.207 356.508 632.599 358.274C635.712 363.256 640.07 369.484 644.428 376.957C648.786 384.43 653.145 391.281 656.258 395.64C657.503 398.132 658.748 400 659.37 401.245C659.993 402.491 660.616 403.114 660.616 403.737C660.112 403.178 659.692 402.548 659.37 401.868C658.276 399.903 657.027 398.029 655.635 396.263C652.522 391.281 648.164 385.053 643.806 377.58C639.448 370.107 635.09 363.256 631.977 358.897C630.732 356.405 629.486 354.537 628.864 353.292C628.624 352.385 628.2 351.537 627.619 350.8Z" fill="#E0E0E0"/>
<path d="M580.303 419.929C580.994 420.705 581.619 421.538 582.17 422.42C583.416 424.288 585.283 426.779 587.151 429.27C590.887 435.498 596.49 443.594 602.716 452.936C608.942 462.278 613.922 470.997 617.658 477.224C619.526 480.338 620.771 482.829 622.016 484.698C623.261 486.566 623.884 487.189 623.261 487.189C622.569 486.413 621.944 485.579 621.393 484.698C620.148 482.829 618.28 480.338 616.413 477.847C612.677 471.619 607.074 463.523 600.848 454.182C594.622 444.84 589.642 436.121 585.906 429.893C584.038 426.779 582.793 424.288 581.548 422.42C581.308 421.513 580.884 420.665 580.303 419.929Z" fill="#E0E0E0"/>
<path d="M623.261 485.321C624.323 485.266 625.372 485.056 626.374 484.698C628.864 484.698 631.977 484.075 635.712 484.075C643.183 483.452 654.39 482.829 666.219 481.584C678.048 480.338 688.632 479.093 696.726 477.847C700.461 477.224 703.574 477.224 706.064 476.602C707.932 476.602 709.177 475.979 709.177 476.602C708.196 477.028 707.134 477.24 706.064 477.224C703.006 478.095 699.883 478.72 696.726 479.093C689.255 480.338 678.048 481.584 666.219 482.829C654.39 484.075 643.806 484.698 635.712 485.321H626.374C625.372 485.708 624.262 485.708 623.261 485.321Z" fill="#E0E0E0"/>
<path opacity="0.16" d="M607.696 279.181C567.228 281.672 523.647 292.259 501.857 320.907C495.663 329.772 490.64 339.401 486.915 349.555C473.84 381.317 460.766 416.192 474.463 448.577C484.851 469.471 501.65 486.493 522.402 497.153C544.033 508.57 566.771 517.752 590.264 524.556C609.523 531.346 629.303 536.553 649.409 540.125C684.271 545.075 719.761 537.578 749.645 518.951C763.125 510.659 774.335 499.148 782.267 485.452C790.2 471.755 794.608 456.302 795.094 440.48C794.783 426.471 792.262 412.599 787.623 399.377C783.18 381.353 774.42 364.681 762.097 350.8C754.69 343.545 746.553 337.076 737.816 331.494C717.271 317.17 696.103 299.733 673.69 287.9C651.899 277.313 630.732 281.672 607.696 279.181Z" fill="#516972"/>
<path d="M426.524 718.24C532.363 647.866 557.889 513.968 555.399 393.772C554.777 373.843 557.889 352.669 547.928 334.608C538.589 316.548 516.176 304.715 497.499 312.811C482.557 319.661 475.708 337.099 466.992 350.8C455.107 369.667 438.322 384.95 418.431 395.018C405.356 401.245 389.169 404.982 376.717 398.132C359.285 388.167 357.417 364.502 358.04 344.573C358.662 307.206 359.908 269.839 360.53 233.095C362.024 213.235 360.343 193.263 355.55 173.931C349.324 154.625 335.627 137.187 316.949 131.582C297.649 125.977 273.991 136.565 269.633 155.871C267.765 163.967 269.633 172.686 268.388 180.782C267.765 188.878 263.407 198.22 255.936 200.088C247.842 202.579 239.749 196.351 234.146 190.746C213.6 170.195 199.903 144.038 186.829 117.881C173.755 91.7246 161.303 64.9452 143.248 43.1479C124.571 20.7279 98.4222 3.29012 69.7833 0.79901C41.1444 -1.06933 9.39264 15.7457 1.92162 43.7707C-5.54939 71.7957 10.6378 100.444 28.0702 123.486C54.3833 157.808 85.646 188.031 120.835 213.166C127.674 216.979 133.125 222.868 136.4 229.981C140.758 243.06 127.684 256.138 113.987 260.498C99.0448 265.48 82.235 263.611 66.6704 264.857C51.1058 266.725 33.6734 272.953 27.4476 287.9C18.7314 308.451 35.5412 329.626 52.351 343.95C86.0267 372.49 124.354 395.031 165.661 410.587C180.603 416.192 196.168 421.174 207.997 431.762C219.826 442.349 226.675 460.409 219.204 474.11C211.733 487.812 193.055 492.171 177.49 489.057C161.926 485.943 148.229 477.224 133.287 471.619C105.893 461.032 69.7833 462.278 51.7284 485.943C39.8993 501.513 38.6541 523.31 44.2574 541.993C50.7759 560.438 60.9391 577.382 74.1414 591.816C117.559 644.9 174.274 685.516 238.504 709.521C302.007 733.809 361.775 740.66 426.524 718.24Z" fill="#EBEBEB"/>
<path d="M417.808 720.731C400.998 659.698 354.304 516.459 326.288 449.199C319.44 432.384 312.591 415.569 305.743 399.377C298.894 383.185 292.046 366.993 284.575 351.423C270.076 321.531 253.646 292.614 235.391 264.857C218.581 238.078 201.149 213.166 185.584 190.124C169.397 167.081 153.832 145.906 138.89 127.223C115.388 97.6136 89.5733 69.9168 61.6897 44.3935C52.351 35.6746 44.88 28.8241 39.2767 23.8418C37.3927 21.9552 35.3045 20.2841 33.0509 18.8596C35.0114 20.8516 37.0905 22.7234 39.2767 24.4646C44.2574 29.4468 52.351 36.2974 61.6897 45.0163C89.0931 70.8609 114.485 98.7593 137.645 128.469C152.587 147.152 167.529 168.326 183.716 191.369C199.903 214.412 216.713 239.323 233.523 266.103C251.207 293.878 267.417 322.565 282.085 352.046C289.556 367.615 296.404 383.808 303.252 400C310.101 416.192 316.949 433.007 323.798 449.822C351.191 517.082 397.885 660.321 415.318 721.353" fill="#E0E0E0"/>
<path d="M283.952 350.8C283.952 350.8 284.575 347.687 285.82 342.082C287.065 336.477 288.31 328.38 289.555 318.416C292.668 298.487 295.781 271.085 299.517 240.569C303.252 210.053 306.988 182.65 310.723 162.721C312.591 152.757 313.836 144.661 315.081 139.679C316.327 134.074 316.949 130.96 316.327 130.96C315.332 133.605 314.5 136.309 313.836 139.056C312.591 144.661 310.723 152.134 308.233 162.099C303.875 182.028 300.139 209.43 296.404 239.946C292.668 269.839 289.555 297.241 287.065 317.793C285.82 327.135 284.575 335.231 283.952 341.459C283.952 347.687 283.952 350.8 283.952 350.8Z" fill="#E0E0E0"/>
<path d="M24.957 299.11C25.8108 299.208 26.6481 299.417 27.4474 299.733C29.3151 299.733 31.8055 300.355 34.9184 300.355C41.7668 300.978 51.1056 301.601 62.9347 303.469C86.5929 306.583 119.59 311.565 155.077 318.416C191.187 325.889 222.939 333.985 245.974 340.213C257.804 343.327 266.52 346.441 273.368 348.309C275.819 349.081 278.314 349.705 280.839 350.178C281.638 350.493 282.476 350.703 283.329 350.8C282.593 350.219 281.746 349.795 280.839 349.555C278.415 348.537 275.918 347.704 273.368 347.064C264.6 343.7 255.664 340.79 246.597 338.345C223.561 331.494 191.187 322.775 155.7 315.925C120.212 308.452 87.2155 303.469 63.5573 300.978C51.7282 299.733 41.7668 299.11 34.9184 299.11H27.4474C25.5796 298.487 24.957 299.11 24.957 299.11Z" fill="#E0E0E0"/>
<path d="M392.905 637.901C393.469 636.829 394.092 635.79 394.773 634.787C396.018 632.296 397.263 629.182 399.131 625.446C402.866 617.35 408.469 605.517 414.695 591.193C427.77 561.922 444.579 520.819 462.012 475.356C480.067 429.893 496.254 388.79 508.705 359.519C514.931 345.195 519.912 333.363 523.647 324.644C525.216 321.669 526.468 318.538 527.383 315.302C527.556 314.183 527.981 313.118 528.628 312.188C528.064 313.26 527.441 314.3 526.76 315.302C525.515 317.793 524.27 320.907 522.402 324.644C518.667 332.74 513.064 344.573 506.838 358.897C493.763 388.167 476.954 429.271 459.521 474.733C441.466 519.573 425.279 560.677 412.827 589.947C406.602 604.271 401.621 616.104 397.885 624.823C396.317 627.797 395.065 630.928 394.15 634.165C393.482 635.311 393.058 636.583 392.905 637.901Z" fill="#E0E0E0"/>
<path d="M49.2378 522.687C50.4391 523.224 51.6903 523.641 52.9733 523.933C55.4636 524.556 58.5766 525.801 62.9346 527.047C72.2734 530.161 84.7251 534.52 99.6671 539.502C130.796 550.089 173.755 565.036 221.071 581.228C268.387 598.043 311.346 612.367 342.475 622.332C358.04 627.314 371.114 631.051 379.83 633.542C383.229 634.308 386.561 635.349 389.791 636.656C391.01 636.998 392.263 637.207 393.527 637.278C392.326 636.742 391.074 636.325 389.791 636.033C387.301 635.41 384.188 634.165 379.83 632.919C370.491 629.805 358.04 625.446 343.098 620.463C311.968 609.876 269.01 594.929 221.694 578.737C174.377 561.922 131.419 547.598 100.29 537.634C84.7251 532.652 71.6508 528.915 62.9346 526.424C59.5352 525.658 56.2038 524.617 52.9733 523.31C51.7544 522.967 50.5019 522.758 49.2378 522.687Z" fill="#E0E0E0"/>
<path d="M681.784 696.442H718.516C722.314 696.442 725.956 697.951 728.642 700.638C731.327 703.324 732.836 706.967 732.836 710.766C732.836 714.565 731.327 718.208 728.642 720.895C725.956 723.581 722.314 725.09 718.516 725.09H681.784C677.986 725.09 674.344 723.581 671.658 720.895C668.973 718.208 667.464 714.565 667.464 710.766C667.464 706.967 668.973 703.324 671.658 700.638C674.344 697.951 677.986 696.442 681.784 696.442Z" fill="#455B64"/>
<path d="M635.712 693.951C639.037 693.951 642.287 694.937 645.051 696.785C647.816 698.633 649.97 701.259 651.242 704.331C652.515 707.404 652.848 710.785 652.199 714.047C651.55 717.308 649.949 720.305 647.599 722.656C645.248 725.008 642.252 726.609 638.992 727.258C635.731 727.907 632.351 727.574 629.279 726.301C626.208 725.029 623.583 722.873 621.735 720.108C619.888 717.343 618.902 714.092 618.902 710.766C618.893 708.556 619.322 706.365 620.164 704.321C621.005 702.277 622.243 700.419 623.806 698.856C625.368 697.293 627.225 696.055 629.269 695.213C631.312 694.371 633.502 693.942 635.712 693.951Z" fill="#455B64"/>
<path d="M585.283 693.951C588.608 693.951 591.858 694.937 594.622 696.785C597.386 698.633 599.541 701.259 600.813 704.331C602.086 707.404 602.418 710.785 601.77 714.047C601.121 717.308 599.52 720.305 597.169 722.656C594.818 725.008 591.823 726.609 588.562 727.258C585.302 727.907 581.922 727.574 578.85 726.301C575.779 725.029 573.153 722.873 571.306 720.108C569.459 717.343 568.473 714.092 568.473 710.766C568.464 708.556 568.893 706.365 569.734 704.321C570.576 702.277 571.814 700.419 573.377 698.856C574.939 697.293 576.796 696.055 578.84 695.213C580.883 694.371 583.073 693.942 585.283 693.951Z" fill="#455B64"/>
<path d="M650.032 524.556H630.732C628.242 525.178 625.129 525.178 622.638 525.801C619.526 526.424 616.413 526.424 612.677 527.047C609.564 527.669 605.829 528.915 602.093 529.538C583.474 534.176 565.786 541.97 549.796 552.581C528.213 566.21 509.755 584.25 495.631 605.517C478.505 631.426 468.027 661.158 465.125 692.083C464.287 700.567 464.079 709.102 464.502 717.617C464.399 721.986 464.607 726.356 465.125 730.695L466.992 743.773C473.758 780.953 491.546 815.237 518.044 842.172C532.481 856.061 548.834 867.806 566.606 877.048C585.105 886.503 605.127 892.617 625.751 895.109C630.872 896.141 636.097 896.559 641.316 896.354C646.694 896.977 652.125 896.977 657.503 896.354C668.15 895.724 678.752 894.476 689.255 892.618C711.905 887.723 733.441 878.64 752.759 865.838H750.891C772.681 874.557 794.472 883.276 815.64 891.995L819.375 893.24L818.13 889.504C811.282 865.838 805.056 842.795 798.83 820.375L798.207 822.244C815.726 798.895 827.654 771.836 833.072 743.151C835.74 729.833 836.578 716.214 835.562 702.67C835.588 696.188 834.962 689.72 833.695 683.364C832.975 680.298 832.558 677.169 832.449 674.022C831.912 670.838 831.078 667.71 829.959 664.681C819.02 622.02 793.462 584.552 757.739 558.808C744.438 549.362 730.007 541.621 714.781 535.766C711.668 534.52 707.933 533.274 704.82 532.029C701.707 531.406 698.594 530.161 695.481 529.538C692.368 528.915 689.878 528.292 686.765 527.669C684.274 527.047 681.161 527.047 679.294 526.424C674.313 525.801 669.955 525.178 666.219 524.556C663.093 524.703 659.96 524.494 656.881 523.933H651.277C651.277 524.556 650.032 524.556 650.032 524.556H651.9C653.787 524.516 655.671 524.725 657.503 525.178C659.994 525.178 663.106 525.801 666.842 525.801C671.229 526.204 675.592 526.828 679.916 527.669C707.74 532.576 734.117 543.64 757.117 560.054C792.24 585.47 817.178 622.557 827.469 664.681C828.091 667.795 829.336 670.908 829.959 674.022C830.582 677.136 830.582 680.25 831.204 683.364C832.165 689.762 832.788 696.206 833.072 702.67C833.776 716.008 832.94 729.382 830.582 742.528C825.376 770.788 813.652 797.444 796.34 820.375L795.717 820.998V822.244C801.943 844.664 808.169 867.706 814.394 891.995L816.885 889.504C795.717 880.785 773.926 872.066 752.136 863.347L750.891 862.724L750.268 863.347C731.307 875.835 710.199 884.703 688.01 889.504C677.817 891.973 667.368 893.227 656.881 893.24H641.316C636.108 893.135 630.91 892.719 625.751 891.995C605.602 889.51 586.023 883.613 567.851 874.557C550.163 865.744 533.983 854.183 519.912 840.304C493.971 814.041 476.419 780.659 469.483 744.396L467.615 731.318C467.112 727.186 466.904 723.024 466.992 718.862C466.569 710.555 466.778 702.227 467.615 693.951C470.516 663.508 480.772 634.228 497.499 608.631C511.539 587.89 529.52 570.115 550.419 556.317C566.194 545.726 583.674 537.931 602.093 533.274C605.829 532.029 609.564 531.406 612.677 530.161C615.79 529.538 619.526 528.915 622.016 528.292C624.668 527.619 627.378 527.202 630.109 527.047C632.6 527.047 635.09 526.424 636.958 526.424C640.693 526.424 643.806 525.801 646.297 525.801C647.622 525.682 648.901 525.256 650.032 524.556Z" fill="#455B64"/>
<path d="M617.658 505.872C614.651 474.97 604.182 445.263 587.151 419.306C572.861 398.178 554.434 380.169 532.986 366.37C516.859 356.014 499.214 348.239 480.689 343.327C477.218 342.271 473.683 341.439 470.105 340.836C466.824 340.152 463.492 339.736 460.144 339.59C457.031 338.968 454.541 338.968 452.05 338.345H445.824C441.466 338.345 437.108 337.722 432.75 337.722C428.383 337.619 424.014 337.827 419.676 338.345H415.318C410.931 338.748 406.567 339.372 402.243 340.213C399.753 340.836 397.263 340.836 394.772 341.459C392.282 342.081 389.169 342.704 386.056 343.327C382.873 343.865 379.746 344.699 376.717 345.818C373.605 347.064 370.492 348.309 366.756 349.555C351.47 355.278 337.022 363.028 323.798 372.598C287.209 397.05 261.194 434.416 250.955 477.224C250.333 480.338 249.088 483.452 248.465 486.566C247.745 489.632 247.328 492.761 247.22 495.908C245.982 502.269 245.357 508.734 245.352 515.214C244.648 528.758 245.483 542.339 247.843 555.694C253.039 584.147 264.76 611.007 282.085 634.164C275.859 656.585 269.633 679.005 263.407 702.67L262.162 706.407L265.898 705.161C286.443 697.065 308.233 688.346 330.024 679.627C349.151 692.228 370.485 701.102 392.905 705.784C403.309 708.254 413.964 709.508 424.656 709.521H440.844C446.447 708.898 451.428 708.898 456.408 708.275C477.051 705.873 497.089 699.754 515.554 690.215C533.42 681.128 549.796 669.368 564.115 655.339C577.495 641.456 588.817 625.727 597.735 608.631C606.123 592.38 612 574.952 615.167 556.94L617.035 543.862C617.553 539.523 617.761 535.152 617.658 530.783C618.591 522.506 618.591 514.15 617.658 505.872ZM366.134 533.897C362.809 533.897 359.559 532.911 356.795 531.063C354.03 529.216 351.876 526.59 350.603 523.517C349.331 520.444 348.998 517.064 349.647 513.802C350.295 510.54 351.896 507.544 354.247 505.192C356.598 502.841 359.593 501.239 362.854 500.59C366.115 499.941 369.495 500.274 372.566 501.547C375.638 502.82 378.263 504.975 380.11 507.74C381.957 510.505 382.943 513.757 382.943 517.082C382.857 521.515 381.059 525.742 377.925 528.877C374.791 532.012 370.565 533.811 366.134 533.897ZM416.563 533.897C413.238 533.897 409.988 532.911 407.224 531.063C404.46 529.216 402.305 526.59 401.033 523.517C399.76 520.444 399.428 517.064 400.076 513.802C400.725 510.54 402.326 507.544 404.677 505.192C407.027 502.841 410.023 501.239 413.283 500.59C416.544 499.941 419.924 500.274 422.996 501.547C426.067 502.82 428.693 504.975 430.54 507.74C432.387 510.505 433.373 513.757 433.373 517.082C433.287 521.515 431.488 525.742 428.354 528.877C425.22 532.012 420.994 533.811 416.563 533.897ZM499.367 531.406H462.634C458.836 531.406 455.194 529.897 452.509 527.211C449.823 524.524 448.315 520.881 448.315 517.082C448.315 513.283 449.823 509.64 452.509 506.954C455.194 504.267 458.836 502.758 462.634 502.758H499.367C501.256 502.727 503.132 503.076 504.883 503.785C506.634 504.494 508.225 505.548 509.561 506.884C510.897 508.221 511.951 509.812 512.66 511.564C513.368 513.316 513.717 515.193 513.686 517.082C513.644 520.868 512.122 524.487 509.445 527.164C506.769 529.841 503.151 531.364 499.367 531.406Z" fill="#8798A0"/>
<path opacity="0.15" d="M328.156 459.164C269.633 470.997 207.997 497.153 180.603 550.712C173.125 567.549 167.287 585.068 163.171 603.026C148.851 659.698 135.777 721.976 161.303 774.912C176.868 807.297 206.752 832.208 239.126 848.4C271.5 864.592 306.988 873.934 342.475 882.653C371.276 891 400.939 896.015 430.882 897.6C457.089 898.352 483.185 893.895 507.658 884.488C532.131 875.08 554.494 860.909 573.454 842.795C592.209 824.479 606.723 802.273 615.974 777.741C625.225 753.208 628.987 726.946 626.996 700.802C624.286 677.086 618.423 653.838 609.564 631.673C598.98 603.026 586.528 574.378 564.115 553.203C552.352 542.428 539.402 533.026 525.515 525.178C493.763 504.627 460.766 477.847 425.279 462.278C392.282 447.331 362.398 459.164 328.156 459.164Z" fill="#8798A0"/>
<circle cx="416.667" cy="512.568" r="111.961" fill="#8798A0"/>
<path fill-rule="evenodd" clip-rule="evenodd" d="M510.525 547.125C513.975 551.812 516.808 556.924 518.953 562.335C520.275 565.653 520.741 569.251 520.309 572.797C519.961 576.595 518.624 580.237 516.434 583.357C514.239 586.472 511.311 589.001 507.909 590.719C504.878 592.152 501.574 592.912 498.222 592.947H469.74C469.237 595.569 468.494 598.12 467.512 600.6C465.57 605.347 462.706 609.66 459.084 613.291C451.89 620.426 442.188 624.46 432.056 624.529H430.506C425.691 624.499 420.915 623.54 416.459 621.719C411.673 619.849 407.353 616.972 403.768 613.291C400.068 609.678 397.162 605.318 395.243 600.504C394.242 598.075 393.532 595.556 393.112 592.947H365.793C362.225 593.232 358.641 592.628 355.362 591.192C352.083 589.755 349.21 587.529 347 584.713C344.91 581.31 343.6 577.486 343.164 573.516C342.729 569.546 343.178 565.529 344.481 561.753C346.574 556.149 349.444 550.866 353.006 546.06C357.086 541.123 359.822 535.217 360.95 528.913C360.95 500.916 360.95 491.422 376.159 473.21C381.21 467.141 387.525 462.248 394.662 458.872L402.218 455.191C402.558 454.994 402.855 454.73 403.09 454.416C403.432 454.032 403.666 453.564 403.768 453.059C404.889 446.657 408.297 440.878 413.357 436.798C418.417 432.718 424.786 430.613 431.281 430.875C437.993 430.407 444.635 432.478 449.892 436.676C455.149 440.875 458.637 446.895 459.665 453.544C459.745 453.902 459.911 454.234 460.15 454.513C460.391 454.908 460.723 455.24 461.119 455.481L468.19 458.872C475.252 462.282 481.522 467.133 486.597 473.113C501.903 491.422 501.903 500.916 501.903 528.913C503.164 535.624 506.133 541.897 510.525 547.125Z" fill="#DCDFE0"/>
<rect x="420.624" y="487.097" width="22.2214" height="61.8511" rx="11.1107" fill="#8798A0"/>
<rect x="420.624" y="557.644" width="21.7041" height="21.7041" rx="10.852" fill="#8798A0"/>
</g>
<defs>
<clipPath id="clip0_418_180">
<rect width="836" height="897" fill="white" transform="translate(0.0537109 0.655792)"/>
</clipPath>
</defs>
</svg>
