<svg width="30" height="30" viewBox="0 0 30 30" fill="none" xmlns="http://www.w3.org/2000/svg">
<path fill-rule="evenodd" clip-rule="evenodd" d="M10.443 26.0547C6.0285 22.4577 0 16.5132 0 10.8897C0 2.0247 8.25 -2.0058 15 5.2497C21.75 -2.0058 30 2.0232 30 10.8897C30 16.5117 23.97 22.4562 19.557 26.0547C17.559 27.6867 16.56 28.4997 15 28.4997C13.44 28.4997 12.441 27.6852 10.443 26.0547ZM12.1395 13.1187C12.2725 12.9287 12.3875 12.7662 12.4845 12.6312C12.5685 12.7782 12.663 12.9477 12.7755 13.1532L15.3405 17.8182C15.5895 18.2712 15.8355 18.7152 16.08 19.0377C16.3425 19.3827 16.803 19.8552 17.5425 19.8702C18.282 19.8837 18.762 19.4277 19.0365 19.0932C19.2945 18.7797 19.554 18.3462 19.821 17.9022L19.9035 17.7627C20.235 17.2122 20.4435 16.8657 20.628 16.6167C20.7975 16.3872 20.8965 16.3122 20.97 16.2717C21.0435 16.2297 21.1575 16.1832 21.4425 16.1562C21.7515 16.1262 22.1535 16.1262 22.7985 16.1262H24C24.2984 16.1262 24.5845 16.0077 24.7955 15.7967C25.0065 15.5857 25.125 15.2996 25.125 15.0012C25.125 14.7028 25.0065 14.4167 24.7955 14.2057C24.5845 13.9947 24.2984 13.8762 24 13.8762H22.749C22.1685 13.8762 21.654 13.8762 21.225 13.9167C20.7466 13.948 20.2808 14.0831 19.86 14.3127C19.447 14.5553 19.0918 14.885 18.819 15.2787C18.5625 15.6252 18.2985 16.0662 18 16.5642L17.928 16.6842C17.7975 16.9002 17.6895 17.0802 17.592 17.2362L17.277 16.6707L14.7135 12.0087C14.4825 11.5887 14.253 11.1687 14.019 10.8612C13.764 10.5267 13.326 10.0812 12.624 10.0452C11.9235 10.0062 11.4405 10.4007 11.151 10.7067C10.8855 10.9872 10.611 11.3787 10.3365 11.7717L9.8715 12.4347C9.531 12.9222 9.3165 13.2252 9.132 13.4442C8.9625 13.6452 8.868 13.7112 8.7975 13.7472C8.7285 13.7847 8.6205 13.8237 8.358 13.8477C8.073 13.8732 7.701 13.8747 7.107 13.8747H6C5.70163 13.8747 5.41548 13.9932 5.2045 14.2042C4.99353 14.4152 4.875 14.7013 4.875 14.9997C4.875 15.2981 4.99353 15.5842 5.2045 15.7952C5.41548 16.0062 5.70163 16.1247 6 16.1247H7.152C7.6875 16.1247 8.163 16.1247 8.562 16.0887C8.997 16.0482 9.4185 15.9612 9.837 15.7437C10.257 15.5247 10.5705 15.2292 10.851 14.8962C11.1105 14.5902 11.382 14.2017 11.6895 13.7622L12.1395 13.1187Z" fill="#109BB4"/>
</svg>
