<svg width="40" height="40" viewBox="0 0 40 40" fill="none" xmlns="http://www.w3.org/2000/svg">
<path fill-rule="evenodd" clip-rule="evenodd" d="M31.75 4C33.1424 4 34.4777 4.53936 35.4623 5.49943C36.4469 6.45951 37 7.76164 37 9.11939V26.184C37 27.5418 36.4469 28.8439 35.4623 29.804C34.4777 30.764 33.1424 31.3034 31.75 31.3034H11.3328L5.5 35.5696C4.058 36.6241 2 35.6207 2 33.8631V9.11939C2 7.76164 2.55312 6.45951 3.53769 5.49943C4.52226 4.53936 5.85761 4 7.25 4H31.75ZM17.75 19.3582H12.5C12.0359 19.3582 11.5908 19.5379 11.2626 19.858C10.9344 20.178 10.75 20.612 10.75 21.0646C10.75 21.5172 10.9344 21.9513 11.2626 22.2713C11.5908 22.5913 12.0359 22.7711 12.5 22.7711H17.75C18.2141 22.7711 18.6592 22.5913 18.9874 22.2713C19.3156 21.9513 19.5 21.5172 19.5 21.0646C19.5 20.612 19.3156 20.178 18.9874 19.858C18.6592 19.5379 18.2141 19.3582 17.75 19.3582ZM26.5 12.5323H12.5C12.054 12.5328 11.6249 12.6993 11.3006 12.9979C10.9763 13.2965 10.7811 13.7046 10.7549 14.1388C10.7288 14.573 10.8737 15.0005 11.16 15.334C11.4462 15.6676 11.8523 15.8819 12.2952 15.9333L12.5 15.9452H26.5C26.946 15.9448 27.3751 15.7782 27.6994 15.4796C28.0237 15.1811 28.2189 14.773 28.245 14.3388C28.2712 13.9046 28.1263 13.477 27.84 13.1435C27.5538 12.81 27.1477 12.5956 26.7048 12.5443L26.5 12.5323Z" fill="#7C7C7C"/>
</svg>
