<svg xmlns="http://www.w3.org/2000/svg" width="31" height="31" viewBox="0 0 31 31">
  <path id="Promotors" d="M11.492.519a15.5,15.5,0,1,1-9.4,7.22,15.5,15.5,0,0,1,9.4-7.22ZM7.728,17.712a9.58,9.58,0,0,0,2.1,2.017,10.182,10.182,0,0,0,5.944,1.79,9.592,9.592,0,0,0,5.74-1.946A8.46,8.46,0,0,0,23.3,17.7a.055.055,0,0,1,.076-.015l.585.577a.053.053,0,0,1,0,.068,10.959,10.959,0,0,1-3.353,3.61,9,9,0,0,1-4.79,1.513,9.282,9.282,0,0,1-4.923-1.324,11.975,11.975,0,0,1-3.857-3.764.058.058,0,0,1,0-.068l.6-.595a.055.055,0,0,1,.076,0h0Zm11.5-9.179c1.024,0,1.853,1.2,1.853,2.685S20.252,13.9,19.228,13.9s-1.853-1.2-1.853-2.682S18.2,8.533,19.228,8.533Zm-7.457,0c1.024,0,1.853,1.2,1.853,2.685S12.795,13.9,11.771,13.9s-1.853-1.2-1.853-2.682.829-2.685,1.853-2.685ZM22.385,3.554a13.775,13.775,0,1,0,6.411,8.36,13.775,13.775,0,0,0-6.411-8.36Z" transform="translate(-0.015 0.014)" fill="#7cbf9e"/>
</svg>
