<svg xmlns="http://www.w3.org/2000/svg" width="31" height="31" viewBox="0 0 31 31">
  <g id="res-yellow" transform="translate(-391 -729.999)">
    <path id="Passives" d="M11.492.519a15.5,15.5,0,1,1-9.4,7.22,15.5,15.5,0,0,1,9.4-7.22Zm7.737,8.014c1.024,0,1.853,1.2,1.853,2.685S20.252,13.9,19.228,13.9s-1.853-1.2-1.853-2.682S18.2,8.533,19.228,8.533Zm-7.457,0c1.024,0,1.853,1.2,1.853,2.685S12.795,13.9,11.771,13.9s-1.853-1.2-1.853-2.682.829-2.685,1.853-2.685ZM22.385,3.554a13.775,13.775,0,1,0,6.411,8.36,13.775,13.775,0,0,0-6.411-8.36Z" transform="translate(390.985 730.014)" fill="#f9ab4f"/>
    <line id="Line_406" data-name="Line 406" x2="15" transform="translate(399 750.5)" fill="none" stroke="#f9ab4f" stroke-linecap="round" stroke-width="1.5"/>
  </g>
</svg>
