<svg xmlns="http://www.w3.org/2000/svg" width="31" height="31" viewBox="0 0 31 31">
  <path id="Detracters" d="M11.491.531A15.449,15.449,0,0,1,23.25,2.081l.046.028A15.491,15.491,0,0,1,28.92,23.248l-.028.046a15.491,15.491,0,0,1-19.654,6.38A15.617,15.617,0,0,1,5.826,27.6,15.5,15.5,0,0,1,11.491.531ZM7.97,22.913a.187.187,0,0,1-.265,0l-.584-.58a.189.189,0,0,1-.024-.248A10.708,10.708,0,0,1,9.33,19.83a10.2,10.2,0,0,1,6.152-2.017,10.464,10.464,0,0,1,6.144,2.036A10.871,10.871,0,0,1,23.9,22.115a.187.187,0,0,1-.015.249l-.561.559a.189.189,0,0,1-.266,0c-.123-.12-.245-.237-.375-.349a11.227,11.227,0,0,0-7.208-2.423,10.622,10.622,0,0,0-7.123,2.391c-.134.121-.256.243-.381.371ZM20.708,8.873a3.7,3.7,0,0,1,0,3.934,1.646,1.646,0,0,1-2.878,0,3.7,3.7,0,0,1,0-3.934A1.645,1.645,0,0,1,20.708,8.873Zm-7.309,0a3.7,3.7,0,0,1,0,3.934,1.646,1.646,0,0,1-2.878,0,3.7,3.7,0,0,1,0-3.934A1.645,1.645,0,0,1,13.4,8.873ZM22.426,3.5A13.853,13.853,0,0,0,7.136,26.543a13.955,13.955,0,0,0,2.935,1.7,13.857,13.857,0,0,0,17.4-5.778l.022-.041a13.855,13.855,0,0,0-5.03-18.9L22.426,3.5Z" transform="translate(-0.001 0)" fill="#f24f4f"/>
</svg>
