<svg width="25" height="24" viewBox="0 0 25 24" fill="none" xmlns="http://www.w3.org/2000/svg">
<g clip-path="url(#clip0_267_52)">
<path d="M19.9121 0.74707C19.314 0.747089 18.7227 0.874245 18.1775 1.12011C17.6323 1.36597 17.1455 1.72492 16.7495 2.17316C16.3535 2.6214 16.0574 3.14869 15.8806 3.72008C15.7039 4.29146 15.6507 4.89388 15.7244 5.48741L8.77544 8.96178C8.17933 8.38697 7.42727 8.00024 6.61294 7.84976C5.79861 7.69929 4.958 7.79173 4.19583 8.11556C3.43366 8.43939 2.78361 8.9803 2.32666 9.67091C1.86972 10.3615 1.62607 11.1713 1.62607 11.9994C1.62607 12.8275 1.86972 13.6373 2.32666 14.3279C2.78361 15.0185 3.43366 15.5594 4.19583 15.8832C4.958 16.2071 5.79861 16.2995 6.61294 16.149C7.42727 15.9986 8.17933 15.6118 8.77544 15.037L15.7244 18.5114C15.6013 19.4992 15.8314 20.4987 16.374 21.3332C16.9166 22.1678 17.7367 22.7837 18.6895 23.0721C19.6423 23.3605 20.6663 23.3028 21.5807 22.9092C22.495 22.5156 23.2408 21.8114 23.6862 20.9212C24.1316 20.031 24.2479 19.0119 24.0146 18.0442C23.7813 17.0765 23.2134 16.2224 22.4113 15.6329C21.6092 15.0434 20.6245 14.7564 19.6313 14.8226C18.638 14.8889 17.7001 15.3041 16.9834 15.9949L10.0344 12.5206C10.0774 12.1749 10.0774 11.8253 10.0344 11.4796L16.9834 8.00527C17.4807 8.48458 18.0881 8.83451 18.7522 9.02433C19.4163 9.21416 20.1168 9.23808 20.7923 9.09401C21.4678 8.94993 22.0976 8.64226 22.6265 8.19799C23.1553 7.75372 23.567 7.18645 23.8255 6.54594C24.0839 5.90544 24.1812 5.2113 24.1088 4.52443C24.0364 3.83756 23.7964 3.17897 23.4101 2.60646C23.0237 2.03395 22.5027 1.56502 21.8928 1.24083C21.283 0.916634 20.6028 0.747088 19.9121 0.74707Z" fill="#2C2C2C"/>
</g>
<defs>
<clipPath id="clip0_267_52">
<rect width="24" height="24" fill="white" transform="translate(0.87912)"/>
</clipPath>
</defs>
</svg>
