<svg width="40" height="40" viewBox="0 0 40 40" fill="none" xmlns="http://www.w3.org/2000/svg">
<path fill-rule="evenodd" clip-rule="evenodd" d="M12.6 37.0315C13.56 37.4899 14.6104 37.7281 15.6743 37.7286H30.9486C32.6518 37.7286 34.299 37.12 35.593 36.0124C36.8871 34.9049 37.7427 33.3715 38.0057 31.6886L39.7943 20.2515C39.9222 19.4361 39.872 18.6027 39.6471 17.8086C39.4222 17.0145 39.0279 16.2785 38.4914 15.6513C37.9549 15.0241 37.2889 14.5206 36.5392 14.1754C35.7895 13.8301 34.9739 13.6514 34.1486 13.6515H24.7714V6.92006C24.7728 5.89168 24.4327 4.89196 23.8044 4.07777C23.1762 3.26358 22.2955 2.681 21.3004 2.42144C20.3053 2.16188 19.2522 2.24004 18.3064 2.64365C17.3605 3.04726 16.5754 3.75348 16.0743 4.65149L10.14 15.2515C9.78192 15.8914 9.59402 16.6125 9.59428 17.3458V32.8943C9.59415 33.7038 9.82326 34.4967 10.2551 35.1813C10.6869 35.866 11.3038 36.4143 12.0343 36.7629L12.6 37.0315ZM2.98285 15.7743C2.6089 15.774 2.23855 15.8473 1.89296 15.9901C1.54738 16.133 1.23333 16.3425 0.968778 16.6068C0.704226 16.8711 0.494357 17.1849 0.351167 17.5304C0.207978 17.8758 0.134277 18.2461 0.134277 18.6201V33.2258C0.134277 33.9813 0.434394 34.7058 0.968605 35.24C1.50282 35.7742 2.22736 36.0743 2.98285 36.0743H4.39999C4.77887 36.0743 5.14224 35.9238 5.41014 35.6559C5.67805 35.388 5.82856 35.0247 5.82856 34.6458V17.2001C5.82856 16.8212 5.67805 16.4578 5.41014 16.1899C5.14224 15.922 4.77887 15.7715 4.39999 15.7715L2.98285 15.7743Z" fill="#B9B9B9"/>
</svg>
