<svg width="25" height="24" viewBox="0 0 25 24" fill="none" xmlns="http://www.w3.org/2000/svg">
<g clip-path="url(#clip0_308_105)">
<path fill-rule="evenodd" clip-rule="evenodd" d="M23.2159 12.0011L23.9311 11.6426V11.6392L23.9259 11.634L23.9156 11.6133L23.8794 11.5444L23.7415 11.2962C23.5733 11.006 23.3945 10.7221 23.2055 10.4449C22.575 9.51941 21.8502 8.66178 21.0428 7.88578C19.1023 6.02459 16.1158 4.12549 12.0143 4.12549C7.9162 4.12549 4.92796 6.02287 2.98749 7.88578C2.18005 8.66178 1.45525 9.51941 0.824717 10.4449C0.568869 10.8224 0.331908 11.2124 0.114707 11.6133L0.104367 11.634L0.100921 11.6392V11.6409C0.100921 11.6409 0.0991976 11.6426 0.814378 12.0011L0.0991974 11.6409C0.0439034 11.7526 0.0151367 11.8756 0.0151367 12.0002C0.0151367 12.1249 0.0439034 12.2478 0.0991974 12.3595L0.0974742 12.363L0.102644 12.3682L0.112984 12.3888C0.16672 12.4965 0.2242 12.6023 0.285317 12.7059C1.02738 13.9595 1.93514 15.1072 2.98404 16.1181C4.92623 17.9793 7.91276 19.875 12.0143 19.875C16.1141 19.875 19.1023 17.9793 21.0445 16.1164C21.8504 15.3395 22.5746 14.4819 23.2055 13.5572C23.4472 13.2015 23.672 12.8346 23.8794 12.4578L23.9156 12.3888L23.9259 12.3682L23.9293 12.363V12.3613C23.9293 12.3613 23.9311 12.3595 23.2159 12.0011ZM23.2159 12.0011L23.9311 12.3613C23.9864 12.2496 24.0151 12.1266 24.0151 12.0019C24.0151 11.8773 23.9864 11.7543 23.9311 11.6426L23.2159 12.0011ZM11.9109 9.35406C11.2088 9.35406 10.5356 9.63294 10.0391 10.1294C9.54273 10.6258 9.26384 11.299 9.26384 12.0011C9.26384 12.7031 9.54273 13.3764 10.0391 13.8728C10.5356 14.3692 11.2088 14.6481 11.9109 14.6481C12.6129 14.6481 13.2862 14.3692 13.7826 13.8728C14.279 13.3764 14.5579 12.7031 14.5579 12.0011C14.5579 11.299 14.279 10.6258 13.7826 10.1294C13.2862 9.63294 12.6129 9.35406 11.9109 9.35406ZM7.66804 12.0011C7.66804 10.8749 8.11542 9.79485 8.91175 8.99852C9.70808 8.20219 10.7881 7.75481 11.9143 7.75481C13.0405 7.75481 14.1206 8.20219 14.9169 8.99852C15.7132 9.79485 16.1606 10.8749 16.1606 12.0011C16.1606 13.1273 15.7132 14.2073 14.9169 15.0037C14.1206 15.8 13.0405 16.2474 11.9143 16.2474C10.7881 16.2474 9.70808 15.8 8.91175 15.0037C8.11542 14.2073 7.66804 13.1273 7.66804 12.0011Z" fill="#2C2C2C"/>
</g>
<defs>
<clipPath id="clip0_308_105">
<rect width="24" height="24" fill="white" transform="translate(0.0151367)"/>
</clipPath>
</defs>
</svg>
