<svg width="40" height="40" viewBox="0 0 40 40" fill="none" xmlns="http://www.w3.org/2000/svg">
<g clip-path="url(#clip0_20_42)">
<path d="M8.99365 21.4582L16.6172 13.7587C17.4377 12.9417 18.8776 12.9555 19.7122 13.7587C20.2215 14.2572 20.4337 14.9634 20.2922 15.6558L18.7067 22.1018H26.6995C29.741 22.1018 32.0339 25.0445 30.8455 27.7864L26.2338 38.3244C25.7811 39.3353 24.7625 40 23.6308 40H10.8989C9.34277 40 8.06958 38.7537 8.06958 37.2305V23.3967C8.06958 22.6627 8.47023 21.9706 8.99365 21.4582Z" fill="#D39339"/>
<path d="M8.82879 21.5323L16.2457 14.1153C17.0222 13.3255 18.2807 13.3255 19.0705 14.102C19.5525 14.5839 19.7533 15.2667 19.6194 15.9361L18.3476 22.0678H25.9118C28.7902 22.0678 30.7314 25.0131 29.6068 27.6639L25.2424 37.8522C24.814 38.8295 23.85 39.4721 22.779 39.4721H10.7299C9.25721 39.4721 8.05229 38.2672 8.05229 36.7945V23.42C8.05229 22.7104 8.33344 22.0276 8.82879 21.5323Z" fill="#FEC676"/>
<path d="M5.83636 35.779C5.83636 37.2517 4.63145 38.4566 3.15878 38.4566C1.68611 38.4566 0.481201 37.2517 0.481201 35.779V25.0687C0.481201 23.596 1.68611 22.3911 3.15878 22.3911C4.63145 22.3911 5.83636 23.596 5.83636 25.0687V35.779Z" fill="#2196F3"/>
<path fill-rule="evenodd" clip-rule="evenodd" d="M30.9103 0.000860901C26.1557 0.000860901 22.3017 3.85493 22.3017 8.60947C22.3009 9.87784 22.5805 11.1307 23.1203 12.2785L22.3197 16.1842C22.2912 16.3236 22.2978 16.468 22.3387 16.6043C22.3797 16.7406 22.4538 16.8646 22.5544 16.9653C22.6551 17.0659 22.7791 17.1401 22.9154 17.181C23.0518 17.222 23.1961 17.2285 23.3356 17.2L27.2413 16.3994C28.3552 16.9245 29.6 17.2172 30.9103 17.2172C35.6648 17.2172 39.5188 13.364 39.5188 8.60861C39.5188 3.85493 35.6648 0 30.9103 0" fill="#FA4748"/>
<path d="M27.0063 6.1344H34.8136" stroke="white" stroke-linecap="round"/>
<path d="M27.0063 8.60876H34.8136" stroke="white" stroke-linecap="round"/>
<path d="M27.0063 11.083H34.8136" stroke="white" stroke-linecap="round"/>
<path fill-rule="evenodd" clip-rule="evenodd" d="M8.59782 4.51625C11.3501 4.51625 13.5812 6.7473 13.5812 9.49961C13.5816 10.2338 13.4198 10.9591 13.1073 11.6235L13.5707 13.8845C13.5872 13.9652 13.5834 14.0488 13.5597 14.1277C13.536 14.2066 13.4931 14.2784 13.4348 14.3366C13.3766 14.3949 13.3048 14.4378 13.2259 14.4615C13.147 14.4852 13.0634 14.489 12.9827 14.4725L10.7217 14.0091C10.0769 14.313 9.35629 14.4825 8.59782 14.4825C5.84552 14.4825 3.61447 12.2519 3.61447 9.49911C3.61447 6.7473 5.84552 4.51575 8.59782 4.51575" fill="#00A891"/>
<path d="M10.2952 8.06239C10.2876 8.06307 10.2806 8.06652 10.2754 8.07209L8.2393 10.2866L6.90052 9.02697C6.89494 9.0218 6.88766 9.0189 6.88009 9.01881C6.53113 9.01618 6.45056 9.34644 6.62021 9.50636L7.87295 10.6849L8.06114 10.8616C8.11574 10.9129 8.18827 10.9403 8.26279 10.9375C8.3373 10.9348 8.4077 10.9023 8.4585 10.8471L8.63316 10.6567L9.61109 9.59316L10.589 8.52963C10.747 8.35738 10.6428 8.03429 10.2952 8.06239Z" fill="white"/>
</g>
<defs>
<clipPath id="clip0_20_42">
<rect width="40" height="40" fill="white"/>
</clipPath>
</defs>
</svg>
