<svg width="40" height="40" viewBox="0 0 40 40" fill="none" xmlns="http://www.w3.org/2000/svg">
<path d="M29.973 27.0361L30.1104 34.1945L20.3198 27.0361H10.027C4.48975 27.0361 0 22.3862 0 16.6515C0 13.7841 1.12344 11.188 2.93653 9.30812C4.75162 7.43036 7.25837 6.26685 10.027 6.26685H29.973C35.5102 6.26685 40 10.9167 40 16.6515C40 19.5189 38.8766 22.115 37.0635 23.9949C35.2484 25.8726 32.7416 27.0361 29.973 27.0361Z" fill="#00839E"/>
<path d="M7.76009 18.2444C9.0253 18.2444 10.0509 17.2418 10.0509 16.0052C10.0509 14.7685 9.0253 13.766 7.76009 13.766C6.49489 13.766 5.46924 14.7685 5.46924 16.0052C5.46924 17.2418 6.49489 18.2444 7.76009 18.2444Z" fill="#00839E"/>
<path d="M15.994 18.2444C17.2592 18.2444 18.2848 17.2418 18.2848 16.0052C18.2848 14.7685 17.2592 13.766 15.994 13.766C14.7288 13.766 13.7031 14.7685 13.7031 16.0052C13.7031 17.2418 14.7288 18.2444 15.994 18.2444Z" fill="#00839E"/>
<path d="M24.2299 18.2444C25.4951 18.2444 26.5207 17.2418 26.5207 16.0052C26.5207 14.7685 25.4951 13.766 24.2299 13.766C22.9647 13.766 21.939 14.7685 21.939 16.0052C21.939 17.2418 22.9647 18.2444 24.2299 18.2444Z" fill="#00839E"/>
<path d="M32.2658 18.2444C33.531 18.2444 34.5567 17.2418 34.5567 16.0052C34.5567 14.7685 33.531 13.766 32.2658 13.766C31.0006 13.766 29.975 14.7685 29.975 16.0052C29.975 17.2418 31.0006 18.2444 32.2658 18.2444Z" fill="#00839E"/>
<path d="M30.0525 25.4071H30.0446L30.0882 32.5682L20.4759 25.4071H10.2647C4.77141 25.4071 0.317261 21.0186 0.317261 15.6063C0.317261 12.9001 1.43179 10.4499 3.2305 8.67572C5.0312 6.90352 7.51806 5.80542 10.2647 5.80542H30.0525C35.5459 5.80542 40 10.1939 40 15.6063C40 18.3124 38.8855 20.7626 37.0868 22.5368C35.2861 24.309 32.7992 25.4071 30.0525 25.4071Z" fill="#00AFD2"/>
<circle cx="9.49344" cy="16.5154" r="2.04062" fill="white"/>
<circle cx="16.4978" cy="16.5154" r="2.04062" fill="white"/>
<circle cx="23.5022" cy="16.5154" r="2.04062" fill="white"/>
<circle cx="30.5066" cy="16.5154" r="2.04062" fill="white"/>
</svg>
