<svg width="40" height="40" viewBox="0 0 40 40" fill="none" xmlns="http://www.w3.org/2000/svg">
<g clip-path="url(#clip0_20_32)">
<path opacity="0.45" d="M19.6938 39.2992C30.5703 39.2992 39.3875 33.4534 39.3875 26.2423C39.3875 19.0311 30.5703 13.1853 19.6938 13.1853C8.81719 13.1853 0 19.0311 0 26.2423C0 33.4534 8.81719 39.2992 19.6938 39.2992Z" fill="#E2E2E2"/>
<path d="M23.5925 24.7971C19.9937 28.5063 16.7196 25.5664 16.0702 24.907C16.0336 24.8719 16.005 24.8292 15.9863 24.7817C15.9676 24.7343 15.9593 24.6833 15.9619 24.6323C16.4219 16.3346 10.5502 21.6924 10.009 11.334C9.46781 0.893283 19.7772 0.700954 19.7772 0.700954C19.7772 0.700954 29.2208 0.618526 29.4913 9.6855C29.7619 18.725 23.5655 19.302 23.809 22.5716V22.6265L23.5384 24.7971H23.5925Z" fill="#F8D100"/>
<path d="M18.2078 25.0993L15.9078 12.6254C15.9013 12.6041 15.9018 12.5812 15.9091 12.5602C15.9165 12.5392 15.9303 12.5212 15.9486 12.5088C15.9668 12.4965 15.9885 12.4904 16.0105 12.4916C16.0324 12.4928 16.0533 12.5012 16.0702 12.5155L18.2078 14.2464L19.5878 10.9219C19.6076 10.8769 19.6374 10.8372 19.675 10.8061C19.7125 10.7749 19.7568 10.7532 19.8041 10.7425C19.8515 10.7318 19.9006 10.7325 19.9476 10.7446C19.9946 10.7566 20.0382 10.7797 20.0749 10.812L21.3737 11.8835L23.3219 8.42158C23.3329 8.4054 23.3487 8.39327 23.367 8.38702C23.3853 8.38078 23.4052 8.38076 23.4235 8.38696C23.4418 8.39317 23.4577 8.40526 23.4686 8.42142C23.4796 8.43758 23.4851 8.45693 23.4843 8.47653L21.3737 23.6981" stroke="white" stroke-miterlimit="10"/>
<path d="M19.7502 26.9952C22.2907 26.9952 24.3502 25.9496 24.3502 24.6598C24.3502 23.3699 22.2907 22.3243 19.7502 22.3243C17.2097 22.3243 15.1502 23.3699 15.1502 24.6598C15.1502 25.9496 17.2097 26.9952 19.7502 26.9952Z" fill="#234CCA"/>
<path d="M19.7502 28.369C22.2907 28.369 24.3502 27.3234 24.3502 26.0336C24.3502 24.7437 22.2907 23.6981 19.7502 23.6981C17.2097 23.6981 15.1502 24.7437 15.1502 26.0336C15.1502 27.3234 17.2097 28.369 19.7502 28.369Z" fill="#467DE0"/>
<path d="M19.7502 29.468C22.2907 29.468 24.3502 28.4224 24.3502 27.1326C24.3502 25.8427 22.2907 24.7971 19.7502 24.7971C17.2097 24.7971 15.1502 25.8427 15.1502 27.1326C15.1502 28.4224 17.2097 29.468 19.7502 29.468Z" fill="#9FB3D3"/>
<path d="M19.7502 30.2922C22.2907 30.2922 24.3502 29.2466 24.3502 27.9568C24.3502 26.6669 22.2907 25.6213 19.7502 25.6213C17.2097 25.6213 15.1502 26.6669 15.1502 27.9568C15.1502 29.2466 17.2097 30.2922 19.7502 30.2922Z" fill="#234CCA"/>
<path d="M19.7502 31.3913C22.2907 31.3913 24.3502 30.3457 24.3502 29.0559C24.3502 27.7661 22.2907 26.7205 19.7502 26.7205C17.2097 26.7205 15.1502 27.7661 15.1502 29.0559C15.1502 30.3457 17.2097 31.3913 19.7502 31.3913Z" fill="#467DE0"/>
<path d="M19.7502 32.4903C22.2907 32.4903 24.3502 31.4447 24.3502 30.1549C24.3502 28.8651 22.2907 27.8195 19.7502 27.8195C17.2097 27.8195 15.1502 28.8651 15.1502 30.1549C15.1502 31.4447 17.2097 32.4903 19.7502 32.4903Z" fill="#234CCA"/>
</g>
<defs>
<clipPath id="clip0_20_32">
<rect width="40" height="40" fill="white"/>
</clipPath>
</defs>
</svg>
