<svg width="40" height="40" viewBox="0 0 40 40" fill="none" xmlns="http://www.w3.org/2000/svg">
<path d="M6.42667 21.1146H0V34.5696H6.42667V21.1146Z" fill="#FA4748"/>
<path d="M6.42667 21.1538H0L2.4 19.6675H8.82667L6.42667 21.1538Z" fill="#A61717"/>
<path d="M8.82667 19.6675L6.42667 21.1147V34.5697L8.98667 33.0834L8.90667 19.6675H8.82667Z" fill="#CE2223"/>
<path d="M27.0667 25.1825H20.64V35H27.0667V25.1825Z" fill="#00AFD2"/>
<path d="M29.4134 24.1265H23.04L20.64 25.2216H27.0667L29.44 24.1656C29.44 24.1604 29.4393 24.1554 29.438 24.1506C29.4366 24.1459 29.4347 24.1416 29.4322 24.1379C29.4297 24.1343 29.4268 24.1314 29.4236 24.1294C29.4203 24.1275 29.4169 24.1265 29.4134 24.1265Z" fill="#005869"/>
<path d="M29.6267 24.2047C29.5733 24.2047 29.52 24.1656 29.4667 24.1656C29.44 24.1656 29.4133 24.1656 29.4133 24.1265L27.0667 25.1825V35L29.6267 33.9048V24.2047Z" fill="#00839E"/>
<path d="M37.44 7.89441H31.0133V34.1004H37.44V7.89441Z" fill="#F7B000"/>
<path d="M39.76 5.07825H33.4133L31.0133 7.97264H37.44L39.84 5.07825H39.76Z" fill="#7C5800"/>
<path d="M39.7867 5.03911L37.44 7.85528V34.0613L40 31.1669V5.03911C39.9453 5.04531 39.8904 5.03189 39.84 5C39.8133 5.03911 39.8133 5.03911 39.7867 5.03911Z" fill="#B98400"/>
<path d="M16.72 13.644H10.2933V34.5306H16.72V13.644Z" fill="#00A891"/>
<path d="M19.0933 11.4146H12.6667L10.2667 13.7222H16.6933L19.0933 11.4146Z" fill="#005449"/>
<path d="M19.2533 11.4146H19.0933L16.7467 13.6831V34.5697L19.3067 32.262V11.4537C19.2864 11.4496 19.2677 11.4358 19.2533 11.4146Z" fill="#007E6D"/>
</svg>
