<svg width="40" height="40" viewBox="0 0 40 40" fill="none" xmlns="http://www.w3.org/2000/svg">
<g clip-path="url(#clip0_20_2)">
<path d="M19.7279 23.5747C21.6873 23.5747 23.2757 21.9868 23.2757 20.028C23.2757 18.0692 21.6873 16.4813 19.7279 16.4813C17.7685 16.4813 16.1801 18.0692 16.1801 20.028C16.1801 21.9868 17.7685 23.5747 19.7279 23.5747Z" fill="#00A891"/>
<path d="M7.16759 20.262C9.12697 20.262 10.7154 18.6741 10.7154 16.7153C10.7154 14.7565 9.12697 13.1686 7.16759 13.1686C5.2082 13.1686 3.61981 14.7565 3.61981 16.7153C3.61981 18.6741 5.2082 20.262 7.16759 20.262Z" fill="#00A891"/>
<path d="M32.9364 20.3061C34.8958 20.3061 36.4842 18.7181 36.4842 16.7594C36.4842 14.8006 34.8958 13.2126 32.9364 13.2126C30.9771 13.2126 29.3887 14.8006 29.3887 16.7594C29.3887 18.7181 30.9771 20.3061 32.9364 20.3061Z" fill="#00A891"/>
<path d="M40 26.8193C40 24.0408 37.7469 21.7883 34.9675 21.7883H30.8014C28.8744 21.7883 27.2016 22.8705 26.3552 24.4589C26.1171 24.905 26.2171 25.4511 26.5753 25.8051C27.4958 26.7173 28.066 27.9816 28.066 29.3778V33.6727H28.068V33.8387C28.068 34.6909 28.9705 35.239 29.7269 34.8469L39.3857 29.8379C39.7619 29.6419 39.998 29.2538 39.998 28.8297V26.8173L40 26.8193Z" fill="#00A891"/>
<path d="M11.2816 33.6288V29.3779C11.2816 27.7956 12.014 26.3833 13.1566 25.4611C13.6108 25.0951 13.6908 24.4309 13.3607 23.9488C12.4562 22.6186 10.9295 21.7444 9.1986 21.7444H5.03252C2.25313 21.7444 0 23.9968 0 26.7754V28.8038C0 29.2179 0.226113 29.6 0.590295 29.8L9.5988 34.731C10.3552 35.1451 11.2796 34.597 11.2796 33.7348V33.6288H11.2816Z" fill="#00A891"/>
<path d="M26.8014 30.8262V30.068C26.8014 28.3957 25.993 26.9134 24.7443 25.9892C23.9339 25.3871 22.9354 25.021 21.8549 24.995C21.8129 24.995 21.7689 24.995 21.7248 24.995H17.6688C17.6228 24.995 17.5788 24.995 17.5347 24.995C16.6923 25.017 15.9019 25.243 15.2096 25.6271C13.6468 26.4933 12.5903 28.1576 12.5903 30.068V35.6971C12.5903 36.1112 12.8164 36.4933 13.1806 36.6933L18.9695 39.862C19.3016 40.044 19.7018 40.048 20.038 39.874L26.2111 36.6733C26.5873 36.4773 26.8234 36.0892 26.8234 35.6651V30.8262H26.8014Z" fill="#00A891"/>
<path d="M20.0146 1.87211e-05C16.5498 -0.00829319 13.734 2.75224 13.7261 6.16599C13.7182 9.57974 16.5203 12.3538 19.9853 12.3621C23.4503 12.3704 26.2659 9.60973 26.2739 6.19598C26.2818 2.78223 23.4796 0.00833063 20.0146 1.87211e-05ZM23.6003 4.44086L20.0666 8.26548L19.7509 8.60773C19.6591 8.707 19.5319 8.7655 19.3973 8.77039C19.2627 8.77528 19.1316 8.72615 19.033 8.63381L18.693 8.31617L16.4296 6.19744C16.122 5.90995 16.2677 5.31622 16.8992 5.32094C16.9129 5.32103 16.926 5.32626 16.9361 5.33561L19.355 7.59955L23.0337 3.61814C23.0431 3.60818 23.0558 3.60203 23.0694 3.60087C23.6979 3.55035 23.8857 4.13185 23.6003 4.44086Z" fill="#F7B000"/>
</g>
<defs>
<clipPath id="clip0_20_2">
<rect width="40" height="40" fill="white"/>
</clipPath>
</defs>
</svg>
