<svg width="19" height="21" viewBox="0 0 19 21" fill="none" xmlns="http://www.w3.org/2000/svg">
<path fill-rule="evenodd" clip-rule="evenodd" d="M9.54939 0.643753H9.45059C8.59654 0.643753 7.88499 0.643753 7.32069 0.719753C6.72409 0.799553 6.18544 0.976253 5.75319 1.4085C5.31999 1.8417 5.14329 2.38035 5.06349 2.976C4.98749 3.54126 4.98749 4.25376 4.98749 5.10686V5.18096C3.06754 5.24366 1.91424 5.46786 1.11339 6.26966C-1.5372e-05 7.38211 -1.52588e-05 9.17381 -1.52588e-05 12.7563C-1.52588e-05 16.3387 -1.5372e-05 18.1304 1.11339 19.2429C2.22679 20.3553 4.01754 20.3563 7.59999 20.3563H11.4C14.9824 20.3563 16.7741 20.3563 17.8866 19.2429C18.999 18.1295 19 16.3387 19 12.7563C19 9.17381 19 7.38211 17.8866 6.26966C17.0857 5.46786 15.9324 5.24366 14.0125 5.18096V5.10686C14.0125 4.25376 14.0125 3.54126 13.9365 2.97695C13.8567 2.38035 13.68 1.8417 13.2468 1.40945C12.8145 0.976253 12.2759 0.799553 11.6793 0.719753C11.115 0.643753 10.4025 0.643753 9.54939 0.643753ZM12.5875 5.15816V5.15626C12.5875 4.24046 12.5856 3.62486 12.5248 3.166C12.4649 2.72805 12.3633 2.53995 12.2398 2.41645C12.1163 2.29295 11.9282 2.1913 11.4893 2.13145C11.0314 2.07065 10.4158 2.06875 9.49999 2.06875C8.58419 2.06875 7.96859 2.07065 7.50974 2.1324C7.07179 2.1913 6.88369 2.29295 6.76019 2.4174C6.63669 2.54185 6.53504 2.72805 6.47519 3.166C6.41534 3.62486 6.41249 4.24046 6.41249 5.15626V5.15816C6.78426 5.15689 7.18009 5.15626 7.59999 5.15626H11.4C11.8193 5.15626 12.2151 5.15689 12.5875 5.15816ZM14.25 8.00626C14.25 8.25821 14.1499 8.49985 13.9717 8.67801C13.7936 8.85617 13.552 8.95626 13.3 8.95626C13.048 8.95626 12.8064 8.85617 12.6282 8.67801C12.4501 8.49985 12.35 8.25821 12.35 8.00626C12.35 7.7543 12.4501 7.51267 12.6282 7.33451C12.8064 7.15635 13.048 7.05626 13.3 7.05626C13.552 7.05626 13.7936 7.15635 13.9717 7.33451C14.1499 7.51267 14.25 7.7543 14.25 8.00626ZM5.69999 8.95626C5.95195 8.95626 6.19358 8.85617 6.37174 8.67801C6.5499 8.49985 6.64999 8.25821 6.64999 8.00626C6.64999 7.7543 6.5499 7.51267 6.37174 7.33451C6.19358 7.15635 5.95195 7.05626 5.69999 7.05626C5.44803 7.05626 5.2064 7.15635 5.02824 7.33451C4.85008 7.51267 4.74999 7.7543 4.74999 8.00626C4.74999 8.25821 4.85008 8.49985 5.02824 8.67801C5.2064 8.85617 5.44803 8.95626 5.69999 8.95626Z" fill="#9D9D9D"/>
</svg>
