<svg width="20" height="19" viewBox="0 0 20 19" fill="none" xmlns="http://www.w3.org/2000/svg">
<path d="M5.59582 9.95767H15.3333V11.7197H16.2833V9.04235H10.9395V7.21172H9.98955V9.04235H4.64583V11.7197H5.59582V9.95767Z" fill="#9D9D9D"/>
<path d="M8.08959 12.3604H2.15212C1.83718 12.3604 1.53514 12.4809 1.31244 12.6955C1.08974 12.91 0.96463 13.2011 0.96463 13.5045V16.937C0.96463 17.2404 1.08974 17.5314 1.31244 17.746C1.53514 17.9606 1.83718 18.0811 2.15212 18.0811H8.08959C8.40454 18.0811 8.70658 17.9606 8.92928 17.746C9.15198 17.5314 9.27709 17.2404 9.27709 16.937V13.5045C9.27709 13.2011 9.15198 12.91 8.92928 12.6955C8.70658 12.4809 8.40454 12.3604 8.08959 12.3604ZM2.15212 16.937V13.5045H8.08959V16.937H2.15212Z" fill="#9D9D9D"/>
<path d="M18.7771 12.3604H12.8396C12.5247 12.3604 12.2227 12.4809 12 12.6955C11.7773 12.91 11.6521 13.2011 11.6521 13.5045V16.937C11.6521 17.2404 11.7773 17.5314 12 17.746C12.2227 17.9606 12.5247 18.0811 12.8396 18.0811H18.7771C19.0921 18.0811 19.3941 17.9606 19.6168 17.746C19.8395 17.5314 19.9646 17.2404 19.9646 16.937V13.5045C19.9646 13.2011 19.8395 12.91 19.6168 12.6955C19.3941 12.4809 19.0921 12.3604 18.7771 12.3604ZM12.8396 16.937V13.5045H18.7771V16.937H12.8396Z" fill="#9D9D9D"/>
<path d="M7.49589 6.63965H13.4334C13.7483 6.63965 14.0503 6.51911 14.273 6.30454C14.4957 6.08997 14.6209 5.79895 14.6209 5.49551V2.06306C14.6209 1.75962 14.4957 1.4686 14.273 1.25403C14.0503 1.03946 13.7483 0.918915 13.4334 0.918915H7.49589C7.18095 0.918915 6.8789 1.03946 6.6562 1.25403C6.43351 1.4686 6.3084 1.75962 6.3084 2.06306V5.49551C6.3084 5.79895 6.43351 6.08997 6.6562 6.30454C6.8789 6.51911 7.18095 6.63965 7.49589 6.63965ZM7.49589 2.06306H13.4334V5.49551H7.49589V2.06306Z" fill="#9D9D9D"/>
</svg>
