<svg width="21" height="21" viewBox="0 0 21 21" fill="none" xmlns="http://www.w3.org/2000/svg">
<path d="M10.9868 0.256836C5.45676 0.256836 0.986755 4.72684 0.986755 10.2568C0.986755 15.7868 5.45676 20.2568 10.9868 20.2568C16.5168 20.2568 20.9868 15.7868 20.9868 10.2568C20.9868 4.72684 16.5168 0.256836 10.9868 0.256836ZM15.2868 14.5568C15.1942 14.6495 15.0844 14.7231 14.9634 14.7733C14.8424 14.8234 14.7127 14.8493 14.5818 14.8493C14.4508 14.8493 14.3211 14.8234 14.2001 14.7733C14.0792 14.7231 13.9693 14.6495 13.8768 14.5568L10.9868 11.6668L8.09676 14.5568C7.90978 14.7438 7.65618 14.8489 7.39176 14.8489C7.12733 14.8489 6.87373 14.7438 6.68676 14.5568C6.49978 14.3699 6.39473 14.1163 6.39473 13.8518C6.39473 13.7209 6.42052 13.5913 6.47063 13.4703C6.52073 13.3493 6.59417 13.2394 6.68676 13.1468L9.57676 10.2568L6.68676 7.36684C6.49978 7.17986 6.39473 6.92626 6.39473 6.66184C6.39473 6.39741 6.49978 6.14381 6.68676 5.95684C6.87373 5.76986 7.12733 5.66482 7.39176 5.66482C7.65618 5.66482 7.90978 5.76986 8.09676 5.95684L10.9868 8.84684L13.8768 5.95684C13.9693 5.86425 14.0792 5.79081 14.2002 5.74071C14.3212 5.6906 14.4508 5.66482 14.5818 5.66482C14.7127 5.66482 14.8423 5.6906 14.9633 5.74071C15.0843 5.79081 15.1942 5.86425 15.2868 5.95684C15.3793 6.04942 15.4528 6.15933 15.5029 6.28029C15.553 6.40126 15.5788 6.53091 15.5788 6.66184C15.5788 6.79277 15.553 6.92241 15.5029 7.04338C15.4528 7.16434 15.3793 7.27425 15.2868 7.36684L12.3968 10.2568L15.2868 13.1468C15.6668 13.5268 15.6668 14.1668 15.2868 14.5568Z" fill="#FF8585"/>
</svg>
