<svg width="13" height="14" viewBox="0 0 13 14" fill="none" xmlns="http://www.w3.org/2000/svg">
<path d="M6.51497 10.2555C6.69871 10.2555 6.85283 10.1932 6.97735 10.0687C7.10186 9.94423 7.1639 9.79032 7.16346 9.60701V7.01301C7.16346 6.82927 7.10121 6.67536 6.9767 6.55128C6.85218 6.4272 6.69827 6.36494 6.51497 6.36451C6.33166 6.36408 6.17775 6.42633 6.05323 6.55128C5.92872 6.67622 5.86647 6.83013 5.86647 7.01301V9.60701C5.86647 9.79075 5.92872 9.94487 6.05323 10.0694C6.17775 10.1939 6.33166 10.2559 6.51497 10.2555ZM6.51497 5.06751C6.69871 5.06751 6.85283 5.00525 6.97735 4.88074C7.10186 4.75623 7.1639 4.60232 7.16346 4.41901C7.16303 4.2357 7.10078 4.08179 6.9767 3.95728C6.85262 3.83277 6.69871 3.77051 6.51497 3.77051C6.33122 3.77051 6.17731 3.83277 6.05323 3.95728C5.92915 4.08179 5.8669 4.2357 5.86647 4.41901C5.86603 4.60232 5.92829 4.75645 6.05323 4.88139C6.17818 5.00634 6.33209 5.06838 6.51497 5.06751ZM6.51497 13.498C5.61787 13.498 4.77483 13.3277 3.98582 12.987C3.19681 12.6463 2.51048 12.1844 1.92683 11.6011C1.34318 11.0179 0.881233 10.3316 0.540987 9.54216C0.200741 8.75272 0.0304014 7.90967 0.0299691 7.01301C0.0295367 6.11635 0.199876 5.2733 0.540987 4.48386C0.882098 3.69442 1.34405 3.00809 1.92683 2.42488C2.50962 1.84166 3.19594 1.37971 3.98582 1.03903C4.77569 0.698354 5.61874 0.528015 6.51497 0.528015C7.41119 0.528015 8.25424 0.698354 9.04411 1.03903C9.83399 1.37971 10.5203 1.84166 11.1031 2.42488C11.6859 3.00809 12.148 3.69442 12.4896 4.48386C12.8311 5.2733 13.0013 6.11635 13 7.01301C12.9987 7.90967 12.8283 8.75272 12.4889 9.54216C12.1496 10.3316 11.6876 11.0179 11.1031 11.6011C10.5186 12.1844 9.83226 12.6465 9.04411 12.9876C8.25597 13.3287 7.41292 13.4989 6.51497 13.498ZM6.51497 12.201C7.96328 12.201 9.19003 11.6984 10.1952 10.6932C11.2004 9.68807 11.703 8.46132 11.703 7.01301C11.703 5.56469 11.2004 4.33795 10.1952 3.33277C9.19003 2.3276 7.96328 1.82501 6.51497 1.82501C5.06665 1.82501 3.8399 2.3276 2.83473 3.33277C1.82956 4.33795 1.32697 5.56469 1.32697 7.01301C1.32697 8.46132 1.82956 9.68807 2.83473 10.6932C3.8399 11.6984 5.06665 12.201 6.51497 12.201Z" fill="#BDBDBD"/>
</svg>
